<svg width="1920" height="1080" viewBox="0 0 1920 1080" fill="none" xmlns="http://www.w3.org/2000/svg">
<rect width="1920" height="1080" fill="#025E73"/>
<rect width="1920" height="1080" fill="black" fill-opacity="0.2"/>
<rect x="510" y="90" width="900" height="900" rx="40" fill="#011F26"/>
<rect x="510" y="90" width="900" height="900" rx="40" fill="black" fill-opacity="0.2"/>
<path d="M888.937 312.318C887.604 312.318 886.403 312.053 885.335 311.523C884.267 310.992 883.411 310.265 882.767 309.341C882.123 308.417 881.771 307.364 881.71 306.182H884.437C884.543 307.235 885.021 308.106 885.869 308.795C886.725 309.477 887.748 309.818 888.937 309.818C889.892 309.818 890.74 309.595 891.483 309.148C892.233 308.701 892.82 308.087 893.244 307.307C893.676 306.519 893.892 305.629 893.892 304.636C893.892 303.621 893.668 302.716 893.221 301.92C892.782 301.117 892.176 300.485 891.403 300.023C890.63 299.561 889.748 299.326 888.755 299.318C888.043 299.311 887.312 299.42 886.562 299.648C885.812 299.867 885.195 300.152 884.71 300.5L882.074 300.182L883.483 288.727H895.574V291.227H885.846L885.028 298.091H885.164C885.642 297.712 886.24 297.398 886.96 297.148C887.68 296.898 888.43 296.773 889.21 296.773C890.634 296.773 891.903 297.114 893.017 297.795C894.138 298.47 895.017 299.394 895.653 300.568C896.297 301.742 896.619 303.083 896.619 304.591C896.619 306.076 896.286 307.402 895.619 308.568C894.96 309.727 894.051 310.644 892.892 311.318C891.733 311.985 890.414 312.318 888.937 312.318ZM943.687 312.318C942.354 312.318 941.153 312.053 940.085 311.523C939.017 310.992 938.161 310.265 937.517 309.341C936.873 308.417 936.521 307.364 936.46 306.182H939.187C939.293 307.235 939.771 308.106 940.619 308.795C941.475 309.477 942.498 309.818 943.687 309.818C944.642 309.818 945.49 309.595 946.233 309.148C946.983 308.701 947.57 308.087 947.994 307.307C948.426 306.519 948.642 305.629 948.642 304.636C948.642 303.621 948.418 302.716 947.971 301.92C947.532 301.117 946.926 300.485 946.153 300.023C945.38 299.561 944.498 299.326 943.505 299.318C942.793 299.311 942.062 299.42 941.312 299.648C940.562 299.867 939.945 300.152 939.46 300.5L936.824 300.182L938.233 288.727H950.324V291.227H940.596L939.778 298.091H939.914C940.392 297.712 940.99 297.398 941.71 297.148C942.43 296.898 943.18 296.773 943.96 296.773C945.384 296.773 946.653 297.114 947.767 297.795C948.888 298.47 949.767 299.394 950.403 300.568C951.047 301.742 951.369 303.083 951.369 304.591C951.369 306.076 951.036 307.402 950.369 308.568C949.71 309.727 948.801 310.644 947.642 311.318C946.483 311.985 945.164 312.318 943.687 312.318ZM1003.98 312V309.955L1011.66 301.545C1012.56 300.561 1013.3 299.705 1013.89 298.977C1014.47 298.242 1014.9 297.553 1015.18 296.909C1015.47 296.258 1015.61 295.576 1015.61 294.864C1015.61 294.045 1015.42 293.337 1015.02 292.739C1014.64 292.14 1014.11 291.678 1013.43 291.352C1012.76 291.027 1012 290.864 1011.16 290.864C1010.26 290.864 1009.48 291.049 1008.82 291.42C1008.16 291.784 1007.65 292.295 1007.28 292.955C1006.93 293.614 1006.75 294.386 1006.75 295.273H1004.07C1004.07 293.909 1004.38 292.712 1005.01 291.682C1005.64 290.652 1006.5 289.848 1007.58 289.273C1008.67 288.697 1009.89 288.409 1011.25 288.409C1012.61 288.409 1013.82 288.697 1014.87 289.273C1015.93 289.848 1016.75 290.625 1017.35 291.602C1017.95 292.58 1018.25 293.667 1018.25 294.864C1018.25 295.72 1018.09 296.557 1017.78 297.375C1017.48 298.186 1016.95 299.091 1016.19 300.091C1015.44 301.083 1014.4 302.295 1013.07 303.727L1007.84 309.318V309.5H1018.66V312H1003.98ZM1030.62 312.318C1029.29 312.318 1028.09 312.053 1027.02 311.523C1025.95 310.992 1025.1 310.265 1024.45 309.341C1023.81 308.417 1023.46 307.364 1023.4 306.182H1026.12C1026.23 307.235 1026.71 308.106 1027.56 308.795C1028.41 309.477 1029.44 309.818 1030.62 309.818C1031.58 309.818 1032.43 309.595 1033.17 309.148C1033.92 308.701 1034.51 308.087 1034.93 307.307C1035.36 306.519 1035.58 305.629 1035.58 304.636C1035.58 303.621 1035.36 302.716 1034.91 301.92C1034.47 301.117 1033.86 300.485 1033.09 300.023C1032.32 299.561 1031.44 299.326 1030.44 299.318C1029.73 299.311 1029 299.42 1028.25 299.648C1027.5 299.867 1026.88 300.152 1026.4 300.5L1023.76 300.182L1025.17 288.727H1037.26V291.227H1027.53L1026.72 298.091H1026.85C1027.33 297.712 1027.93 297.398 1028.65 297.148C1029.37 296.898 1030.12 296.773 1030.9 296.773C1032.32 296.773 1033.59 297.114 1034.7 297.795C1035.83 298.47 1036.7 299.394 1037.34 300.568C1037.98 301.742 1038.31 303.083 1038.31 304.591C1038.31 306.076 1037.97 307.402 1037.31 308.568C1036.65 309.727 1035.74 310.644 1034.58 311.318C1033.42 311.985 1032.1 312.318 1030.62 312.318Z" fill="white"/>
<path d="M912.179 294.545L916.36 301.682L920.542 294.545H923.633L917.997 303.273L923.633 312H920.542L916.36 305.227L912.179 312H909.088L914.633 303.273L909.088 294.545H912.179ZM975.02 300.773V298.318H989.02V300.773H975.02ZM975.02 307.5V305.045H989.02V307.5H975.02Z" fill="#F2A71B"/>
<path d="M912.179 294.545L916.36 301.682L920.542 294.545H923.633L917.997 303.273L923.633 312H920.542L916.36 305.227L912.179 312H909.088L914.633 303.273L909.088 294.545H912.179ZM975.02 300.773V298.318H989.02V300.773H975.02ZM975.02 307.5V305.045H989.02V307.5H975.02Z" fill="black" fill-opacity="0.2"/>
<line y1="-1.5" x2="600" y2="-1.5" transform="matrix(1 0 0 -1 660 324.875)" stroke="#A5A692" stroke-width="3"/>
<line y1="-1.5" x2="600" y2="-1.5" transform="matrix(1 0 0 -1 660 324.875)" stroke="black" stroke-opacity="0.2" stroke-width="3"/>
<path d="M888.937 440.068C887.604 440.068 886.403 439.803 885.335 439.273C884.267 438.742 883.411 438.015 882.767 437.091C882.123 436.167 881.771 435.114 881.71 433.932H884.437C884.543 434.985 885.021 435.856 885.869 436.545C886.725 437.227 887.748 437.568 888.937 437.568C889.892 437.568 890.74 437.345 891.483 436.898C892.233 436.451 892.82 435.837 893.244 435.057C893.676 434.269 893.892 433.379 893.892 432.386C893.892 431.371 893.668 430.466 893.221 429.67C892.782 428.867 892.176 428.235 891.403 427.773C890.63 427.311 889.748 427.076 888.755 427.068C888.043 427.061 887.312 427.17 886.562 427.398C885.812 427.617 885.195 427.902 884.71 428.25L882.074 427.932L883.483 416.477H895.574V418.977H885.846L885.028 425.841H885.164C885.642 425.462 886.24 425.148 886.96 424.898C887.68 424.648 888.43 424.523 889.21 424.523C890.634 424.523 891.903 424.864 893.017 425.545C894.138 426.22 895.017 427.144 895.653 428.318C896.297 429.492 896.619 430.833 896.619 432.341C896.619 433.826 896.286 435.152 895.619 436.318C894.96 437.477 894.051 438.394 892.892 439.068C891.733 439.735 890.414 440.068 888.937 440.068ZM943.687 440.068C942.354 440.068 941.153 439.803 940.085 439.273C939.017 438.742 938.161 438.015 937.517 437.091C936.873 436.167 936.521 435.114 936.46 433.932H939.187C939.293 434.985 939.771 435.856 940.619 436.545C941.475 437.227 942.498 437.568 943.687 437.568C944.642 437.568 945.49 437.345 946.233 436.898C946.983 436.451 947.57 435.837 947.994 435.057C948.426 434.269 948.642 433.379 948.642 432.386C948.642 431.371 948.418 430.466 947.971 429.67C947.532 428.867 946.926 428.235 946.153 427.773C945.38 427.311 944.498 427.076 943.505 427.068C942.793 427.061 942.062 427.17 941.312 427.398C940.562 427.617 939.945 427.902 939.46 428.25L936.824 427.932L938.233 416.477H950.324V418.977H940.596L939.778 425.841H939.914C940.392 425.462 940.99 425.148 941.71 424.898C942.43 424.648 943.18 424.523 943.96 424.523C945.384 424.523 946.653 424.864 947.767 425.545C948.888 426.22 949.767 427.144 950.403 428.318C951.047 429.492 951.369 430.833 951.369 432.341C951.369 433.826 951.036 435.152 950.369 436.318C949.71 437.477 948.801 438.394 947.642 439.068C946.483 439.735 945.164 440.068 943.687 440.068ZM1003.98 439.75V437.705L1011.66 429.295C1012.56 428.311 1013.3 427.455 1013.89 426.727C1014.47 425.992 1014.9 425.303 1015.18 424.659C1015.47 424.008 1015.61 423.326 1015.61 422.614C1015.61 421.795 1015.42 421.087 1015.02 420.489C1014.64 419.89 1014.11 419.428 1013.43 419.102C1012.76 418.777 1012 418.614 1011.16 418.614C1010.26 418.614 1009.48 418.799 1008.82 419.17C1008.16 419.534 1007.65 420.045 1007.28 420.705C1006.93 421.364 1006.75 422.136 1006.75 423.023H1004.07C1004.07 421.659 1004.38 420.462 1005.01 419.432C1005.64 418.402 1006.5 417.598 1007.58 417.023C1008.67 416.447 1009.89 416.159 1011.25 416.159C1012.61 416.159 1013.82 416.447 1014.87 417.023C1015.93 417.598 1016.75 418.375 1017.35 419.352C1017.95 420.33 1018.25 421.417 1018.25 422.614C1018.25 423.47 1018.09 424.307 1017.78 425.125C1017.48 425.936 1016.95 426.841 1016.19 427.841C1015.44 428.833 1014.4 430.045 1013.07 431.477L1007.84 437.068V437.25H1018.66V439.75H1003.98ZM1030.62 440.068C1029.29 440.068 1028.09 439.803 1027.02 439.273C1025.95 438.742 1025.1 438.015 1024.45 437.091C1023.81 436.167 1023.46 435.114 1023.4 433.932H1026.12C1026.23 434.985 1026.71 435.856 1027.56 436.545C1028.41 437.227 1029.44 437.568 1030.62 437.568C1031.58 437.568 1032.43 437.345 1033.17 436.898C1033.92 436.451 1034.51 435.837 1034.93 435.057C1035.36 434.269 1035.58 433.379 1035.58 432.386C1035.58 431.371 1035.36 430.466 1034.91 429.67C1034.47 428.867 1033.86 428.235 1033.09 427.773C1032.32 427.311 1031.44 427.076 1030.44 427.068C1029.73 427.061 1029 427.17 1028.25 427.398C1027.5 427.617 1026.88 427.902 1026.4 428.25L1023.76 427.932L1025.17 416.477H1037.26V418.977H1027.53L1026.72 425.841H1026.85C1027.33 425.462 1027.93 425.148 1028.65 424.898C1029.37 424.648 1030.12 424.523 1030.9 424.523C1032.32 424.523 1033.59 424.864 1034.7 425.545C1035.83 426.22 1036.7 427.144 1037.34 428.318C1037.98 429.492 1038.31 430.833 1038.31 432.341C1038.31 433.826 1037.97 435.152 1037.31 436.318C1036.65 437.477 1035.74 438.394 1034.58 439.068C1033.42 439.735 1032.1 440.068 1030.62 440.068Z" fill="white"/>
<path d="M912.179 422.295L916.36 429.432L920.542 422.295H923.633L917.997 431.023L923.633 439.75H920.542L916.36 432.977L912.179 439.75H909.088L914.633 431.023L909.088 422.295H912.179ZM975.02 428.523V426.068H989.02V428.523H975.02ZM975.02 435.25V432.795H989.02V435.25H975.02Z" fill="#F2A71B"/>
<path d="M912.179 422.295L916.36 429.432L920.542 422.295H923.633L917.997 431.023L923.633 439.75H920.542L916.36 432.977L912.179 439.75H909.088L914.633 431.023L909.088 422.295H912.179ZM975.02 428.523V426.068H989.02V428.523H975.02ZM975.02 435.25V432.795H989.02V435.25H975.02Z" fill="black" fill-opacity="0.2"/>
<line y1="-1.5" x2="600" y2="-1.5" transform="matrix(1 0 0 -1 660 452.625)" stroke="#A5A692" stroke-width="3"/>
<line y1="-1.5" x2="600" y2="-1.5" transform="matrix(1 0 0 -1 660 452.625)" stroke="black" stroke-opacity="0.2" stroke-width="3"/>
<path d="M888.937 376.193C887.604 376.193 886.403 375.928 885.335 375.398C884.267 374.867 883.411 374.14 882.767 373.216C882.123 372.292 881.771 371.239 881.71 370.057H884.437C884.543 371.11 885.021 371.981 885.869 372.67C886.725 373.352 887.748 373.693 888.937 373.693C889.892 373.693 890.74 373.47 891.483 373.023C892.233 372.576 892.82 371.962 893.244 371.182C893.676 370.394 893.892 369.504 893.892 368.511C893.892 367.496 893.668 366.591 893.221 365.795C892.782 364.992 892.176 364.36 891.403 363.898C890.63 363.436 889.748 363.201 888.755 363.193C888.043 363.186 887.312 363.295 886.562 363.523C885.812 363.742 885.195 364.027 884.71 364.375L882.074 364.057L883.483 352.602H895.574V355.102H885.846L885.028 361.966H885.164C885.642 361.587 886.24 361.273 886.96 361.023C887.68 360.773 888.43 360.648 889.21 360.648C890.634 360.648 891.903 360.989 893.017 361.67C894.138 362.345 895.017 363.269 895.653 364.443C896.297 365.617 896.619 366.958 896.619 368.466C896.619 369.951 896.286 371.277 895.619 372.443C894.96 373.602 894.051 374.519 892.892 375.193C891.733 375.86 890.414 376.193 888.937 376.193ZM943.687 376.193C942.354 376.193 941.153 375.928 940.085 375.398C939.017 374.867 938.161 374.14 937.517 373.216C936.873 372.292 936.521 371.239 936.46 370.057H939.187C939.293 371.11 939.771 371.981 940.619 372.67C941.475 373.352 942.498 373.693 943.687 373.693C944.642 373.693 945.49 373.47 946.233 373.023C946.983 372.576 947.57 371.962 947.994 371.182C948.426 370.394 948.642 369.504 948.642 368.511C948.642 367.496 948.418 366.591 947.971 365.795C947.532 364.992 946.926 364.36 946.153 363.898C945.38 363.436 944.498 363.201 943.505 363.193C942.793 363.186 942.062 363.295 941.312 363.523C940.562 363.742 939.945 364.027 939.46 364.375L936.824 364.057L938.233 352.602H950.324V355.102H940.596L939.778 361.966H939.914C940.392 361.587 940.99 361.273 941.71 361.023C942.43 360.773 943.18 360.648 943.96 360.648C945.384 360.648 946.653 360.989 947.767 361.67C948.888 362.345 949.767 363.269 950.403 364.443C951.047 365.617 951.369 366.958 951.369 368.466C951.369 369.951 951.036 371.277 950.369 372.443C949.71 373.602 948.801 374.519 947.642 375.193C946.483 375.86 945.164 376.193 943.687 376.193ZM1003.98 375.875V373.83L1011.66 365.42C1012.56 364.436 1013.3 363.58 1013.89 362.852C1014.47 362.117 1014.9 361.428 1015.18 360.784C1015.47 360.133 1015.61 359.451 1015.61 358.739C1015.61 357.92 1015.42 357.212 1015.02 356.614C1014.64 356.015 1014.11 355.553 1013.43 355.227C1012.76 354.902 1012 354.739 1011.16 354.739C1010.26 354.739 1009.48 354.924 1008.82 355.295C1008.16 355.659 1007.65 356.17 1007.28 356.83C1006.93 357.489 1006.75 358.261 1006.75 359.148H1004.07C1004.07 357.784 1004.38 356.587 1005.01 355.557C1005.64 354.527 1006.5 353.723 1007.58 353.148C1008.67 352.572 1009.89 352.284 1011.25 352.284C1012.61 352.284 1013.82 352.572 1014.87 353.148C1015.93 353.723 1016.75 354.5 1017.35 355.477C1017.95 356.455 1018.25 357.542 1018.25 358.739C1018.25 359.595 1018.09 360.432 1017.78 361.25C1017.48 362.061 1016.95 362.966 1016.19 363.966C1015.44 364.958 1014.4 366.17 1013.07 367.602L1007.84 373.193V373.375H1018.66V375.875H1003.98ZM1030.62 376.193C1029.29 376.193 1028.09 375.928 1027.02 375.398C1025.95 374.867 1025.1 374.14 1024.45 373.216C1023.81 372.292 1023.46 371.239 1023.4 370.057H1026.12C1026.23 371.11 1026.71 371.981 1027.56 372.67C1028.41 373.352 1029.44 373.693 1030.62 373.693C1031.58 373.693 1032.43 373.47 1033.17 373.023C1033.92 372.576 1034.51 371.962 1034.93 371.182C1035.36 370.394 1035.58 369.504 1035.58 368.511C1035.58 367.496 1035.36 366.591 1034.91 365.795C1034.47 364.992 1033.86 364.36 1033.09 363.898C1032.32 363.436 1031.44 363.201 1030.44 363.193C1029.73 363.186 1029 363.295 1028.25 363.523C1027.5 363.742 1026.88 364.027 1026.4 364.375L1023.76 364.057L1025.17 352.602H1037.26V355.102H1027.53L1026.72 361.966H1026.85C1027.33 361.587 1027.93 361.273 1028.65 361.023C1029.37 360.773 1030.12 360.648 1030.9 360.648C1032.32 360.648 1033.59 360.989 1034.7 361.67C1035.83 362.345 1036.7 363.269 1037.34 364.443C1037.98 365.617 1038.31 366.958 1038.31 368.466C1038.31 369.951 1037.97 371.277 1037.31 372.443C1036.65 373.602 1035.74 374.519 1034.58 375.193C1033.42 375.86 1032.1 376.193 1030.62 376.193Z" fill="white"/>
<path d="M912.179 358.42L916.36 365.557L920.542 358.42H923.633L917.997 367.148L923.633 375.875H920.542L916.36 369.102L912.179 375.875H909.088L914.633 367.148L909.088 358.42H912.179ZM975.02 364.648V362.193H989.02V364.648H975.02ZM975.02 371.375V368.92H989.02V371.375H975.02Z" fill="#F2A71B"/>
<path d="M912.179 358.42L916.36 365.557L920.542 358.42H923.633L917.997 367.148L923.633 375.875H920.542L916.36 369.102L912.179 375.875H909.088L914.633 367.148L909.088 358.42H912.179ZM975.02 364.648V362.193H989.02V364.648H975.02ZM975.02 371.375V368.92H989.02V371.375H975.02Z" fill="black" fill-opacity="0.2"/>
<line y1="-1.5" x2="600" y2="-1.5" transform="matrix(1 0 0 -1 660 388.75)" stroke="#A5A692" stroke-width="3"/>
<line y1="-1.5" x2="600" y2="-1.5" transform="matrix(1 0 0 -1 660 388.75)" stroke="black" stroke-opacity="0.2" stroke-width="3"/>
<path d="M888.937 376.193C887.604 376.193 886.403 375.928 885.335 375.398C884.267 374.867 883.411 374.14 882.767 373.216C882.123 372.292 881.771 371.239 881.71 370.057H884.437C884.543 371.11 885.021 371.981 885.869 372.67C886.725 373.352 887.748 373.693 888.937 373.693C889.892 373.693 890.74 373.47 891.483 373.023C892.233 372.576 892.82 371.962 893.244 371.182C893.676 370.394 893.892 369.504 893.892 368.511C893.892 367.496 893.668 366.591 893.221 365.795C892.782 364.992 892.176 364.36 891.403 363.898C890.63 363.436 889.748 363.201 888.755 363.193C888.043 363.186 887.312 363.295 886.562 363.523C885.812 363.742 885.195 364.027 884.71 364.375L882.074 364.057L883.483 352.602H895.574V355.102H885.846L885.028 361.966H885.164C885.642 361.587 886.24 361.273 886.96 361.023C887.68 360.773 888.43 360.648 889.21 360.648C890.634 360.648 891.903 360.989 893.017 361.67C894.138 362.345 895.017 363.269 895.653 364.443C896.297 365.617 896.619 366.958 896.619 368.466C896.619 369.951 896.286 371.277 895.619 372.443C894.96 373.602 894.051 374.519 892.892 375.193C891.733 375.86 890.414 376.193 888.937 376.193ZM943.687 376.193C942.354 376.193 941.153 375.928 940.085 375.398C939.017 374.867 938.161 374.14 937.517 373.216C936.873 372.292 936.521 371.239 936.46 370.057H939.187C939.293 371.11 939.771 371.981 940.619 372.67C941.475 373.352 942.498 373.693 943.687 373.693C944.642 373.693 945.49 373.47 946.233 373.023C946.983 372.576 947.57 371.962 947.994 371.182C948.426 370.394 948.642 369.504 948.642 368.511C948.642 367.496 948.418 366.591 947.971 365.795C947.532 364.992 946.926 364.36 946.153 363.898C945.38 363.436 944.498 363.201 943.505 363.193C942.793 363.186 942.062 363.295 941.312 363.523C940.562 363.742 939.945 364.027 939.46 364.375L936.824 364.057L938.233 352.602H950.324V355.102H940.596L939.778 361.966H939.914C940.392 361.587 940.99 361.273 941.71 361.023C942.43 360.773 943.18 360.648 943.96 360.648C945.384 360.648 946.653 360.989 947.767 361.67C948.888 362.345 949.767 363.269 950.403 364.443C951.047 365.617 951.369 366.958 951.369 368.466C951.369 369.951 951.036 371.277 950.369 372.443C949.71 373.602 948.801 374.519 947.642 375.193C946.483 375.86 945.164 376.193 943.687 376.193ZM1003.98 375.875V373.83L1011.66 365.42C1012.56 364.436 1013.3 363.58 1013.89 362.852C1014.47 362.117 1014.9 361.428 1015.18 360.784C1015.47 360.133 1015.61 359.451 1015.61 358.739C1015.61 357.92 1015.42 357.212 1015.02 356.614C1014.64 356.015 1014.11 355.553 1013.43 355.227C1012.76 354.902 1012 354.739 1011.16 354.739C1010.26 354.739 1009.48 354.924 1008.82 355.295C1008.16 355.659 1007.65 356.17 1007.28 356.83C1006.93 357.489 1006.75 358.261 1006.75 359.148H1004.07C1004.07 357.784 1004.38 356.587 1005.01 355.557C1005.64 354.527 1006.5 353.723 1007.58 353.148C1008.67 352.572 1009.89 352.284 1011.25 352.284C1012.61 352.284 1013.82 352.572 1014.87 353.148C1015.93 353.723 1016.75 354.5 1017.35 355.477C1017.95 356.455 1018.25 357.542 1018.25 358.739C1018.25 359.595 1018.09 360.432 1017.78 361.25C1017.48 362.061 1016.95 362.966 1016.19 363.966C1015.44 364.958 1014.4 366.17 1013.07 367.602L1007.84 373.193V373.375H1018.66V375.875H1003.98ZM1030.62 376.193C1029.29 376.193 1028.09 375.928 1027.02 375.398C1025.95 374.867 1025.1 374.14 1024.45 373.216C1023.81 372.292 1023.46 371.239 1023.4 370.057H1026.12C1026.23 371.11 1026.71 371.981 1027.56 372.67C1028.41 373.352 1029.44 373.693 1030.62 373.693C1031.58 373.693 1032.43 373.47 1033.17 373.023C1033.92 372.576 1034.51 371.962 1034.93 371.182C1035.36 370.394 1035.58 369.504 1035.58 368.511C1035.58 367.496 1035.36 366.591 1034.91 365.795C1034.47 364.992 1033.86 364.36 1033.09 363.898C1032.32 363.436 1031.44 363.201 1030.44 363.193C1029.73 363.186 1029 363.295 1028.25 363.523C1027.5 363.742 1026.88 364.027 1026.4 364.375L1023.76 364.057L1025.17 352.602H1037.26V355.102H1027.53L1026.72 361.966H1026.85C1027.33 361.587 1027.93 361.273 1028.65 361.023C1029.37 360.773 1030.12 360.648 1030.9 360.648C1032.32 360.648 1033.59 360.989 1034.7 361.67C1035.83 362.345 1036.7 363.269 1037.34 364.443C1037.98 365.617 1038.31 366.958 1038.31 368.466C1038.31 369.951 1037.97 371.277 1037.31 372.443C1036.65 373.602 1035.74 374.519 1034.58 375.193C1033.42 375.86 1032.1 376.193 1030.62 376.193Z" fill="white"/>
<path d="M912.179 358.42L916.36 365.557L920.542 358.42H923.633L917.997 367.148L923.633 375.875H920.542L916.36 369.102L912.179 375.875H909.088L914.633 367.148L909.088 358.42H912.179ZM975.02 364.648V362.193H989.02V364.648H975.02ZM975.02 371.375V368.92H989.02V371.375H975.02Z" fill="#F2A71B"/>
<path d="M912.179 358.42L916.36 365.557L920.542 358.42H923.633L917.997 367.148L923.633 375.875H920.542L916.36 369.102L912.179 375.875H909.088L914.633 367.148L909.088 358.42H912.179ZM975.02 364.648V362.193H989.02V364.648H975.02ZM975.02 371.375V368.92H989.02V371.375H975.02Z" fill="black" fill-opacity="0.2"/>
<path d="M888.937 503.943C887.604 503.943 886.403 503.678 885.335 503.148C884.267 502.617 883.411 501.89 882.767 500.966C882.123 500.042 881.771 498.989 881.71 497.807H884.437C884.543 498.86 885.021 499.731 885.869 500.42C886.725 501.102 887.748 501.443 888.937 501.443C889.892 501.443 890.74 501.22 891.483 500.773C892.233 500.326 892.82 499.712 893.244 498.932C893.676 498.144 893.892 497.254 893.892 496.261C893.892 495.246 893.668 494.341 893.221 493.545C892.782 492.742 892.176 492.11 891.403 491.648C890.63 491.186 889.748 490.951 888.755 490.943C888.043 490.936 887.312 491.045 886.562 491.273C885.812 491.492 885.195 491.777 884.71 492.125L882.074 491.807L883.483 480.352H895.574V482.852H885.846L885.028 489.716H885.164C885.642 489.337 886.24 489.023 886.96 488.773C887.68 488.523 888.43 488.398 889.21 488.398C890.634 488.398 891.903 488.739 893.017 489.42C894.138 490.095 895.017 491.019 895.653 492.193C896.297 493.367 896.619 494.708 896.619 496.216C896.619 497.701 896.286 499.027 895.619 500.193C894.96 501.352 894.051 502.269 892.892 502.943C891.733 503.61 890.414 503.943 888.937 503.943ZM943.687 503.943C942.354 503.943 941.153 503.678 940.085 503.148C939.017 502.617 938.161 501.89 937.517 500.966C936.873 500.042 936.521 498.989 936.46 497.807H939.187C939.293 498.86 939.771 499.731 940.619 500.42C941.475 501.102 942.498 501.443 943.687 501.443C944.642 501.443 945.49 501.22 946.233 500.773C946.983 500.326 947.57 499.712 947.994 498.932C948.426 498.144 948.642 497.254 948.642 496.261C948.642 495.246 948.418 494.341 947.971 493.545C947.532 492.742 946.926 492.11 946.153 491.648C945.38 491.186 944.498 490.951 943.505 490.943C942.793 490.936 942.062 491.045 941.312 491.273C940.562 491.492 939.945 491.777 939.46 492.125L936.824 491.807L938.233 480.352H950.324V482.852H940.596L939.778 489.716H939.914C940.392 489.337 940.99 489.023 941.71 488.773C942.43 488.523 943.18 488.398 943.96 488.398C945.384 488.398 946.653 488.739 947.767 489.42C948.888 490.095 949.767 491.019 950.403 492.193C951.047 493.367 951.369 494.708 951.369 496.216C951.369 497.701 951.036 499.027 950.369 500.193C949.71 501.352 948.801 502.269 947.642 502.943C946.483 503.61 945.164 503.943 943.687 503.943ZM1003.98 503.625V501.58L1011.66 493.17C1012.56 492.186 1013.3 491.33 1013.89 490.602C1014.47 489.867 1014.9 489.178 1015.18 488.534C1015.47 487.883 1015.61 487.201 1015.61 486.489C1015.61 485.67 1015.42 484.962 1015.02 484.364C1014.64 483.765 1014.11 483.303 1013.43 482.977C1012.76 482.652 1012 482.489 1011.16 482.489C1010.26 482.489 1009.48 482.674 1008.82 483.045C1008.16 483.409 1007.65 483.92 1007.28 484.58C1006.93 485.239 1006.75 486.011 1006.75 486.898H1004.07C1004.07 485.534 1004.38 484.337 1005.01 483.307C1005.64 482.277 1006.5 481.473 1007.58 480.898C1008.67 480.322 1009.89 480.034 1011.25 480.034C1012.61 480.034 1013.82 480.322 1014.87 480.898C1015.93 481.473 1016.75 482.25 1017.35 483.227C1017.95 484.205 1018.25 485.292 1018.25 486.489C1018.25 487.345 1018.09 488.182 1017.78 489C1017.48 489.811 1016.95 490.716 1016.19 491.716C1015.44 492.708 1014.4 493.92 1013.07 495.352L1007.84 500.943V501.125H1018.66V503.625H1003.98ZM1030.62 503.943C1029.29 503.943 1028.09 503.678 1027.02 503.148C1025.95 502.617 1025.1 501.89 1024.45 500.966C1023.81 500.042 1023.46 498.989 1023.4 497.807H1026.12C1026.23 498.86 1026.71 499.731 1027.56 500.42C1028.41 501.102 1029.44 501.443 1030.62 501.443C1031.58 501.443 1032.43 501.22 1033.17 500.773C1033.92 500.326 1034.51 499.712 1034.93 498.932C1035.36 498.144 1035.58 497.254 1035.58 496.261C1035.58 495.246 1035.36 494.341 1034.91 493.545C1034.47 492.742 1033.86 492.11 1033.09 491.648C1032.32 491.186 1031.44 490.951 1030.44 490.943C1029.73 490.936 1029 491.045 1028.25 491.273C1027.5 491.492 1026.88 491.777 1026.4 492.125L1023.76 491.807L1025.17 480.352H1037.26V482.852H1027.53L1026.72 489.716H1026.85C1027.33 489.337 1027.93 489.023 1028.65 488.773C1029.37 488.523 1030.12 488.398 1030.9 488.398C1032.32 488.398 1033.59 488.739 1034.7 489.42C1035.83 490.095 1036.7 491.019 1037.34 492.193C1037.98 493.367 1038.31 494.708 1038.31 496.216C1038.31 497.701 1037.97 499.027 1037.31 500.193C1036.65 501.352 1035.74 502.269 1034.58 502.943C1033.42 503.61 1032.1 503.943 1030.62 503.943Z" fill="white"/>
<path d="M912.179 486.17L916.36 493.307L920.542 486.17H923.633L917.997 494.898L923.633 503.625H920.542L916.36 496.852L912.179 503.625H909.088L914.633 494.898L909.088 486.17H912.179ZM975.02 492.398V489.943H989.02V492.398H975.02ZM975.02 499.125V496.67H989.02V499.125H975.02Z" fill="#F2A71B"/>
<path d="M912.179 486.17L916.36 493.307L920.542 486.17H923.633L917.997 494.898L923.633 503.625H920.542L916.36 496.852L912.179 503.625H909.088L914.633 494.898L909.088 486.17H912.179ZM975.02 492.398V489.943H989.02V492.398H975.02ZM975.02 499.125V496.67H989.02V499.125H975.02Z" fill="black" fill-opacity="0.2"/>
<line y1="-1.5" x2="600" y2="-1.5" transform="matrix(1 0 0 -1 660 516.5)" stroke="#A5A692" stroke-width="3"/>
<line y1="-1.5" x2="600" y2="-1.5" transform="matrix(1 0 0 -1 660 516.5)" stroke="black" stroke-opacity="0.2" stroke-width="3"/>
<path d="M888.937 567.818C887.604 567.818 886.403 567.553 885.335 567.023C884.267 566.492 883.411 565.765 882.767 564.841C882.123 563.917 881.771 562.864 881.71 561.682H884.437C884.543 562.735 885.021 563.606 885.869 564.295C886.725 564.977 887.748 565.318 888.937 565.318C889.892 565.318 890.74 565.095 891.483 564.648C892.233 564.201 892.82 563.587 893.244 562.807C893.676 562.019 893.892 561.129 893.892 560.136C893.892 559.121 893.668 558.216 893.221 557.42C892.782 556.617 892.176 555.985 891.403 555.523C890.63 555.061 889.748 554.826 888.755 554.818C888.043 554.811 887.312 554.92 886.562 555.148C885.812 555.367 885.195 555.652 884.71 556L882.074 555.682L883.483 544.227H895.574V546.727H885.846L885.028 553.591H885.164C885.642 553.212 886.24 552.898 886.96 552.648C887.68 552.398 888.43 552.273 889.21 552.273C890.634 552.273 891.903 552.614 893.017 553.295C894.138 553.97 895.017 554.894 895.653 556.068C896.297 557.242 896.619 558.583 896.619 560.091C896.619 561.576 896.286 562.902 895.619 564.068C894.96 565.227 894.051 566.144 892.892 566.818C891.733 567.485 890.414 567.818 888.937 567.818ZM943.687 567.818C942.354 567.818 941.153 567.553 940.085 567.023C939.017 566.492 938.161 565.765 937.517 564.841C936.873 563.917 936.521 562.864 936.46 561.682H939.187C939.293 562.735 939.771 563.606 940.619 564.295C941.475 564.977 942.498 565.318 943.687 565.318C944.642 565.318 945.49 565.095 946.233 564.648C946.983 564.201 947.57 563.587 947.994 562.807C948.426 562.019 948.642 561.129 948.642 560.136C948.642 559.121 948.418 558.216 947.971 557.42C947.532 556.617 946.926 555.985 946.153 555.523C945.38 555.061 944.498 554.826 943.505 554.818C942.793 554.811 942.062 554.92 941.312 555.148C940.562 555.367 939.945 555.652 939.46 556L936.824 555.682L938.233 544.227H950.324V546.727H940.596L939.778 553.591H939.914C940.392 553.212 940.99 552.898 941.71 552.648C942.43 552.398 943.18 552.273 943.96 552.273C945.384 552.273 946.653 552.614 947.767 553.295C948.888 553.97 949.767 554.894 950.403 556.068C951.047 557.242 951.369 558.583 951.369 560.091C951.369 561.576 951.036 562.902 950.369 564.068C949.71 565.227 948.801 566.144 947.642 566.818C946.483 567.485 945.164 567.818 943.687 567.818ZM1003.98 567.5V565.455L1011.66 557.045C1012.56 556.061 1013.3 555.205 1013.89 554.477C1014.47 553.742 1014.9 553.053 1015.18 552.409C1015.47 551.758 1015.61 551.076 1015.61 550.364C1015.61 549.545 1015.42 548.837 1015.02 548.239C1014.64 547.64 1014.11 547.178 1013.43 546.852C1012.76 546.527 1012 546.364 1011.16 546.364C1010.26 546.364 1009.48 546.549 1008.82 546.92C1008.16 547.284 1007.65 547.795 1007.28 548.455C1006.93 549.114 1006.75 549.886 1006.75 550.773H1004.07C1004.07 549.409 1004.38 548.212 1005.01 547.182C1005.64 546.152 1006.5 545.348 1007.58 544.773C1008.67 544.197 1009.89 543.909 1011.25 543.909C1012.61 543.909 1013.82 544.197 1014.87 544.773C1015.93 545.348 1016.75 546.125 1017.35 547.102C1017.95 548.08 1018.25 549.167 1018.25 550.364C1018.25 551.22 1018.09 552.057 1017.78 552.875C1017.48 553.686 1016.95 554.591 1016.19 555.591C1015.44 556.583 1014.4 557.795 1013.07 559.227L1007.84 564.818V565H1018.66V567.5H1003.98ZM1030.62 567.818C1029.29 567.818 1028.09 567.553 1027.02 567.023C1025.95 566.492 1025.1 565.765 1024.45 564.841C1023.81 563.917 1023.46 562.864 1023.4 561.682H1026.12C1026.23 562.735 1026.71 563.606 1027.56 564.295C1028.41 564.977 1029.44 565.318 1030.62 565.318C1031.58 565.318 1032.43 565.095 1033.17 564.648C1033.92 564.201 1034.51 563.587 1034.93 562.807C1035.36 562.019 1035.58 561.129 1035.58 560.136C1035.58 559.121 1035.36 558.216 1034.91 557.42C1034.47 556.617 1033.86 555.985 1033.09 555.523C1032.32 555.061 1031.44 554.826 1030.44 554.818C1029.73 554.811 1029 554.92 1028.25 555.148C1027.5 555.367 1026.88 555.652 1026.4 556L1023.76 555.682L1025.17 544.227H1037.26V546.727H1027.53L1026.72 553.591H1026.85C1027.33 553.212 1027.93 552.898 1028.65 552.648C1029.37 552.398 1030.12 552.273 1030.9 552.273C1032.32 552.273 1033.59 552.614 1034.7 553.295C1035.83 553.97 1036.7 554.894 1037.34 556.068C1037.98 557.242 1038.31 558.583 1038.31 560.091C1038.31 561.576 1037.97 562.902 1037.31 564.068C1036.65 565.227 1035.74 566.144 1034.58 566.818C1033.42 567.485 1032.1 567.818 1030.62 567.818Z" fill="white"/>
<path d="M912.179 550.045L916.36 557.182L920.542 550.045H923.633L917.997 558.773L923.633 567.5H920.542L916.36 560.727L912.179 567.5H909.088L914.633 558.773L909.088 550.045H912.179ZM975.02 556.273V553.818H989.02V556.273H975.02ZM975.02 563V560.545H989.02V563H975.02Z" fill="#F2A71B"/>
<path d="M912.179 550.045L916.36 557.182L920.542 550.045H923.633L917.997 558.773L923.633 567.5H920.542L916.36 560.727L912.179 567.5H909.088L914.633 558.773L909.088 550.045H912.179ZM975.02 556.273V553.818H989.02V556.273H975.02ZM975.02 563V560.545H989.02V563H975.02Z" fill="black" fill-opacity="0.2"/>
<line y1="-1.5" x2="600" y2="-1.5" transform="matrix(1 0 0 -1 660 580.375)" stroke="#A5A692" stroke-width="3"/>
<line y1="-1.5" x2="600" y2="-1.5" transform="matrix(1 0 0 -1 660 580.375)" stroke="black" stroke-opacity="0.2" stroke-width="3"/>
<path d="M888.937 631.318C887.604 631.318 886.403 631.053 885.335 630.523C884.267 629.992 883.411 629.265 882.767 628.341C882.123 627.417 881.771 626.364 881.71 625.182H884.437C884.543 626.235 885.021 627.106 885.869 627.795C886.725 628.477 887.748 628.818 888.937 628.818C889.892 628.818 890.74 628.595 891.483 628.148C892.233 627.701 892.82 627.087 893.244 626.307C893.676 625.519 893.892 624.629 893.892 623.636C893.892 622.621 893.668 621.716 893.221 620.92C892.782 620.117 892.176 619.485 891.403 619.023C890.63 618.561 889.748 618.326 888.755 618.318C888.043 618.311 887.312 618.42 886.562 618.648C885.812 618.867 885.195 619.152 884.71 619.5L882.074 619.182L883.483 607.727H895.574V610.227H885.846L885.028 617.091H885.164C885.642 616.712 886.24 616.398 886.96 616.148C887.68 615.898 888.43 615.773 889.21 615.773C890.634 615.773 891.903 616.114 893.017 616.795C894.138 617.47 895.017 618.394 895.653 619.568C896.297 620.742 896.619 622.083 896.619 623.591C896.619 625.076 896.286 626.402 895.619 627.568C894.96 628.727 894.051 629.644 892.892 630.318C891.733 630.985 890.414 631.318 888.937 631.318ZM943.687 631.318C942.354 631.318 941.153 631.053 940.085 630.523C939.017 629.992 938.161 629.265 937.517 628.341C936.873 627.417 936.521 626.364 936.46 625.182H939.187C939.293 626.235 939.771 627.106 940.619 627.795C941.475 628.477 942.498 628.818 943.687 628.818C944.642 628.818 945.49 628.595 946.233 628.148C946.983 627.701 947.57 627.087 947.994 626.307C948.426 625.519 948.642 624.629 948.642 623.636C948.642 622.621 948.418 621.716 947.971 620.92C947.532 620.117 946.926 619.485 946.153 619.023C945.38 618.561 944.498 618.326 943.505 618.318C942.793 618.311 942.062 618.42 941.312 618.648C940.562 618.867 939.945 619.152 939.46 619.5L936.824 619.182L938.233 607.727H950.324V610.227H940.596L939.778 617.091H939.914C940.392 616.712 940.99 616.398 941.71 616.148C942.43 615.898 943.18 615.773 943.96 615.773C945.384 615.773 946.653 616.114 947.767 616.795C948.888 617.47 949.767 618.394 950.403 619.568C951.047 620.742 951.369 622.083 951.369 623.591C951.369 625.076 951.036 626.402 950.369 627.568C949.71 628.727 948.801 629.644 947.642 630.318C946.483 630.985 945.164 631.318 943.687 631.318ZM1003.98 631V628.955L1011.66 620.545C1012.56 619.561 1013.3 618.705 1013.89 617.977C1014.47 617.242 1014.9 616.553 1015.18 615.909C1015.47 615.258 1015.61 614.576 1015.61 613.864C1015.61 613.045 1015.42 612.337 1015.02 611.739C1014.64 611.14 1014.11 610.678 1013.43 610.352C1012.76 610.027 1012 609.864 1011.16 609.864C1010.26 609.864 1009.48 610.049 1008.82 610.42C1008.16 610.784 1007.65 611.295 1007.28 611.955C1006.93 612.614 1006.75 613.386 1006.75 614.273H1004.07C1004.07 612.909 1004.38 611.712 1005.01 610.682C1005.64 609.652 1006.5 608.848 1007.58 608.273C1008.67 607.697 1009.89 607.409 1011.25 607.409C1012.61 607.409 1013.82 607.697 1014.87 608.273C1015.93 608.848 1016.75 609.625 1017.35 610.602C1017.95 611.58 1018.25 612.667 1018.25 613.864C1018.25 614.72 1018.09 615.557 1017.78 616.375C1017.48 617.186 1016.95 618.091 1016.19 619.091C1015.44 620.083 1014.4 621.295 1013.07 622.727L1007.84 628.318V628.5H1018.66V631H1003.98ZM1030.62 631.318C1029.29 631.318 1028.09 631.053 1027.02 630.523C1025.95 629.992 1025.1 629.265 1024.45 628.341C1023.81 627.417 1023.46 626.364 1023.4 625.182H1026.12C1026.23 626.235 1026.71 627.106 1027.56 627.795C1028.41 628.477 1029.44 628.818 1030.62 628.818C1031.58 628.818 1032.43 628.595 1033.17 628.148C1033.92 627.701 1034.51 627.087 1034.93 626.307C1035.36 625.519 1035.58 624.629 1035.58 623.636C1035.58 622.621 1035.36 621.716 1034.91 620.92C1034.47 620.117 1033.86 619.485 1033.09 619.023C1032.32 618.561 1031.44 618.326 1030.44 618.318C1029.73 618.311 1029 618.42 1028.25 618.648C1027.5 618.867 1026.88 619.152 1026.4 619.5L1023.76 619.182L1025.17 607.727H1037.26V610.227H1027.53L1026.72 617.091H1026.85C1027.33 616.712 1027.93 616.398 1028.65 616.148C1029.37 615.898 1030.12 615.773 1030.9 615.773C1032.32 615.773 1033.59 616.114 1034.7 616.795C1035.83 617.47 1036.7 618.394 1037.34 619.568C1037.98 620.742 1038.31 622.083 1038.31 623.591C1038.31 625.076 1037.97 626.402 1037.31 627.568C1036.65 628.727 1035.74 629.644 1034.58 630.318C1033.42 630.985 1032.1 631.318 1030.62 631.318Z" fill="white"/>
<path d="M912.179 613.545L916.36 620.682L920.542 613.545H923.633L917.997 622.273L923.633 631H920.542L916.36 624.227L912.179 631H909.088L914.633 622.273L909.088 613.545H912.179ZM975.02 619.773V617.318H989.02V619.773H975.02ZM975.02 626.5V624.045H989.02V626.5H975.02Z" fill="#F2A71B"/>
<path d="M912.179 613.545L916.36 620.682L920.542 613.545H923.633L917.997 622.273L923.633 631H920.542L916.36 624.227L912.179 631H909.088L914.633 622.273L909.088 613.545H912.179ZM975.02 619.773V617.318H989.02V619.773H975.02ZM975.02 626.5V624.045H989.02V626.5H975.02Z" fill="black" fill-opacity="0.2"/>
<line y1="-1.5" x2="600" y2="-1.5" transform="matrix(1 0 0 -1 660 643.875)" stroke="#A5A692" stroke-width="3"/>
<line y1="-1.5" x2="600" y2="-1.5" transform="matrix(1 0 0 -1 660 643.875)" stroke="black" stroke-opacity="0.2" stroke-width="3"/>
<path d="M888.937 759.068C887.604 759.068 886.403 758.803 885.335 758.273C884.267 757.742 883.411 757.015 882.767 756.091C882.123 755.167 881.771 754.114 881.71 752.932H884.437C884.543 753.985 885.021 754.856 885.869 755.545C886.725 756.227 887.748 756.568 888.937 756.568C889.892 756.568 890.74 756.345 891.483 755.898C892.233 755.451 892.82 754.837 893.244 754.057C893.676 753.269 893.892 752.379 893.892 751.386C893.892 750.371 893.668 749.466 893.221 748.67C892.782 747.867 892.176 747.235 891.403 746.773C890.63 746.311 889.748 746.076 888.755 746.068C888.043 746.061 887.312 746.17 886.562 746.398C885.812 746.617 885.195 746.902 884.71 747.25L882.074 746.932L883.483 735.477H895.574V737.977H885.846L885.028 744.841H885.164C885.642 744.462 886.24 744.148 886.96 743.898C887.68 743.648 888.43 743.523 889.21 743.523C890.634 743.523 891.903 743.864 893.017 744.545C894.138 745.22 895.017 746.144 895.653 747.318C896.297 748.492 896.619 749.833 896.619 751.341C896.619 752.826 896.286 754.152 895.619 755.318C894.96 756.477 894.051 757.394 892.892 758.068C891.733 758.735 890.414 759.068 888.937 759.068ZM943.687 759.068C942.354 759.068 941.153 758.803 940.085 758.273C939.017 757.742 938.161 757.015 937.517 756.091C936.873 755.167 936.521 754.114 936.46 752.932H939.187C939.293 753.985 939.771 754.856 940.619 755.545C941.475 756.227 942.498 756.568 943.687 756.568C944.642 756.568 945.49 756.345 946.233 755.898C946.983 755.451 947.57 754.837 947.994 754.057C948.426 753.269 948.642 752.379 948.642 751.386C948.642 750.371 948.418 749.466 947.971 748.67C947.532 747.867 946.926 747.235 946.153 746.773C945.38 746.311 944.498 746.076 943.505 746.068C942.793 746.061 942.062 746.17 941.312 746.398C940.562 746.617 939.945 746.902 939.46 747.25L936.824 746.932L938.233 735.477H950.324V737.977H940.596L939.778 744.841H939.914C940.392 744.462 940.99 744.148 941.71 743.898C942.43 743.648 943.18 743.523 943.96 743.523C945.384 743.523 946.653 743.864 947.767 744.545C948.888 745.22 949.767 746.144 950.403 747.318C951.047 748.492 951.369 749.833 951.369 751.341C951.369 752.826 951.036 754.152 950.369 755.318C949.71 756.477 948.801 757.394 947.642 758.068C946.483 758.735 945.164 759.068 943.687 759.068ZM1003.98 758.75V756.705L1011.66 748.295C1012.56 747.311 1013.3 746.455 1013.89 745.727C1014.47 744.992 1014.9 744.303 1015.18 743.659C1015.47 743.008 1015.61 742.326 1015.61 741.614C1015.61 740.795 1015.42 740.087 1015.02 739.489C1014.64 738.89 1014.11 738.428 1013.43 738.102C1012.76 737.777 1012 737.614 1011.16 737.614C1010.26 737.614 1009.48 737.799 1008.82 738.17C1008.16 738.534 1007.65 739.045 1007.28 739.705C1006.93 740.364 1006.75 741.136 1006.75 742.023H1004.07C1004.07 740.659 1004.38 739.462 1005.01 738.432C1005.64 737.402 1006.5 736.598 1007.58 736.023C1008.67 735.447 1009.89 735.159 1011.25 735.159C1012.61 735.159 1013.82 735.447 1014.87 736.023C1015.93 736.598 1016.75 737.375 1017.35 738.352C1017.95 739.33 1018.25 740.417 1018.25 741.614C1018.25 742.47 1018.09 743.307 1017.78 744.125C1017.48 744.936 1016.95 745.841 1016.19 746.841C1015.44 747.833 1014.4 749.045 1013.07 750.477L1007.84 756.068V756.25H1018.66V758.75H1003.98ZM1030.62 759.068C1029.29 759.068 1028.09 758.803 1027.02 758.273C1025.95 757.742 1025.1 757.015 1024.45 756.091C1023.81 755.167 1023.46 754.114 1023.4 752.932H1026.12C1026.23 753.985 1026.71 754.856 1027.56 755.545C1028.41 756.227 1029.44 756.568 1030.62 756.568C1031.58 756.568 1032.43 756.345 1033.17 755.898C1033.92 755.451 1034.51 754.837 1034.93 754.057C1035.36 753.269 1035.58 752.379 1035.58 751.386C1035.58 750.371 1035.36 749.466 1034.91 748.67C1034.47 747.867 1033.86 747.235 1033.09 746.773C1032.32 746.311 1031.44 746.076 1030.44 746.068C1029.73 746.061 1029 746.17 1028.25 746.398C1027.5 746.617 1026.88 746.902 1026.4 747.25L1023.76 746.932L1025.17 735.477H1037.26V737.977H1027.53L1026.72 744.841H1026.85C1027.33 744.462 1027.93 744.148 1028.65 743.898C1029.37 743.648 1030.12 743.523 1030.9 743.523C1032.32 743.523 1033.59 743.864 1034.7 744.545C1035.83 745.22 1036.7 746.144 1037.34 747.318C1037.98 748.492 1038.31 749.833 1038.31 751.341C1038.31 752.826 1037.97 754.152 1037.31 755.318C1036.65 756.477 1035.74 757.394 1034.58 758.068C1033.42 758.735 1032.1 759.068 1030.62 759.068Z" fill="white"/>
<path d="M912.179 741.295L916.36 748.432L920.542 741.295H923.633L917.997 750.023L923.633 758.75H920.542L916.36 751.977L912.179 758.75H909.088L914.633 750.023L909.088 741.295H912.179ZM975.02 747.523V745.068H989.02V747.523H975.02ZM975.02 754.25V751.795H989.02V754.25H975.02Z" fill="#F2A71B"/>
<path d="M912.179 741.295L916.36 748.432L920.542 741.295H923.633L917.997 750.023L923.633 758.75H920.542L916.36 751.977L912.179 758.75H909.088L914.633 750.023L909.088 741.295H912.179ZM975.02 747.523V745.068H989.02V747.523H975.02ZM975.02 754.25V751.795H989.02V754.25H975.02Z" fill="black" fill-opacity="0.2"/>
<line y1="-1.5" x2="600" y2="-1.5" transform="matrix(1 0 0 -1 660 771.625)" stroke="#A5A692" stroke-width="3"/>
<line y1="-1.5" x2="600" y2="-1.5" transform="matrix(1 0 0 -1 660 771.625)" stroke="black" stroke-opacity="0.2" stroke-width="3"/>
<path d="M888.937 695.193C887.604 695.193 886.403 694.928 885.335 694.398C884.267 693.867 883.411 693.14 882.767 692.216C882.123 691.292 881.771 690.239 881.71 689.057H884.437C884.543 690.11 885.021 690.981 885.869 691.67C886.725 692.352 887.748 692.693 888.937 692.693C889.892 692.693 890.74 692.47 891.483 692.023C892.233 691.576 892.82 690.962 893.244 690.182C893.676 689.394 893.892 688.504 893.892 687.511C893.892 686.496 893.668 685.591 893.221 684.795C892.782 683.992 892.176 683.36 891.403 682.898C890.63 682.436 889.748 682.201 888.755 682.193C888.043 682.186 887.312 682.295 886.562 682.523C885.812 682.742 885.195 683.027 884.71 683.375L882.074 683.057L883.483 671.602H895.574V674.102H885.846L885.028 680.966H885.164C885.642 680.587 886.24 680.273 886.96 680.023C887.68 679.773 888.43 679.648 889.21 679.648C890.634 679.648 891.903 679.989 893.017 680.67C894.138 681.345 895.017 682.269 895.653 683.443C896.297 684.617 896.619 685.958 896.619 687.466C896.619 688.951 896.286 690.277 895.619 691.443C894.96 692.602 894.051 693.519 892.892 694.193C891.733 694.86 890.414 695.193 888.937 695.193ZM943.687 695.193C942.354 695.193 941.153 694.928 940.085 694.398C939.017 693.867 938.161 693.14 937.517 692.216C936.873 691.292 936.521 690.239 936.46 689.057H939.187C939.293 690.11 939.771 690.981 940.619 691.67C941.475 692.352 942.498 692.693 943.687 692.693C944.642 692.693 945.49 692.47 946.233 692.023C946.983 691.576 947.57 690.962 947.994 690.182C948.426 689.394 948.642 688.504 948.642 687.511C948.642 686.496 948.418 685.591 947.971 684.795C947.532 683.992 946.926 683.36 946.153 682.898C945.38 682.436 944.498 682.201 943.505 682.193C942.793 682.186 942.062 682.295 941.312 682.523C940.562 682.742 939.945 683.027 939.46 683.375L936.824 683.057L938.233 671.602H950.324V674.102H940.596L939.778 680.966H939.914C940.392 680.587 940.99 680.273 941.71 680.023C942.43 679.773 943.18 679.648 943.96 679.648C945.384 679.648 946.653 679.989 947.767 680.67C948.888 681.345 949.767 682.269 950.403 683.443C951.047 684.617 951.369 685.958 951.369 687.466C951.369 688.951 951.036 690.277 950.369 691.443C949.71 692.602 948.801 693.519 947.642 694.193C946.483 694.86 945.164 695.193 943.687 695.193ZM1003.98 694.875V692.83L1011.66 684.42C1012.56 683.436 1013.3 682.58 1013.89 681.852C1014.47 681.117 1014.9 680.428 1015.18 679.784C1015.47 679.133 1015.61 678.451 1015.61 677.739C1015.61 676.92 1015.42 676.212 1015.02 675.614C1014.64 675.015 1014.11 674.553 1013.43 674.227C1012.76 673.902 1012 673.739 1011.16 673.739C1010.26 673.739 1009.48 673.924 1008.82 674.295C1008.16 674.659 1007.65 675.17 1007.28 675.83C1006.93 676.489 1006.75 677.261 1006.75 678.148H1004.07C1004.07 676.784 1004.38 675.587 1005.01 674.557C1005.64 673.527 1006.5 672.723 1007.58 672.148C1008.67 671.572 1009.89 671.284 1011.25 671.284C1012.61 671.284 1013.82 671.572 1014.87 672.148C1015.93 672.723 1016.75 673.5 1017.35 674.477C1017.95 675.455 1018.25 676.542 1018.25 677.739C1018.25 678.595 1018.09 679.432 1017.78 680.25C1017.48 681.061 1016.95 681.966 1016.19 682.966C1015.44 683.958 1014.4 685.17 1013.07 686.602L1007.84 692.193V692.375H1018.66V694.875H1003.98ZM1030.62 695.193C1029.29 695.193 1028.09 694.928 1027.02 694.398C1025.95 693.867 1025.1 693.14 1024.45 692.216C1023.81 691.292 1023.46 690.239 1023.4 689.057H1026.12C1026.23 690.11 1026.71 690.981 1027.56 691.67C1028.41 692.352 1029.44 692.693 1030.62 692.693C1031.58 692.693 1032.43 692.47 1033.17 692.023C1033.92 691.576 1034.51 690.962 1034.93 690.182C1035.36 689.394 1035.58 688.504 1035.58 687.511C1035.58 686.496 1035.36 685.591 1034.91 684.795C1034.47 683.992 1033.86 683.36 1033.09 682.898C1032.32 682.436 1031.44 682.201 1030.44 682.193C1029.73 682.186 1029 682.295 1028.25 682.523C1027.5 682.742 1026.88 683.027 1026.4 683.375L1023.76 683.057L1025.17 671.602H1037.26V674.102H1027.53L1026.72 680.966H1026.85C1027.33 680.587 1027.93 680.273 1028.65 680.023C1029.37 679.773 1030.12 679.648 1030.9 679.648C1032.32 679.648 1033.59 679.989 1034.7 680.67C1035.83 681.345 1036.7 682.269 1037.34 683.443C1037.98 684.617 1038.31 685.958 1038.31 687.466C1038.31 688.951 1037.97 690.277 1037.31 691.443C1036.65 692.602 1035.74 693.519 1034.58 694.193C1033.42 694.86 1032.1 695.193 1030.62 695.193Z" fill="white"/>
<path d="M912.179 677.42L916.36 684.557L920.542 677.42H923.633L917.997 686.148L923.633 694.875H920.542L916.36 688.102L912.179 694.875H909.088L914.633 686.148L909.088 677.42H912.179ZM975.02 683.648V681.193H989.02V683.648H975.02ZM975.02 690.375V687.92H989.02V690.375H975.02Z" fill="#F2A71B"/>
<path d="M912.179 677.42L916.36 684.557L920.542 677.42H923.633L917.997 686.148L923.633 694.875H920.542L916.36 688.102L912.179 694.875H909.088L914.633 686.148L909.088 677.42H912.179ZM975.02 683.648V681.193H989.02V683.648H975.02ZM975.02 690.375V687.92H989.02V690.375H975.02Z" fill="black" fill-opacity="0.2"/>
<line y1="-1.5" x2="600" y2="-1.5" transform="matrix(1 0 0 -1 660 707.75)" stroke="#A5A692" stroke-width="3"/>
<line y1="-1.5" x2="600" y2="-1.5" transform="matrix(1 0 0 -1 660 707.75)" stroke="black" stroke-opacity="0.2" stroke-width="3"/>
<path d="M888.937 695.193C887.604 695.193 886.403 694.928 885.335 694.398C884.267 693.867 883.411 693.14 882.767 692.216C882.123 691.292 881.771 690.239 881.71 689.057H884.437C884.543 690.11 885.021 690.981 885.869 691.67C886.725 692.352 887.748 692.693 888.937 692.693C889.892 692.693 890.74 692.47 891.483 692.023C892.233 691.576 892.82 690.962 893.244 690.182C893.676 689.394 893.892 688.504 893.892 687.511C893.892 686.496 893.668 685.591 893.221 684.795C892.782 683.992 892.176 683.36 891.403 682.898C890.63 682.436 889.748 682.201 888.755 682.193C888.043 682.186 887.312 682.295 886.562 682.523C885.812 682.742 885.195 683.027 884.71 683.375L882.074 683.057L883.483 671.602H895.574V674.102H885.846L885.028 680.966H885.164C885.642 680.587 886.24 680.273 886.96 680.023C887.68 679.773 888.43 679.648 889.21 679.648C890.634 679.648 891.903 679.989 893.017 680.67C894.138 681.345 895.017 682.269 895.653 683.443C896.297 684.617 896.619 685.958 896.619 687.466C896.619 688.951 896.286 690.277 895.619 691.443C894.96 692.602 894.051 693.519 892.892 694.193C891.733 694.86 890.414 695.193 888.937 695.193ZM943.687 695.193C942.354 695.193 941.153 694.928 940.085 694.398C939.017 693.867 938.161 693.14 937.517 692.216C936.873 691.292 936.521 690.239 936.46 689.057H939.187C939.293 690.11 939.771 690.981 940.619 691.67C941.475 692.352 942.498 692.693 943.687 692.693C944.642 692.693 945.49 692.47 946.233 692.023C946.983 691.576 947.57 690.962 947.994 690.182C948.426 689.394 948.642 688.504 948.642 687.511C948.642 686.496 948.418 685.591 947.971 684.795C947.532 683.992 946.926 683.36 946.153 682.898C945.38 682.436 944.498 682.201 943.505 682.193C942.793 682.186 942.062 682.295 941.312 682.523C940.562 682.742 939.945 683.027 939.46 683.375L936.824 683.057L938.233 671.602H950.324V674.102H940.596L939.778 680.966H939.914C940.392 680.587 940.99 680.273 941.71 680.023C942.43 679.773 943.18 679.648 943.96 679.648C945.384 679.648 946.653 679.989 947.767 680.67C948.888 681.345 949.767 682.269 950.403 683.443C951.047 684.617 951.369 685.958 951.369 687.466C951.369 688.951 951.036 690.277 950.369 691.443C949.71 692.602 948.801 693.519 947.642 694.193C946.483 694.86 945.164 695.193 943.687 695.193ZM1003.98 694.875V692.83L1011.66 684.42C1012.56 683.436 1013.3 682.58 1013.89 681.852C1014.47 681.117 1014.9 680.428 1015.18 679.784C1015.47 679.133 1015.61 678.451 1015.61 677.739C1015.61 676.92 1015.42 676.212 1015.02 675.614C1014.64 675.015 1014.11 674.553 1013.43 674.227C1012.76 673.902 1012 673.739 1011.16 673.739C1010.26 673.739 1009.48 673.924 1008.82 674.295C1008.16 674.659 1007.65 675.17 1007.28 675.83C1006.93 676.489 1006.75 677.261 1006.75 678.148H1004.07C1004.07 676.784 1004.38 675.587 1005.01 674.557C1005.64 673.527 1006.5 672.723 1007.58 672.148C1008.67 671.572 1009.89 671.284 1011.25 671.284C1012.61 671.284 1013.82 671.572 1014.87 672.148C1015.93 672.723 1016.75 673.5 1017.35 674.477C1017.95 675.455 1018.25 676.542 1018.25 677.739C1018.25 678.595 1018.09 679.432 1017.78 680.25C1017.48 681.061 1016.95 681.966 1016.19 682.966C1015.44 683.958 1014.4 685.17 1013.07 686.602L1007.84 692.193V692.375H1018.66V694.875H1003.98ZM1030.62 695.193C1029.29 695.193 1028.09 694.928 1027.02 694.398C1025.95 693.867 1025.1 693.14 1024.45 692.216C1023.81 691.292 1023.46 690.239 1023.4 689.057H1026.12C1026.23 690.11 1026.71 690.981 1027.56 691.67C1028.41 692.352 1029.44 692.693 1030.62 692.693C1031.58 692.693 1032.43 692.47 1033.17 692.023C1033.92 691.576 1034.51 690.962 1034.93 690.182C1035.36 689.394 1035.58 688.504 1035.58 687.511C1035.58 686.496 1035.36 685.591 1034.91 684.795C1034.47 683.992 1033.86 683.36 1033.09 682.898C1032.32 682.436 1031.44 682.201 1030.44 682.193C1029.73 682.186 1029 682.295 1028.25 682.523C1027.5 682.742 1026.88 683.027 1026.4 683.375L1023.76 683.057L1025.17 671.602H1037.26V674.102H1027.53L1026.72 680.966H1026.85C1027.33 680.587 1027.93 680.273 1028.65 680.023C1029.37 679.773 1030.12 679.648 1030.9 679.648C1032.32 679.648 1033.59 679.989 1034.7 680.67C1035.83 681.345 1036.7 682.269 1037.34 683.443C1037.98 684.617 1038.31 685.958 1038.31 687.466C1038.31 688.951 1037.97 690.277 1037.31 691.443C1036.65 692.602 1035.74 693.519 1034.58 694.193C1033.42 694.86 1032.1 695.193 1030.62 695.193Z" fill="white"/>
<path d="M912.179 677.42L916.36 684.557L920.542 677.42H923.633L917.997 686.148L923.633 694.875H920.542L916.36 688.102L912.179 694.875H909.088L914.633 686.148L909.088 677.42H912.179ZM975.02 683.648V681.193H989.02V683.648H975.02ZM975.02 690.375V687.92H989.02V690.375H975.02Z" fill="#F2A71B"/>
<path d="M912.179 677.42L916.36 684.557L920.542 677.42H923.633L917.997 686.148L923.633 694.875H920.542L916.36 688.102L912.179 694.875H909.088L914.633 686.148L909.088 677.42H912.179ZM975.02 683.648V681.193H989.02V683.648H975.02ZM975.02 690.375V687.92H989.02V690.375H975.02Z" fill="black" fill-opacity="0.2"/>
<path d="M888.937 822.943C887.604 822.943 886.403 822.678 885.335 822.148C884.267 821.617 883.411 820.89 882.767 819.966C882.123 819.042 881.771 817.989 881.71 816.807H884.437C884.543 817.86 885.021 818.731 885.869 819.42C886.725 820.102 887.748 820.443 888.937 820.443C889.892 820.443 890.74 820.22 891.483 819.773C892.233 819.326 892.82 818.712 893.244 817.932C893.676 817.144 893.892 816.254 893.892 815.261C893.892 814.246 893.668 813.341 893.221 812.545C892.782 811.742 892.176 811.11 891.403 810.648C890.63 810.186 889.748 809.951 888.755 809.943C888.043 809.936 887.312 810.045 886.562 810.273C885.812 810.492 885.195 810.777 884.71 811.125L882.074 810.807L883.483 799.352H895.574V801.852H885.846L885.028 808.716H885.164C885.642 808.337 886.24 808.023 886.96 807.773C887.68 807.523 888.43 807.398 889.21 807.398C890.634 807.398 891.903 807.739 893.017 808.42C894.138 809.095 895.017 810.019 895.653 811.193C896.297 812.367 896.619 813.708 896.619 815.216C896.619 816.701 896.286 818.027 895.619 819.193C894.96 820.352 894.051 821.269 892.892 821.943C891.733 822.61 890.414 822.943 888.937 822.943ZM943.687 822.943C942.354 822.943 941.153 822.678 940.085 822.148C939.017 821.617 938.161 820.89 937.517 819.966C936.873 819.042 936.521 817.989 936.46 816.807H939.187C939.293 817.86 939.771 818.731 940.619 819.42C941.475 820.102 942.498 820.443 943.687 820.443C944.642 820.443 945.49 820.22 946.233 819.773C946.983 819.326 947.57 818.712 947.994 817.932C948.426 817.144 948.642 816.254 948.642 815.261C948.642 814.246 948.418 813.341 947.971 812.545C947.532 811.742 946.926 811.11 946.153 810.648C945.38 810.186 944.498 809.951 943.505 809.943C942.793 809.936 942.062 810.045 941.312 810.273C940.562 810.492 939.945 810.777 939.46 811.125L936.824 810.807L938.233 799.352H950.324V801.852H940.596L939.778 808.716H939.914C940.392 808.337 940.99 808.023 941.71 807.773C942.43 807.523 943.18 807.398 943.96 807.398C945.384 807.398 946.653 807.739 947.767 808.42C948.888 809.095 949.767 810.019 950.403 811.193C951.047 812.367 951.369 813.708 951.369 815.216C951.369 816.701 951.036 818.027 950.369 819.193C949.71 820.352 948.801 821.269 947.642 821.943C946.483 822.61 945.164 822.943 943.687 822.943ZM1003.98 822.625V820.58L1011.66 812.17C1012.56 811.186 1013.3 810.33 1013.89 809.602C1014.47 808.867 1014.9 808.178 1015.18 807.534C1015.47 806.883 1015.61 806.201 1015.61 805.489C1015.61 804.67 1015.42 803.962 1015.02 803.364C1014.64 802.765 1014.11 802.303 1013.43 801.977C1012.76 801.652 1012 801.489 1011.16 801.489C1010.26 801.489 1009.48 801.674 1008.82 802.045C1008.16 802.409 1007.65 802.92 1007.28 803.58C1006.93 804.239 1006.75 805.011 1006.75 805.898H1004.07C1004.07 804.534 1004.38 803.337 1005.01 802.307C1005.64 801.277 1006.5 800.473 1007.58 799.898C1008.67 799.322 1009.89 799.034 1011.25 799.034C1012.61 799.034 1013.82 799.322 1014.87 799.898C1015.93 800.473 1016.75 801.25 1017.35 802.227C1017.95 803.205 1018.25 804.292 1018.25 805.489C1018.25 806.345 1018.09 807.182 1017.78 808C1017.48 808.811 1016.95 809.716 1016.19 810.716C1015.44 811.708 1014.4 812.92 1013.07 814.352L1007.84 819.943V820.125H1018.66V822.625H1003.98ZM1030.62 822.943C1029.29 822.943 1028.09 822.678 1027.02 822.148C1025.95 821.617 1025.1 820.89 1024.45 819.966C1023.81 819.042 1023.46 817.989 1023.4 816.807H1026.12C1026.23 817.86 1026.71 818.731 1027.56 819.42C1028.41 820.102 1029.44 820.443 1030.62 820.443C1031.58 820.443 1032.43 820.22 1033.17 819.773C1033.92 819.326 1034.51 818.712 1034.93 817.932C1035.36 817.144 1035.58 816.254 1035.58 815.261C1035.58 814.246 1035.36 813.341 1034.91 812.545C1034.47 811.742 1033.86 811.11 1033.09 810.648C1032.32 810.186 1031.44 809.951 1030.44 809.943C1029.73 809.936 1029 810.045 1028.25 810.273C1027.5 810.492 1026.88 810.777 1026.4 811.125L1023.76 810.807L1025.17 799.352H1037.26V801.852H1027.53L1026.72 808.716H1026.85C1027.33 808.337 1027.93 808.023 1028.65 807.773C1029.37 807.523 1030.12 807.398 1030.9 807.398C1032.32 807.398 1033.59 807.739 1034.7 808.42C1035.83 809.095 1036.7 810.019 1037.34 811.193C1037.98 812.367 1038.31 813.708 1038.31 815.216C1038.31 816.701 1037.97 818.027 1037.31 819.193C1036.65 820.352 1035.74 821.269 1034.58 821.943C1033.42 822.61 1032.1 822.943 1030.62 822.943Z" fill="white"/>
<path d="M912.179 805.17L916.36 812.307L920.542 805.17H923.633L917.997 813.898L923.633 822.625H920.542L916.36 815.852L912.179 822.625H909.088L914.633 813.898L909.088 805.17H912.179ZM975.02 811.398V808.943H989.02V811.398H975.02ZM975.02 818.125V815.67H989.02V818.125H975.02Z" fill="#F2A71B"/>
<path d="M912.179 805.17L916.36 812.307L920.542 805.17H923.633L917.997 813.898L923.633 822.625H920.542L916.36 815.852L912.179 822.625H909.088L914.633 813.898L909.088 805.17H912.179ZM975.02 811.398V808.943H989.02V811.398H975.02ZM975.02 818.125V815.67H989.02V818.125H975.02Z" fill="black" fill-opacity="0.2"/>
<line y1="-1.5" x2="600" y2="-1.5" transform="matrix(1 0 0 -1 660 835.5)" stroke="#A5A692" stroke-width="3"/>
<line y1="-1.5" x2="600" y2="-1.5" transform="matrix(1 0 0 -1 660 835.5)" stroke="black" stroke-opacity="0.2" stroke-width="3"/>
<path d="M888.937 886.818C887.604 886.818 886.403 886.553 885.335 886.023C884.267 885.492 883.411 884.765 882.767 883.841C882.123 882.917 881.771 881.864 881.71 880.682H884.437C884.543 881.735 885.021 882.606 885.869 883.295C886.725 883.977 887.748 884.318 888.937 884.318C889.892 884.318 890.74 884.095 891.483 883.648C892.233 883.201 892.82 882.587 893.244 881.807C893.676 881.019 893.892 880.129 893.892 879.136C893.892 878.121 893.668 877.216 893.221 876.42C892.782 875.617 892.176 874.985 891.403 874.523C890.63 874.061 889.748 873.826 888.755 873.818C888.043 873.811 887.312 873.92 886.562 874.148C885.812 874.367 885.195 874.652 884.71 875L882.074 874.682L883.483 863.227H895.574V865.727H885.846L885.028 872.591H885.164C885.642 872.212 886.24 871.898 886.96 871.648C887.68 871.398 888.43 871.273 889.21 871.273C890.634 871.273 891.903 871.614 893.017 872.295C894.138 872.97 895.017 873.894 895.653 875.068C896.297 876.242 896.619 877.583 896.619 879.091C896.619 880.576 896.286 881.902 895.619 883.068C894.96 884.227 894.051 885.144 892.892 885.818C891.733 886.485 890.414 886.818 888.937 886.818ZM943.687 886.818C942.354 886.818 941.153 886.553 940.085 886.023C939.017 885.492 938.161 884.765 937.517 883.841C936.873 882.917 936.521 881.864 936.46 880.682H939.187C939.293 881.735 939.771 882.606 940.619 883.295C941.475 883.977 942.498 884.318 943.687 884.318C944.642 884.318 945.49 884.095 946.233 883.648C946.983 883.201 947.57 882.587 947.994 881.807C948.426 881.019 948.642 880.129 948.642 879.136C948.642 878.121 948.418 877.216 947.971 876.42C947.532 875.617 946.926 874.985 946.153 874.523C945.38 874.061 944.498 873.826 943.505 873.818C942.793 873.811 942.062 873.92 941.312 874.148C940.562 874.367 939.945 874.652 939.46 875L936.824 874.682L938.233 863.227H950.324V865.727H940.596L939.778 872.591H939.914C940.392 872.212 940.99 871.898 941.71 871.648C942.43 871.398 943.18 871.273 943.96 871.273C945.384 871.273 946.653 871.614 947.767 872.295C948.888 872.97 949.767 873.894 950.403 875.068C951.047 876.242 951.369 877.583 951.369 879.091C951.369 880.576 951.036 881.902 950.369 883.068C949.71 884.227 948.801 885.144 947.642 885.818C946.483 886.485 945.164 886.818 943.687 886.818ZM1003.98 886.5V884.455L1011.66 876.045C1012.56 875.061 1013.3 874.205 1013.89 873.477C1014.47 872.742 1014.9 872.053 1015.18 871.409C1015.47 870.758 1015.61 870.076 1015.61 869.364C1015.61 868.545 1015.42 867.837 1015.02 867.239C1014.64 866.64 1014.11 866.178 1013.43 865.852C1012.76 865.527 1012 865.364 1011.16 865.364C1010.26 865.364 1009.48 865.549 1008.82 865.92C1008.16 866.284 1007.65 866.795 1007.28 867.455C1006.93 868.114 1006.75 868.886 1006.75 869.773H1004.07C1004.07 868.409 1004.38 867.212 1005.01 866.182C1005.64 865.152 1006.5 864.348 1007.58 863.773C1008.67 863.197 1009.89 862.909 1011.25 862.909C1012.61 862.909 1013.82 863.197 1014.87 863.773C1015.93 864.348 1016.75 865.125 1017.35 866.102C1017.95 867.08 1018.25 868.167 1018.25 869.364C1018.25 870.22 1018.09 871.057 1017.78 871.875C1017.48 872.686 1016.95 873.591 1016.19 874.591C1015.44 875.583 1014.4 876.795 1013.07 878.227L1007.84 883.818V884H1018.66V886.5H1003.98ZM1030.62 886.818C1029.29 886.818 1028.09 886.553 1027.02 886.023C1025.95 885.492 1025.1 884.765 1024.45 883.841C1023.81 882.917 1023.46 881.864 1023.4 880.682H1026.12C1026.23 881.735 1026.71 882.606 1027.56 883.295C1028.41 883.977 1029.44 884.318 1030.62 884.318C1031.58 884.318 1032.43 884.095 1033.17 883.648C1033.92 883.201 1034.51 882.587 1034.93 881.807C1035.36 881.019 1035.58 880.129 1035.58 879.136C1035.58 878.121 1035.36 877.216 1034.91 876.42C1034.47 875.617 1033.86 874.985 1033.09 874.523C1032.32 874.061 1031.44 873.826 1030.44 873.818C1029.73 873.811 1029 873.92 1028.25 874.148C1027.5 874.367 1026.88 874.652 1026.4 875L1023.76 874.682L1025.17 863.227H1037.26V865.727H1027.53L1026.72 872.591H1026.85C1027.33 872.212 1027.93 871.898 1028.65 871.648C1029.37 871.398 1030.12 871.273 1030.9 871.273C1032.32 871.273 1033.59 871.614 1034.7 872.295C1035.83 872.97 1036.7 873.894 1037.34 875.068C1037.98 876.242 1038.31 877.583 1038.31 879.091C1038.31 880.576 1037.97 881.902 1037.31 883.068C1036.65 884.227 1035.74 885.144 1034.58 885.818C1033.42 886.485 1032.1 886.818 1030.62 886.818Z" fill="white"/>
<path d="M912.179 869.045L916.36 876.182L920.542 869.045H923.633L917.997 877.773L923.633 886.5H920.542L916.36 879.727L912.179 886.5H909.088L914.633 877.773L909.088 869.045H912.179ZM975.02 875.273V872.818H989.02V875.273H975.02ZM975.02 882V879.545H989.02V882H975.02Z" fill="#F2A71B"/>
<path d="M912.179 869.045L916.36 876.182L920.542 869.045H923.633L917.997 877.773L923.633 886.5H920.542L916.36 879.727L912.179 886.5H909.088L914.633 877.773L909.088 869.045H912.179ZM975.02 875.273V872.818H989.02V875.273H975.02ZM975.02 882V879.545H989.02V882H975.02Z" fill="black" fill-opacity="0.2"/>
<line y1="-1.5" x2="600" y2="-1.5" transform="matrix(1 0 0 -1 660 899.375)" stroke="#A5A692" stroke-width="3"/>
<line y1="-1.5" x2="600" y2="-1.5" transform="matrix(1 0 0 -1 660 899.375)" stroke="black" stroke-opacity="0.2" stroke-width="3"/>
<rect x="1344" y="282" width="22" height="648" rx="9" fill="#A5A692"/>
<rect x="1344" y="282" width="22" height="648" rx="9" fill="black" fill-opacity="0.2"/>
<rect x="1344" y="282" width="22" height="648" rx="9" stroke="#025E73" stroke-width="2"/>
<rect x="1344" y="282" width="22" height="648" rx="9" stroke="black" stroke-opacity="0.2" stroke-width="2"/>
<rect x="1346.5" y="303.5" width="17" height="39" rx="8.5" fill="#F2A71B"/>
<rect x="1346.5" y="303.5" width="17" height="39" rx="8.5" fill="black" fill-opacity="0.2"/>
<rect x="1346.5" y="303.5" width="17" height="39" rx="8.5" stroke="white"/>
<rect x="1346.5" y="303.5" width="17" height="39" rx="8.5" stroke="black" stroke-opacity="0.2"/>
<path d="M0 0H400V120C400 153.137 373.137 180 340 180H0V0Z" fill="#011F26"/>
<path d="M0 0H400V120C400 153.137 373.137 180 340 180H0V0Z" fill="black" fill-opacity="0.2"/>
<mask id="path-27-inside-1_10_111" fill="white">
<path d="M22 15H97V90H22V15Z"/>
</mask>
<path d="M22 15H97V90H22V15Z" fill="#BFB78F"/>
<path d="M22 15H97V90H22V15Z" fill="black" fill-opacity="0.2"/>
<path d="M55.3182 82.7273V37.7273H62.9545V82.7273H55.3182ZM36.6364 64.0455V56.4091H81.6364V64.0455H36.6364Z" fill="white"/>
<path d="M22 15V14H21V15H22ZM22 90H21V91H22V90ZM22 16H97V14H22V16ZM97 89H22V91H97V89ZM23 90V15H21V90H23Z" fill="#011F26" mask="url(#path-27-inside-1_10_111)"/>
<path d="M22 15V14H21V15H22ZM22 90H21V91H22V90ZM22 16H97V14H22V16ZM97 89H22V91H97V89ZM23 90V15H21V90H23Z" fill="black" fill-opacity="0.2" mask="url(#path-27-inside-1_10_111)"/>
<mask id="path-30-inside-2_10_111" fill="white">
<path d="M22 90H97V165H52C35.4315 165 22 151.569 22 135V90Z"/>
</mask>
<path d="M22 90H97V165H52C35.4315 165 22 151.569 22 135V90Z" fill="#BFB78F"/>
<path d="M22 90H97V165H52C35.4315 165 22 151.569 22 135V90Z" fill="black" fill-opacity="0.2"/>
<path d="M52.9545 116.091L59.3636 128.295L65.9318 116.091H75.8636L65.75 133.545L76.1364 151H66.25L59.3636 138.932L52.5909 151H42.5909L52.9545 133.545L42.9545 116.091H52.9545Z" fill="white"/>
<path d="M22 90H97H22ZM97 166H52C34.8792 166 21 152.121 21 135H23C23 151.016 35.9837 164 52 164H97V166ZM52 166C34.8792 166 21 152.121 21 135V90H23V135C23 151.016 35.9837 164 52 164V166ZM97 90V165V90Z" fill="#011F26" mask="url(#path-30-inside-2_10_111)"/>
<path d="M22 90H97H22ZM97 166H52C34.8792 166 21 152.121 21 135H23C23 151.016 35.9837 164 52 164H97V166ZM52 166C34.8792 166 21 152.121 21 135V90H23V135C23 151.016 35.9837 164 52 164V166ZM97 90V165V90Z" fill="black" fill-opacity="0.2" mask="url(#path-30-inside-2_10_111)"/>
<mask id="path-33-inside-3_10_111" fill="white">
<path d="M97 89.1667H172V134.167C172 150.735 158.569 164.167 142 164.167H97V89.1667Z"/>
</mask>
<path d="M97 89.1667H172V134.167C172 150.735 158.569 164.167 142 164.167H97V89.1667Z" fill="#F2A71B"/>
<path d="M97 89.1667H172V134.167C172 150.735 158.569 164.167 142 164.167H97V89.1667Z" fill="black" fill-opacity="0.2"/>
<path d="M113.136 127.985V120.621H155.136V127.985H113.136ZM113.136 148.167V140.803H155.136V148.167H113.136Z" fill="white"/>
<path d="M97 89.1667H172H97ZM173 134.167C173 151.287 159.121 165.167 142 165.167H96L98 163.167H142C158.016 163.167 171 150.183 171 134.167H173ZM96 165.167V89.1667H98V163.167L96 165.167ZM173 89.1667V134.167C173 151.287 159.121 165.167 142 165.167V163.167C158.016 163.167 171 150.183 171 134.167V89.1667H173Z" fill="#011F26" mask="url(#path-33-inside-3_10_111)"/>
<path d="M97 89.1667H172H97ZM173 134.167C173 151.287 159.121 165.167 142 165.167H96L98 163.167H142C158.016 163.167 171 150.183 171 134.167H173ZM96 165.167V89.1667H98V163.167L96 165.167ZM173 89.1667V134.167C173 151.287 159.121 165.167 142 165.167V163.167C158.016 163.167 171 150.183 171 134.167V89.1667H173Z" fill="black" fill-opacity="0.2" mask="url(#path-33-inside-3_10_111)"/>
<path d="M97.5 15.5H142C158.292 15.5 171.5 28.7076 171.5 45V89.5H97.5V15.5Z" fill="#BFB78F"/>
<path d="M97.5 15.5H142C158.292 15.5 171.5 28.7076 171.5 45V89.5H97.5V15.5Z" fill="black" fill-opacity="0.2"/>
<path d="M149.364 53.8182V61.3182H118.818V53.8182H149.364Z" fill="white"/>
<path d="M97.5 15.5H142C158.292 15.5 171.5 28.7076 171.5 45V89.5H97.5V15.5Z" stroke="#011F26"/>
<path d="M97.5 15.5H142C158.292 15.5 171.5 28.7076 171.5 45V89.5H97.5V15.5Z" stroke="black" stroke-opacity="0.2"/>
<rect x="226.5" y="52.5" width="99" height="14" fill="#D9D9D9"/>
<rect x="226.5" y="52.5" width="99" height="14" stroke="#F2A71B"/>
<rect x="226.5" y="52.5" width="99" height="14" stroke="black" stroke-opacity="0.2"/>
<rect x="226.5" y="82.5" width="99" height="14" fill="#D9D9D9"/>
<rect x="226.5" y="82.5" width="99" height="14" stroke="#F2A71B"/>
<rect x="226.5" y="82.5" width="99" height="14" stroke="black" stroke-opacity="0.2"/>
<rect x="226.5" y="112.5" width="99" height="14" fill="#D9D9D9"/>
<rect x="226.5" y="112.5" width="99" height="14" stroke="#F2A71B"/>
<rect x="226.5" y="112.5" width="99" height="14" stroke="black" stroke-opacity="0.2"/>
<rect x="792" y="117" width="335" height="59" rx="25" fill="#F2A71B"/>
<rect x="792" y="117" width="335" height="59" rx="25" fill="black" fill-opacity="0.2"/>
<path d="M804.818 158V134.727H807.636V145.091H820.045V134.727H822.864V158H820.045V147.591H807.636V158H804.818ZM828.142 158V140.545H830.824V158H828.142ZM829.506 137.636C828.983 137.636 828.532 137.458 828.153 137.102C827.782 136.746 827.597 136.318 827.597 135.818C827.597 135.318 827.782 134.89 828.153 134.534C828.532 134.178 828.983 134 829.506 134C830.028 134 830.475 134.178 830.847 134.534C831.225 134.89 831.415 135.318 831.415 135.818C831.415 136.318 831.225 136.746 830.847 137.102C830.475 137.458 830.028 137.636 829.506 137.636ZM848.099 144.455L845.69 145.136C845.539 144.735 845.315 144.345 845.02 143.966C844.732 143.58 844.338 143.261 843.838 143.011C843.338 142.761 842.698 142.636 841.918 142.636C840.849 142.636 839.959 142.883 839.247 143.375C838.543 143.86 838.19 144.477 838.19 145.227C838.19 145.894 838.433 146.42 838.918 146.807C839.402 147.193 840.16 147.515 841.19 147.773L843.781 148.409C845.342 148.788 846.505 149.367 847.27 150.148C848.035 150.92 848.418 151.917 848.418 153.136C848.418 154.136 848.13 155.03 847.554 155.818C846.986 156.606 846.19 157.227 845.168 157.682C844.145 158.136 842.955 158.364 841.599 158.364C839.819 158.364 838.346 157.977 837.179 157.205C836.012 156.432 835.274 155.303 834.963 153.818L837.509 153.182C837.751 154.121 838.209 154.826 838.884 155.295C839.565 155.765 840.455 156 841.554 156C842.804 156 843.796 155.735 844.531 155.205C845.274 154.667 845.645 154.023 845.645 153.273C845.645 152.667 845.433 152.159 845.009 151.75C844.584 151.333 843.933 151.023 843.054 150.818L840.145 150.136C838.546 149.758 837.372 149.17 836.622 148.375C835.88 147.572 835.509 146.568 835.509 145.364C835.509 144.379 835.785 143.508 836.338 142.75C836.899 141.992 837.66 141.398 838.622 140.966C839.592 140.534 840.69 140.318 841.918 140.318C843.645 140.318 845.001 140.697 845.986 141.455C846.978 142.212 847.683 143.212 848.099 144.455ZM860.045 140.545V142.818H851V140.545H860.045ZM853.636 136.364H856.318V153C856.318 153.758 856.428 154.326 856.648 154.705C856.875 155.076 857.163 155.326 857.511 155.455C857.867 155.576 858.242 155.636 858.636 155.636C858.932 155.636 859.174 155.621 859.364 155.591C859.553 155.553 859.705 155.523 859.818 155.5L860.364 157.909C860.182 157.977 859.928 158.045 859.602 158.114C859.277 158.189 858.864 158.227 858.364 158.227C857.606 158.227 856.864 158.064 856.136 157.739C855.417 157.413 854.818 156.917 854.341 156.25C853.871 155.583 853.636 154.742 853.636 153.727V136.364ZM870.983 158.364C869.407 158.364 868.025 157.989 866.835 157.239C865.653 156.489 864.729 155.439 864.062 154.091C863.403 152.742 863.074 151.167 863.074 149.364C863.074 147.545 863.403 145.958 864.062 144.602C864.729 143.246 865.653 142.193 866.835 141.443C868.025 140.693 869.407 140.318 870.983 140.318C872.559 140.318 873.938 140.693 875.119 141.443C876.309 142.193 877.233 143.246 877.892 144.602C878.559 145.958 878.892 147.545 878.892 149.364C878.892 151.167 878.559 152.742 877.892 154.091C877.233 155.439 876.309 156.489 875.119 157.239C873.938 157.989 872.559 158.364 870.983 158.364ZM870.983 155.955C872.18 155.955 873.165 155.648 873.938 155.034C874.71 154.42 875.282 153.614 875.653 152.614C876.025 151.614 876.21 150.53 876.21 149.364C876.21 148.197 876.025 147.11 875.653 146.102C875.282 145.095 874.71 144.28 873.938 143.659C873.165 143.038 872.18 142.727 870.983 142.727C869.786 142.727 868.801 143.038 868.028 143.659C867.256 144.28 866.684 145.095 866.312 146.102C865.941 147.11 865.756 148.197 865.756 149.364C865.756 150.53 865.941 151.614 866.312 152.614C866.684 153.614 867.256 154.42 868.028 155.034C868.801 155.648 869.786 155.955 870.983 155.955ZM882.986 158V140.545H885.577V143.182H885.759C886.077 142.318 886.652 141.617 887.486 141.08C888.319 140.542 889.259 140.273 890.304 140.273C890.501 140.273 890.747 140.277 891.043 140.284C891.338 140.292 891.562 140.303 891.713 140.318V143.045C891.622 143.023 891.414 142.989 891.088 142.943C890.77 142.89 890.433 142.864 890.077 142.864C889.228 142.864 888.471 143.042 887.804 143.398C887.145 143.746 886.622 144.231 886.236 144.852C885.857 145.466 885.668 146.167 885.668 146.955V158H882.986ZM894.892 158V140.545H897.574V158H894.892ZM896.256 137.636C895.733 137.636 895.282 137.458 894.903 137.102C894.532 136.746 894.347 136.318 894.347 135.818C894.347 135.318 894.532 134.89 894.903 134.534C895.282 134.178 895.733 134 896.256 134C896.778 134 897.225 134.178 897.597 134.534C897.975 134.89 898.165 135.318 898.165 135.818C898.165 136.318 897.975 136.746 897.597 137.102C897.225 137.458 896.778 137.636 896.256 137.636ZM909.577 158.364C907.94 158.364 906.531 157.977 905.349 157.205C904.168 156.432 903.259 155.367 902.622 154.011C901.986 152.655 901.668 151.106 901.668 149.364C901.668 147.591 901.993 146.027 902.645 144.67C903.304 143.307 904.221 142.242 905.395 141.477C906.577 140.705 907.955 140.318 909.531 140.318C910.759 140.318 911.865 140.545 912.849 141C913.834 141.455 914.641 142.091 915.27 142.909C915.899 143.727 916.289 144.682 916.44 145.773H913.759C913.554 144.977 913.099 144.273 912.395 143.659C911.698 143.038 910.759 142.727 909.577 142.727C908.531 142.727 907.615 143 906.827 143.545C906.046 144.083 905.437 144.845 904.997 145.83C904.565 146.807 904.349 147.955 904.349 149.273C904.349 150.621 904.562 151.795 904.986 152.795C905.418 153.795 906.024 154.572 906.804 155.125C907.592 155.678 908.516 155.955 909.577 155.955C910.274 155.955 910.906 155.833 911.474 155.591C912.043 155.348 912.524 155 912.918 154.545C913.312 154.091 913.592 153.545 913.759 152.909H916.44C916.289 153.939 915.914 154.867 915.315 155.693C914.724 156.511 913.94 157.163 912.963 157.648C911.993 158.125 910.865 158.364 909.577 158.364ZM927.452 158.364C925.876 158.364 924.493 157.989 923.304 157.239C922.122 156.489 921.198 155.439 920.531 154.091C919.872 152.742 919.543 151.167 919.543 149.364C919.543 147.545 919.872 145.958 920.531 144.602C921.198 143.246 922.122 142.193 923.304 141.443C924.493 140.693 925.876 140.318 927.452 140.318C929.027 140.318 930.406 140.693 931.588 141.443C932.777 142.193 933.702 143.246 934.361 144.602C935.027 145.958 935.361 147.545 935.361 149.364C935.361 151.167 935.027 152.742 934.361 154.091C933.702 155.439 932.777 156.489 931.588 157.239C930.406 157.989 929.027 158.364 927.452 158.364ZM927.452 155.955C928.649 155.955 929.634 155.648 930.406 155.034C931.179 154.42 931.751 153.614 932.122 152.614C932.493 151.614 932.679 150.53 932.679 149.364C932.679 148.197 932.493 147.11 932.122 146.102C931.751 145.095 931.179 144.28 930.406 143.659C929.634 143.038 928.649 142.727 927.452 142.727C926.255 142.727 925.27 143.038 924.497 143.659C923.724 144.28 923.152 145.095 922.781 146.102C922.41 147.11 922.224 148.197 922.224 149.364C922.224 150.53 922.41 151.614 922.781 152.614C923.152 153.614 923.724 154.42 924.497 155.034C925.27 155.648 926.255 155.955 927.452 155.955ZM955.045 158.364C953.591 158.364 952.307 157.996 951.193 157.261C950.08 156.519 949.208 155.473 948.58 154.125C947.951 152.769 947.636 151.167 947.636 149.318C947.636 147.485 947.951 145.894 948.58 144.545C949.208 143.197 950.083 142.155 951.205 141.42C952.326 140.686 953.621 140.318 955.091 140.318C956.227 140.318 957.125 140.508 957.784 140.886C958.451 141.258 958.958 141.682 959.307 142.159C959.663 142.629 959.939 143.015 960.136 143.318H960.364V134.727H963.045V158H960.455V155.318H960.136C959.939 155.636 959.659 156.038 959.295 156.523C958.932 157 958.413 157.428 957.739 157.807C957.064 158.178 956.167 158.364 955.045 158.364ZM955.409 155.955C956.485 155.955 957.394 155.674 958.136 155.114C958.879 154.545 959.443 153.761 959.83 152.761C960.216 151.754 960.409 150.591 960.409 149.273C960.409 147.97 960.22 146.83 959.841 145.852C959.462 144.867 958.902 144.102 958.159 143.557C957.417 143.004 956.5 142.727 955.409 142.727C954.273 142.727 953.326 143.019 952.568 143.602C951.818 144.178 951.254 144.962 950.875 145.955C950.504 146.939 950.318 148.045 950.318 149.273C950.318 150.515 950.508 151.644 950.886 152.659C951.273 153.667 951.841 154.47 952.591 155.068C953.348 155.659 954.288 155.955 955.409 155.955ZM975.648 158.364C973.966 158.364 972.515 157.992 971.295 157.25C970.083 156.5 969.148 155.455 968.489 154.114C967.837 152.765 967.511 151.197 967.511 149.409C967.511 147.621 967.837 146.045 968.489 144.682C969.148 143.311 970.064 142.242 971.239 141.477C972.42 140.705 973.799 140.318 975.375 140.318C976.284 140.318 977.182 140.47 978.068 140.773C978.955 141.076 979.761 141.568 980.489 142.25C981.216 142.924 981.795 143.818 982.227 144.932C982.659 146.045 982.875 147.417 982.875 149.045V150.182H969.42V147.864H980.148C980.148 146.879 979.951 146 979.557 145.227C979.17 144.455 978.617 143.845 977.898 143.398C977.186 142.951 976.345 142.727 975.375 142.727C974.307 142.727 973.383 142.992 972.602 143.523C971.83 144.045 971.235 144.727 970.818 145.568C970.402 146.409 970.193 147.311 970.193 148.273V149.818C970.193 151.136 970.42 152.254 970.875 153.17C971.337 154.08 971.977 154.773 972.795 155.25C973.614 155.72 974.564 155.955 975.648 155.955C976.352 155.955 976.989 155.856 977.557 155.659C978.133 155.455 978.629 155.152 979.045 154.75C979.462 154.341 979.784 153.833 980.011 153.227L982.602 153.955C982.33 154.833 981.871 155.606 981.227 156.273C980.583 156.932 979.788 157.447 978.841 157.818C977.894 158.182 976.83 158.364 975.648 158.364ZM1003.05 158.364C1001.41 158.364 1000 157.977 998.818 157.205C997.636 156.432 996.727 155.367 996.091 154.011C995.455 152.655 995.136 151.106 995.136 149.364C995.136 147.591 995.462 146.027 996.114 144.67C996.773 143.307 997.689 142.242 998.864 141.477C1000.05 140.705 1001.42 140.318 1003 140.318C1004.23 140.318 1005.33 140.545 1006.32 141C1007.3 141.455 1008.11 142.091 1008.74 142.909C1009.37 143.727 1009.76 144.682 1009.91 145.773H1007.23C1007.02 144.977 1006.57 144.273 1005.86 143.659C1005.17 143.038 1004.23 142.727 1003.05 142.727C1002 142.727 1001.08 143 1000.3 143.545C999.515 144.083 998.905 144.845 998.466 145.83C998.034 146.807 997.818 147.955 997.818 149.273C997.818 150.621 998.03 151.795 998.455 152.795C998.886 153.795 999.492 154.572 1000.27 155.125C1001.06 155.678 1001.98 155.955 1003.05 155.955C1003.74 155.955 1004.38 155.833 1004.94 155.591C1005.51 155.348 1005.99 155 1006.39 154.545C1006.78 154.091 1007.06 153.545 1007.23 152.909H1009.91C1009.76 153.939 1009.38 154.867 1008.78 155.693C1008.19 156.511 1007.41 157.163 1006.43 157.648C1005.46 158.125 1004.33 158.364 1003.05 158.364ZM1018.97 158.409C1017.86 158.409 1016.86 158.201 1015.95 157.784C1015.05 157.36 1014.34 156.75 1013.81 155.955C1013.28 155.152 1013.01 154.182 1013.01 153.045C1013.01 152.045 1013.21 151.235 1013.6 150.614C1014 149.985 1014.52 149.492 1015.18 149.136C1015.84 148.78 1016.57 148.515 1017.36 148.341C1018.17 148.159 1018.97 148.015 1019.78 147.909C1020.84 147.773 1021.7 147.67 1022.36 147.602C1023.03 147.527 1023.52 147.402 1023.82 147.227C1024.13 147.053 1024.28 146.75 1024.28 146.318V146.227C1024.28 145.106 1023.98 144.235 1023.36 143.614C1022.76 142.992 1021.84 142.682 1020.6 142.682C1019.32 142.682 1018.32 142.962 1017.59 143.523C1016.86 144.083 1016.35 144.682 1016.06 145.318L1013.51 144.409C1013.97 143.348 1014.57 142.523 1015.33 141.932C1016.09 141.333 1016.93 140.917 1017.83 140.682C1018.74 140.439 1019.63 140.318 1020.51 140.318C1021.07 140.318 1021.72 140.386 1022.44 140.523C1023.18 140.652 1023.89 140.92 1024.57 141.33C1025.26 141.739 1025.83 142.356 1026.28 143.182C1026.74 144.008 1026.97 145.114 1026.97 146.5V158H1024.28V155.636H1024.15C1023.97 156.015 1023.66 156.42 1023.24 156.852C1022.81 157.284 1022.25 157.652 1021.55 157.955C1020.84 158.258 1019.98 158.409 1018.97 158.409ZM1019.38 156C1020.44 156 1021.33 155.792 1022.06 155.375C1022.79 154.958 1023.34 154.42 1023.72 153.761C1024.09 153.102 1024.28 152.409 1024.28 151.682V149.227C1024.17 149.364 1023.92 149.489 1023.53 149.602C1023.16 149.708 1022.72 149.803 1022.22 149.886C1021.72 149.962 1021.24 150.03 1020.77 150.091C1020.31 150.144 1019.94 150.189 1019.65 150.227C1018.95 150.318 1018.3 150.466 1017.69 150.67C1017.09 150.867 1016.61 151.167 1016.24 151.568C1015.88 151.962 1015.69 152.5 1015.69 153.182C1015.69 154.114 1016.04 154.818 1016.73 155.295C1017.42 155.765 1018.31 156 1019.38 156ZM1034.54 134.727V158H1031.86V134.727H1034.54ZM1046.55 158.364C1044.91 158.364 1043.5 157.977 1042.32 157.205C1041.14 156.432 1040.23 155.367 1039.59 154.011C1038.95 152.655 1038.64 151.106 1038.64 149.364C1038.64 147.591 1038.96 146.027 1039.61 144.67C1040.27 143.307 1041.19 142.242 1042.36 141.477C1043.55 140.705 1044.92 140.318 1046.5 140.318C1047.73 140.318 1048.83 140.545 1049.82 141C1050.8 141.455 1051.61 142.091 1052.24 142.909C1052.87 143.727 1053.26 144.682 1053.41 145.773H1050.73C1050.52 144.977 1050.07 144.273 1049.36 143.659C1048.67 143.038 1047.73 142.727 1046.55 142.727C1045.5 142.727 1044.58 143 1043.8 143.545C1043.02 144.083 1042.41 144.845 1041.97 145.83C1041.53 146.807 1041.32 147.955 1041.32 149.273C1041.32 150.621 1041.53 151.795 1041.95 152.795C1042.39 153.795 1042.99 154.572 1043.77 155.125C1044.56 155.678 1045.48 155.955 1046.55 155.955C1047.24 155.955 1047.88 155.833 1048.44 155.591C1049.01 155.348 1049.49 155 1049.89 154.545C1050.28 154.091 1050.56 153.545 1050.73 152.909H1053.41C1053.26 153.939 1052.88 154.867 1052.28 155.693C1051.69 156.511 1050.91 157.163 1049.93 157.648C1048.96 158.125 1047.83 158.364 1046.55 158.364ZM1068.33 150.864V140.545H1071.01V158H1068.33V155.045H1068.15C1067.74 155.932 1067.1 156.686 1066.24 157.307C1065.38 157.92 1064.28 158.227 1062.97 158.227C1061.88 158.227 1060.91 157.989 1060.06 157.511C1059.21 157.027 1058.54 156.299 1058.06 155.33C1057.57 154.352 1057.33 153.121 1057.33 151.636V140.545H1060.01V151.455C1060.01 152.727 1060.37 153.742 1061.08 154.5C1061.8 155.258 1062.72 155.636 1063.83 155.636C1064.5 155.636 1065.17 155.466 1065.86 155.125C1066.56 154.784 1067.14 154.261 1067.61 153.557C1068.09 152.852 1068.33 151.955 1068.33 150.864ZM1078.61 134.727V158H1075.92V134.727H1078.61ZM1090.61 158.364C1089.03 158.364 1087.65 157.989 1086.46 157.239C1085.28 156.489 1084.35 155.439 1083.69 154.091C1083.03 152.742 1082.7 151.167 1082.7 149.364C1082.7 147.545 1083.03 145.958 1083.69 144.602C1084.35 143.246 1085.28 142.193 1086.46 141.443C1087.65 140.693 1089.03 140.318 1090.61 140.318C1092.18 140.318 1093.56 140.693 1094.74 141.443C1095.93 142.193 1096.86 143.246 1097.52 144.602C1098.18 145.958 1098.52 147.545 1098.52 149.364C1098.52 151.167 1098.18 152.742 1097.52 154.091C1096.86 155.439 1095.93 156.489 1094.74 157.239C1093.56 157.989 1092.18 158.364 1090.61 158.364ZM1090.61 155.955C1091.8 155.955 1092.79 155.648 1093.56 155.034C1094.34 154.42 1094.91 153.614 1095.28 152.614C1095.65 151.614 1095.84 150.53 1095.84 149.364C1095.84 148.197 1095.65 147.11 1095.28 146.102C1094.91 145.095 1094.34 144.28 1093.56 143.659C1092.79 143.038 1091.8 142.727 1090.61 142.727C1089.41 142.727 1088.43 143.038 1087.65 143.659C1086.88 144.28 1086.31 145.095 1085.94 146.102C1085.57 147.11 1085.38 148.197 1085.38 149.364C1085.38 150.53 1085.57 151.614 1085.94 152.614C1086.31 153.614 1086.88 154.42 1087.65 155.034C1088.43 155.648 1089.41 155.955 1090.61 155.955ZM1114.97 144.455L1112.57 145.136C1112.41 144.735 1112.19 144.345 1111.89 143.966C1111.61 143.58 1111.21 143.261 1110.71 143.011C1110.21 142.761 1109.57 142.636 1108.79 142.636C1107.72 142.636 1106.83 142.883 1106.12 143.375C1105.42 143.86 1105.07 144.477 1105.07 145.227C1105.07 145.894 1105.31 146.42 1105.79 146.807C1106.28 147.193 1107.04 147.515 1108.07 147.773L1110.66 148.409C1112.22 148.788 1113.38 149.367 1114.14 150.148C1114.91 150.92 1115.29 151.917 1115.29 153.136C1115.29 154.136 1115 155.03 1114.43 155.818C1113.86 156.606 1113.07 157.227 1112.04 157.682C1111.02 158.136 1109.83 158.364 1108.47 158.364C1106.69 158.364 1105.22 157.977 1104.05 157.205C1102.89 156.432 1102.15 155.303 1101.84 153.818L1104.38 153.182C1104.63 154.121 1105.08 154.826 1105.76 155.295C1106.44 155.765 1107.33 156 1108.43 156C1109.68 156 1110.67 155.735 1111.41 155.205C1112.15 154.667 1112.52 154.023 1112.52 153.273C1112.52 152.667 1112.31 152.159 1111.88 151.75C1111.46 151.333 1110.81 151.023 1109.93 150.818L1107.02 150.136C1105.42 149.758 1104.25 149.17 1103.5 148.375C1102.75 147.572 1102.38 146.568 1102.38 145.364C1102.38 144.379 1102.66 143.508 1103.21 142.75C1103.77 141.992 1104.54 141.398 1105.5 140.966C1106.47 140.534 1107.57 140.318 1108.79 140.318C1110.52 140.318 1111.88 140.697 1112.86 141.455C1113.85 142.212 1114.56 143.212 1114.97 144.455Z" fill="white"/>
<path d="M804.818 158V134.727H807.636V145.091H820.045V134.727H822.864V158H820.045V147.591H807.636V158H804.818ZM828.142 158V140.545H830.824V158H828.142ZM829.506 137.636C828.983 137.636 828.532 137.458 828.153 137.102C827.782 136.746 827.597 136.318 827.597 135.818C827.597 135.318 827.782 134.89 828.153 134.534C828.532 134.178 828.983 134 829.506 134C830.028 134 830.475 134.178 830.847 134.534C831.225 134.89 831.415 135.318 831.415 135.818C831.415 136.318 831.225 136.746 830.847 137.102C830.475 137.458 830.028 137.636 829.506 137.636ZM848.099 144.455L845.69 145.136C845.539 144.735 845.315 144.345 845.02 143.966C844.732 143.58 844.338 143.261 843.838 143.011C843.338 142.761 842.698 142.636 841.918 142.636C840.849 142.636 839.959 142.883 839.247 143.375C838.543 143.86 838.19 144.477 838.19 145.227C838.19 145.894 838.433 146.42 838.918 146.807C839.402 147.193 840.16 147.515 841.19 147.773L843.781 148.409C845.342 148.788 846.505 149.367 847.27 150.148C848.035 150.92 848.418 151.917 848.418 153.136C848.418 154.136 848.13 155.03 847.554 155.818C846.986 156.606 846.19 157.227 845.168 157.682C844.145 158.136 842.955 158.364 841.599 158.364C839.819 158.364 838.346 157.977 837.179 157.205C836.012 156.432 835.274 155.303 834.963 153.818L837.509 153.182C837.751 154.121 838.209 154.826 838.884 155.295C839.565 155.765 840.455 156 841.554 156C842.804 156 843.796 155.735 844.531 155.205C845.274 154.667 845.645 154.023 845.645 153.273C845.645 152.667 845.433 152.159 845.009 151.75C844.584 151.333 843.933 151.023 843.054 150.818L840.145 150.136C838.546 149.758 837.372 149.17 836.622 148.375C835.88 147.572 835.509 146.568 835.509 145.364C835.509 144.379 835.785 143.508 836.338 142.75C836.899 141.992 837.66 141.398 838.622 140.966C839.592 140.534 840.69 140.318 841.918 140.318C843.645 140.318 845.001 140.697 845.986 141.455C846.978 142.212 847.683 143.212 848.099 144.455ZM860.045 140.545V142.818H851V140.545H860.045ZM853.636 136.364H856.318V153C856.318 153.758 856.428 154.326 856.648 154.705C856.875 155.076 857.163 155.326 857.511 155.455C857.867 155.576 858.242 155.636 858.636 155.636C858.932 155.636 859.174 155.621 859.364 155.591C859.553 155.553 859.705 155.523 859.818 155.5L860.364 157.909C860.182 157.977 859.928 158.045 859.602 158.114C859.277 158.189 858.864 158.227 858.364 158.227C857.606 158.227 856.864 158.064 856.136 157.739C855.417 157.413 854.818 156.917 854.341 156.25C853.871 155.583 853.636 154.742 853.636 153.727V136.364ZM870.983 158.364C869.407 158.364 868.025 157.989 866.835 157.239C865.653 156.489 864.729 155.439 864.062 154.091C863.403 152.742 863.074 151.167 863.074 149.364C863.074 147.545 863.403 145.958 864.062 144.602C864.729 143.246 865.653 142.193 866.835 141.443C868.025 140.693 869.407 140.318 870.983 140.318C872.559 140.318 873.938 140.693 875.119 141.443C876.309 142.193 877.233 143.246 877.892 144.602C878.559 145.958 878.892 147.545 878.892 149.364C878.892 151.167 878.559 152.742 877.892 154.091C877.233 155.439 876.309 156.489 875.119 157.239C873.938 157.989 872.559 158.364 870.983 158.364ZM870.983 155.955C872.18 155.955 873.165 155.648 873.938 155.034C874.71 154.42 875.282 153.614 875.653 152.614C876.025 151.614 876.21 150.53 876.21 149.364C876.21 148.197 876.025 147.11 875.653 146.102C875.282 145.095 874.71 144.28 873.938 143.659C873.165 143.038 872.18 142.727 870.983 142.727C869.786 142.727 868.801 143.038 868.028 143.659C867.256 144.28 866.684 145.095 866.312 146.102C865.941 147.11 865.756 148.197 865.756 149.364C865.756 150.53 865.941 151.614 866.312 152.614C866.684 153.614 867.256 154.42 868.028 155.034C868.801 155.648 869.786 155.955 870.983 155.955ZM882.986 158V140.545H885.577V143.182H885.759C886.077 142.318 886.652 141.617 887.486 141.08C888.319 140.542 889.259 140.273 890.304 140.273C890.501 140.273 890.747 140.277 891.043 140.284C891.338 140.292 891.562 140.303 891.713 140.318V143.045C891.622 143.023 891.414 142.989 891.088 142.943C890.77 142.89 890.433 142.864 890.077 142.864C889.228 142.864 888.471 143.042 887.804 143.398C887.145 143.746 886.622 144.231 886.236 144.852C885.857 145.466 885.668 146.167 885.668 146.955V158H882.986ZM894.892 158V140.545H897.574V158H894.892ZM896.256 137.636C895.733 137.636 895.282 137.458 894.903 137.102C894.532 136.746 894.347 136.318 894.347 135.818C894.347 135.318 894.532 134.89 894.903 134.534C895.282 134.178 895.733 134 896.256 134C896.778 134 897.225 134.178 897.597 134.534C897.975 134.89 898.165 135.318 898.165 135.818C898.165 136.318 897.975 136.746 897.597 137.102C897.225 137.458 896.778 137.636 896.256 137.636ZM909.577 158.364C907.94 158.364 906.531 157.977 905.349 157.205C904.168 156.432 903.259 155.367 902.622 154.011C901.986 152.655 901.668 151.106 901.668 149.364C901.668 147.591 901.993 146.027 902.645 144.67C903.304 143.307 904.221 142.242 905.395 141.477C906.577 140.705 907.955 140.318 909.531 140.318C910.759 140.318 911.865 140.545 912.849 141C913.834 141.455 914.641 142.091 915.27 142.909C915.899 143.727 916.289 144.682 916.44 145.773H913.759C913.554 144.977 913.099 144.273 912.395 143.659C911.698 143.038 910.759 142.727 909.577 142.727C908.531 142.727 907.615 143 906.827 143.545C906.046 144.083 905.437 144.845 904.997 145.83C904.565 146.807 904.349 147.955 904.349 149.273C904.349 150.621 904.562 151.795 904.986 152.795C905.418 153.795 906.024 154.572 906.804 155.125C907.592 155.678 908.516 155.955 909.577 155.955C910.274 155.955 910.906 155.833 911.474 155.591C912.043 155.348 912.524 155 912.918 154.545C913.312 154.091 913.592 153.545 913.759 152.909H916.44C916.289 153.939 915.914 154.867 915.315 155.693C914.724 156.511 913.94 157.163 912.963 157.648C911.993 158.125 910.865 158.364 909.577 158.364ZM927.452 158.364C925.876 158.364 924.493 157.989 923.304 157.239C922.122 156.489 921.198 155.439 920.531 154.091C919.872 152.742 919.543 151.167 919.543 149.364C919.543 147.545 919.872 145.958 920.531 144.602C921.198 143.246 922.122 142.193 923.304 141.443C924.493 140.693 925.876 140.318 927.452 140.318C929.027 140.318 930.406 140.693 931.588 141.443C932.777 142.193 933.702 143.246 934.361 144.602C935.027 145.958 935.361 147.545 935.361 149.364C935.361 151.167 935.027 152.742 934.361 154.091C933.702 155.439 932.777 156.489 931.588 157.239C930.406 157.989 929.027 158.364 927.452 158.364ZM927.452 155.955C928.649 155.955 929.634 155.648 930.406 155.034C931.179 154.42 931.751 153.614 932.122 152.614C932.493 151.614 932.679 150.53 932.679 149.364C932.679 148.197 932.493 147.11 932.122 146.102C931.751 145.095 931.179 144.28 930.406 143.659C929.634 143.038 928.649 142.727 927.452 142.727C926.255 142.727 925.27 143.038 924.497 143.659C923.724 144.28 923.152 145.095 922.781 146.102C922.41 147.11 922.224 148.197 922.224 149.364C922.224 150.53 922.41 151.614 922.781 152.614C923.152 153.614 923.724 154.42 924.497 155.034C925.27 155.648 926.255 155.955 927.452 155.955ZM955.045 158.364C953.591 158.364 952.307 157.996 951.193 157.261C950.08 156.519 949.208 155.473 948.58 154.125C947.951 152.769 947.636 151.167 947.636 149.318C947.636 147.485 947.951 145.894 948.58 144.545C949.208 143.197 950.083 142.155 951.205 141.42C952.326 140.686 953.621 140.318 955.091 140.318C956.227 140.318 957.125 140.508 957.784 140.886C958.451 141.258 958.958 141.682 959.307 142.159C959.663 142.629 959.939 143.015 960.136 143.318H960.364V134.727H963.045V158H960.455V155.318H960.136C959.939 155.636 959.659 156.038 959.295 156.523C958.932 157 958.413 157.428 957.739 157.807C957.064 158.178 956.167 158.364 955.045 158.364ZM955.409 155.955C956.485 155.955 957.394 155.674 958.136 155.114C958.879 154.545 959.443 153.761 959.83 152.761C960.216 151.754 960.409 150.591 960.409 149.273C960.409 147.97 960.22 146.83 959.841 145.852C959.462 144.867 958.902 144.102 958.159 143.557C957.417 143.004 956.5 142.727 955.409 142.727C954.273 142.727 953.326 143.019 952.568 143.602C951.818 144.178 951.254 144.962 950.875 145.955C950.504 146.939 950.318 148.045 950.318 149.273C950.318 150.515 950.508 151.644 950.886 152.659C951.273 153.667 951.841 154.47 952.591 155.068C953.348 155.659 954.288 155.955 955.409 155.955ZM975.648 158.364C973.966 158.364 972.515 157.992 971.295 157.25C970.083 156.5 969.148 155.455 968.489 154.114C967.837 152.765 967.511 151.197 967.511 149.409C967.511 147.621 967.837 146.045 968.489 144.682C969.148 143.311 970.064 142.242 971.239 141.477C972.42 140.705 973.799 140.318 975.375 140.318C976.284 140.318 977.182 140.47 978.068 140.773C978.955 141.076 979.761 141.568 980.489 142.25C981.216 142.924 981.795 143.818 982.227 144.932C982.659 146.045 982.875 147.417 982.875 149.045V150.182H969.42V147.864H980.148C980.148 146.879 979.951 146 979.557 145.227C979.17 144.455 978.617 143.845 977.898 143.398C977.186 142.951 976.345 142.727 975.375 142.727C974.307 142.727 973.383 142.992 972.602 143.523C971.83 144.045 971.235 144.727 970.818 145.568C970.402 146.409 970.193 147.311 970.193 148.273V149.818C970.193 151.136 970.42 152.254 970.875 153.17C971.337 154.08 971.977 154.773 972.795 155.25C973.614 155.72 974.564 155.955 975.648 155.955C976.352 155.955 976.989 155.856 977.557 155.659C978.133 155.455 978.629 155.152 979.045 154.75C979.462 154.341 979.784 153.833 980.011 153.227L982.602 153.955C982.33 154.833 981.871 155.606 981.227 156.273C980.583 156.932 979.788 157.447 978.841 157.818C977.894 158.182 976.83 158.364 975.648 158.364ZM1003.05 158.364C1001.41 158.364 1000 157.977 998.818 157.205C997.636 156.432 996.727 155.367 996.091 154.011C995.455 152.655 995.136 151.106 995.136 149.364C995.136 147.591 995.462 146.027 996.114 144.67C996.773 143.307 997.689 142.242 998.864 141.477C1000.05 140.705 1001.42 140.318 1003 140.318C1004.23 140.318 1005.33 140.545 1006.32 141C1007.3 141.455 1008.11 142.091 1008.74 142.909C1009.37 143.727 1009.76 144.682 1009.91 145.773H1007.23C1007.02 144.977 1006.57 144.273 1005.86 143.659C1005.17 143.038 1004.23 142.727 1003.05 142.727C1002 142.727 1001.08 143 1000.3 143.545C999.515 144.083 998.905 144.845 998.466 145.83C998.034 146.807 997.818 147.955 997.818 149.273C997.818 150.621 998.03 151.795 998.455 152.795C998.886 153.795 999.492 154.572 1000.27 155.125C1001.06 155.678 1001.98 155.955 1003.05 155.955C1003.74 155.955 1004.38 155.833 1004.94 155.591C1005.51 155.348 1005.99 155 1006.39 154.545C1006.78 154.091 1007.06 153.545 1007.23 152.909H1009.91C1009.76 153.939 1009.38 154.867 1008.78 155.693C1008.19 156.511 1007.41 157.163 1006.43 157.648C1005.46 158.125 1004.33 158.364 1003.05 158.364ZM1018.97 158.409C1017.86 158.409 1016.86 158.201 1015.95 157.784C1015.05 157.36 1014.34 156.75 1013.81 155.955C1013.28 155.152 1013.01 154.182 1013.01 153.045C1013.01 152.045 1013.21 151.235 1013.6 150.614C1014 149.985 1014.52 149.492 1015.18 149.136C1015.84 148.78 1016.57 148.515 1017.36 148.341C1018.17 148.159 1018.97 148.015 1019.78 147.909C1020.84 147.773 1021.7 147.67 1022.36 147.602C1023.03 147.527 1023.52 147.402 1023.82 147.227C1024.13 147.053 1024.28 146.75 1024.28 146.318V146.227C1024.28 145.106 1023.98 144.235 1023.36 143.614C1022.76 142.992 1021.84 142.682 1020.6 142.682C1019.32 142.682 1018.32 142.962 1017.59 143.523C1016.86 144.083 1016.35 144.682 1016.06 145.318L1013.51 144.409C1013.97 143.348 1014.57 142.523 1015.33 141.932C1016.09 141.333 1016.93 140.917 1017.83 140.682C1018.74 140.439 1019.63 140.318 1020.51 140.318C1021.07 140.318 1021.72 140.386 1022.44 140.523C1023.18 140.652 1023.89 140.92 1024.57 141.33C1025.26 141.739 1025.83 142.356 1026.28 143.182C1026.74 144.008 1026.97 145.114 1026.97 146.5V158H1024.28V155.636H1024.15C1023.97 156.015 1023.66 156.42 1023.24 156.852C1022.81 157.284 1022.25 157.652 1021.55 157.955C1020.84 158.258 1019.98 158.409 1018.97 158.409ZM1019.38 156C1020.44 156 1021.33 155.792 1022.06 155.375C1022.79 154.958 1023.34 154.42 1023.72 153.761C1024.09 153.102 1024.28 152.409 1024.28 151.682V149.227C1024.17 149.364 1023.92 149.489 1023.53 149.602C1023.16 149.708 1022.72 149.803 1022.22 149.886C1021.72 149.962 1021.24 150.03 1020.77 150.091C1020.31 150.144 1019.94 150.189 1019.65 150.227C1018.95 150.318 1018.3 150.466 1017.69 150.67C1017.09 150.867 1016.61 151.167 1016.24 151.568C1015.88 151.962 1015.69 152.5 1015.69 153.182C1015.69 154.114 1016.04 154.818 1016.73 155.295C1017.42 155.765 1018.31 156 1019.38 156ZM1034.54 134.727V158H1031.86V134.727H1034.54ZM1046.55 158.364C1044.91 158.364 1043.5 157.977 1042.32 157.205C1041.14 156.432 1040.23 155.367 1039.59 154.011C1038.95 152.655 1038.64 151.106 1038.64 149.364C1038.64 147.591 1038.96 146.027 1039.61 144.67C1040.27 143.307 1041.19 142.242 1042.36 141.477C1043.55 140.705 1044.92 140.318 1046.5 140.318C1047.73 140.318 1048.83 140.545 1049.82 141C1050.8 141.455 1051.61 142.091 1052.24 142.909C1052.87 143.727 1053.26 144.682 1053.41 145.773H1050.73C1050.52 144.977 1050.07 144.273 1049.36 143.659C1048.67 143.038 1047.73 142.727 1046.55 142.727C1045.5 142.727 1044.58 143 1043.8 143.545C1043.02 144.083 1042.41 144.845 1041.97 145.83C1041.53 146.807 1041.32 147.955 1041.32 149.273C1041.32 150.621 1041.53 151.795 1041.95 152.795C1042.39 153.795 1042.99 154.572 1043.77 155.125C1044.56 155.678 1045.48 155.955 1046.55 155.955C1047.24 155.955 1047.88 155.833 1048.44 155.591C1049.01 155.348 1049.49 155 1049.89 154.545C1050.28 154.091 1050.56 153.545 1050.73 152.909H1053.41C1053.26 153.939 1052.88 154.867 1052.28 155.693C1051.69 156.511 1050.91 157.163 1049.93 157.648C1048.96 158.125 1047.83 158.364 1046.55 158.364ZM1068.33 150.864V140.545H1071.01V158H1068.33V155.045H1068.15C1067.74 155.932 1067.1 156.686 1066.24 157.307C1065.38 157.92 1064.28 158.227 1062.97 158.227C1061.88 158.227 1060.91 157.989 1060.06 157.511C1059.21 157.027 1058.54 156.299 1058.06 155.33C1057.57 154.352 1057.33 153.121 1057.33 151.636V140.545H1060.01V151.455C1060.01 152.727 1060.37 153.742 1061.08 154.5C1061.8 155.258 1062.72 155.636 1063.83 155.636C1064.5 155.636 1065.17 155.466 1065.86 155.125C1066.56 154.784 1067.14 154.261 1067.61 153.557C1068.09 152.852 1068.33 151.955 1068.33 150.864ZM1078.61 134.727V158H1075.92V134.727H1078.61ZM1090.61 158.364C1089.03 158.364 1087.65 157.989 1086.46 157.239C1085.28 156.489 1084.35 155.439 1083.69 154.091C1083.03 152.742 1082.7 151.167 1082.7 149.364C1082.7 147.545 1083.03 145.958 1083.69 144.602C1084.35 143.246 1085.28 142.193 1086.46 141.443C1087.65 140.693 1089.03 140.318 1090.61 140.318C1092.18 140.318 1093.56 140.693 1094.74 141.443C1095.93 142.193 1096.86 143.246 1097.52 144.602C1098.18 145.958 1098.52 147.545 1098.52 149.364C1098.52 151.167 1098.18 152.742 1097.52 154.091C1096.86 155.439 1095.93 156.489 1094.74 157.239C1093.56 157.989 1092.18 158.364 1090.61 158.364ZM1090.61 155.955C1091.8 155.955 1092.79 155.648 1093.56 155.034C1094.34 154.42 1094.91 153.614 1095.28 152.614C1095.65 151.614 1095.84 150.53 1095.84 149.364C1095.84 148.197 1095.65 147.11 1095.28 146.102C1094.91 145.095 1094.34 144.28 1093.56 143.659C1092.79 143.038 1091.8 142.727 1090.61 142.727C1089.41 142.727 1088.43 143.038 1087.65 143.659C1086.88 144.28 1086.31 145.095 1085.94 146.102C1085.57 147.11 1085.38 148.197 1085.38 149.364C1085.38 150.53 1085.57 151.614 1085.94 152.614C1086.31 153.614 1086.88 154.42 1087.65 155.034C1088.43 155.648 1089.41 155.955 1090.61 155.955ZM1114.97 144.455L1112.57 145.136C1112.41 144.735 1112.19 144.345 1111.89 143.966C1111.61 143.58 1111.21 143.261 1110.71 143.011C1110.21 142.761 1109.57 142.636 1108.79 142.636C1107.72 142.636 1106.83 142.883 1106.12 143.375C1105.42 143.86 1105.07 144.477 1105.07 145.227C1105.07 145.894 1105.31 146.42 1105.79 146.807C1106.28 147.193 1107.04 147.515 1108.07 147.773L1110.66 148.409C1112.22 148.788 1113.38 149.367 1114.14 150.148C1114.91 150.92 1115.29 151.917 1115.29 153.136C1115.29 154.136 1115 155.03 1114.43 155.818C1113.86 156.606 1113.07 157.227 1112.04 157.682C1111.02 158.136 1109.83 158.364 1108.47 158.364C1106.69 158.364 1105.22 157.977 1104.05 157.205C1102.89 156.432 1102.15 155.303 1101.84 153.818L1104.38 153.182C1104.63 154.121 1105.08 154.826 1105.76 155.295C1106.44 155.765 1107.33 156 1108.43 156C1109.68 156 1110.67 155.735 1111.41 155.205C1112.15 154.667 1112.52 154.023 1112.52 153.273C1112.52 152.667 1112.31 152.159 1111.88 151.75C1111.46 151.333 1110.81 151.023 1109.93 150.818L1107.02 150.136C1105.42 149.758 1104.25 149.17 1103.5 148.375C1102.75 147.572 1102.38 146.568 1102.38 145.364C1102.38 144.379 1102.66 143.508 1103.21 142.75C1103.77 141.992 1104.54 141.398 1105.5 140.966C1106.47 140.534 1107.57 140.318 1108.79 140.318C1110.52 140.318 1111.88 140.697 1112.86 141.455C1113.85 142.212 1114.56 143.212 1114.97 144.455Z" fill="black" fill-opacity="0.2"/>
</svg>
