<svg width="1920" height="1080" viewBox="0 0 1920 1080" fill="none" xmlns="http://www.w3.org/2000/svg">
<g clip-path="url(#clip0_10_200)">
<rect width="1920" height="1080" fill="#025E73"/>
<rect width="1920" height="1080" fill="black" fill-opacity="0.2"/>
<rect x="610" y="90" width="700" height="900" rx="30" fill="#011F26"/>
<rect x="610" y="90" width="700" height="900" rx="30" fill="black" fill-opacity="0.2"/>
<rect x="637" y="135" width="646" height="116" rx="18" fill="#A5A692"/>
<rect x="637" y="135" width="646" height="116" rx="18" fill="black" fill-opacity="0.2"/>
<rect x="637" y="135" width="646" height="116" rx="18" stroke="#A5A692" stroke-width="4"/>
<rect x="637" y="135" width="646" height="116" rx="18" stroke="black" stroke-opacity="0.2" stroke-width="4"/>
<rect x="658" y="562" width="100" height="100" rx="15" fill="#BFB78F"/>
<rect x="658" y="562" width="100" height="100" rx="15" fill="black" fill-opacity="0.2"/>
<path d="M722.273 577.182V647H713.818V586.045H713.409L696.364 597.364V588.773L713.818 577.182H722.273Z" fill="white"/>
<rect x="818" y="562" width="100" height="100" rx="15" fill="#BFB78F"/>
<rect x="818" y="562" width="100" height="100" rx="15" fill="black" fill-opacity="0.2"/>
<path d="M850.727 647V640.864L873.773 615.636C876.477 612.682 878.705 610.114 880.455 607.932C882.205 605.727 883.5 603.659 884.341 601.727C885.205 599.773 885.636 597.727 885.636 595.591C885.636 593.136 885.045 591.011 883.864 589.216C882.705 587.42 881.114 586.034 879.091 585.057C877.068 584.08 874.795 583.591 872.273 583.591C869.591 583.591 867.25 584.148 865.25 585.261C863.273 586.352 861.739 587.886 860.648 589.864C859.58 591.841 859.045 594.159 859.045 596.818H851C851 592.727 851.943 589.136 853.83 586.045C855.716 582.955 858.284 580.545 861.534 578.818C864.807 577.091 868.477 576.227 872.545 576.227C876.636 576.227 880.261 577.091 883.42 578.818C886.58 580.545 889.057 582.875 890.852 585.807C892.648 588.739 893.545 592 893.545 595.591C893.545 598.159 893.08 600.67 892.148 603.125C891.239 605.557 889.648 608.273 887.375 611.273C885.125 614.25 882 617.886 878 622.182L862.318 638.955V639.5H894.773V647H850.727Z" fill="white"/>
<rect x="978" y="562" width="100" height="100" rx="15" fill="#BFB78F"/>
<rect x="978" y="562" width="100" height="100" rx="15" fill="black" fill-opacity="0.2"/>
<path d="M1032.82 647.955C1028.32 647.955 1024.31 647.182 1020.78 645.636C1017.28 644.091 1014.5 641.943 1012.43 639.193C1010.39 636.42 1009.27 633.205 1009.09 629.545H1017.68C1017.86 631.795 1018.64 633.739 1020 635.375C1021.36 636.989 1023.15 638.239 1025.35 639.125C1027.56 640.011 1030 640.455 1032.68 640.455C1035.68 640.455 1038.34 639.932 1040.66 638.886C1042.98 637.841 1044.8 636.386 1046.11 634.523C1047.43 632.659 1048.09 630.5 1048.09 628.045C1048.09 625.477 1047.45 623.216 1046.18 621.261C1044.91 619.284 1043.05 617.739 1040.59 616.625C1038.14 615.511 1035.14 614.955 1031.59 614.955H1026V607.455H1031.59C1034.36 607.455 1036.8 606.955 1038.89 605.955C1041 604.955 1042.65 603.545 1043.83 601.727C1045.03 599.909 1045.64 597.773 1045.64 595.318C1045.64 592.955 1045.11 590.898 1044.07 589.148C1043.02 587.398 1041.55 586.034 1039.64 585.057C1037.75 584.08 1035.52 583.591 1032.95 583.591C1030.55 583.591 1028.27 584.034 1026.14 584.92C1024.02 585.784 1022.3 587.045 1020.95 588.705C1019.61 590.341 1018.89 592.318 1018.77 594.636H1010.59C1010.73 590.977 1011.83 587.773 1013.9 585.023C1015.97 582.25 1018.67 580.091 1022.01 578.545C1025.38 577 1029.07 576.227 1033.09 576.227C1037.41 576.227 1041.11 577.102 1044.2 578.852C1047.3 580.58 1049.67 582.864 1051.33 585.705C1052.99 588.545 1053.82 591.614 1053.82 594.909C1053.82 598.841 1052.78 602.193 1050.72 604.966C1048.67 607.739 1045.89 609.659 1042.36 610.727V611.273C1046.77 612 1050.22 613.875 1052.69 616.898C1055.17 619.898 1056.41 623.614 1056.41 628.045C1056.41 631.841 1055.38 635.25 1053.31 638.273C1051.26 641.273 1048.47 643.636 1044.92 645.364C1041.38 647.091 1037.34 647.955 1032.82 647.955Z" fill="white"/>
<rect x="1138" y="562" width="100" height="100" rx="15" fill="#BFB78F"/>
<rect x="1138" y="562" width="100" height="100" rx="15" fill="black" fill-opacity="0.2"/>
<path d="M1167.59 632.682V625.727L1198.27 577.182H1203.32V587.955H1199.91L1176.73 624.636V625.182H1218.05V632.682H1167.59ZM1200.45 647V630.568V627.33V577.182H1208.5V647H1200.45Z" fill="white"/>
<rect x="658" y="842" width="100" height="100" rx="15" fill="#BFB78F"/>
<rect x="658" y="842" width="100" height="100" rx="15" fill="black" fill-opacity="0.2"/>
<path d="M712.455 856.227C715.318 856.25 718.182 856.795 721.045 857.864C723.909 858.932 726.523 860.705 728.886 863.182C731.25 865.636 733.148 868.989 734.58 873.239C736.011 877.489 736.727 882.818 736.727 889.227C736.727 895.432 736.136 900.943 734.955 905.761C733.795 910.557 732.114 914.602 729.909 917.898C727.727 921.193 725.068 923.693 721.932 925.398C718.818 927.102 715.295 927.955 711.364 927.955C707.455 927.955 703.966 927.182 700.898 925.636C697.852 924.068 695.352 921.898 693.398 919.125C691.466 916.33 690.227 913.091 689.682 909.409H698C698.75 912.614 700.239 915.261 702.466 917.352C704.716 919.42 707.682 920.455 711.364 920.455C716.75 920.455 721 918.102 724.114 913.398C727.25 908.693 728.818 902.045 728.818 893.455H728.273C727 895.364 725.489 897.011 723.739 898.398C721.989 899.784 720.045 900.852 717.909 901.602C715.773 902.352 713.5 902.727 711.091 902.727C707.091 902.727 703.42 901.739 700.08 899.761C696.761 897.761 694.102 895.023 692.102 891.545C690.125 888.045 689.136 884.045 689.136 879.545C689.136 875.273 690.091 871.364 692 867.818C693.932 864.25 696.636 861.409 700.114 859.295C703.614 857.182 707.727 856.159 712.455 856.227ZM712.455 863.727C709.591 863.727 707.011 864.443 704.716 865.875C702.443 867.284 700.636 869.193 699.295 871.602C697.977 873.989 697.318 876.636 697.318 879.545C697.318 882.455 697.955 885.102 699.227 887.489C700.523 889.852 702.284 891.739 704.511 893.148C706.761 894.534 709.318 895.227 712.182 895.227C714.341 895.227 716.352 894.807 718.216 893.966C720.08 893.102 721.705 891.932 723.091 890.455C724.5 888.955 725.602 887.261 726.398 885.375C727.193 883.466 727.591 881.477 727.591 879.409C727.591 876.682 726.932 874.125 725.614 871.739C724.318 869.352 722.523 867.42 720.227 865.943C717.955 864.466 715.364 863.727 712.455 863.727Z" fill="white"/>
<rect x="818" y="842" width="100" height="100" rx="15" fill="#BFB78F"/>
<rect x="818" y="842" width="100" height="100" rx="15" fill="black" fill-opacity="0.2"/>
<path d="M873 927.955C867.864 927.955 863.489 926.557 859.875 923.761C856.261 920.943 853.5 916.864 851.591 911.523C849.682 906.159 848.727 899.682 848.727 892.091C848.727 884.545 849.682 878.102 851.591 872.761C853.523 867.398 856.295 863.307 859.909 860.489C863.545 857.648 867.909 856.227 873 856.227C878.091 856.227 882.443 857.648 886.057 860.489C889.693 863.307 892.466 867.398 894.375 872.761C896.307 878.102 897.273 884.545 897.273 892.091C897.273 899.682 896.318 906.159 894.409 911.523C892.5 916.864 889.739 920.943 886.125 923.761C882.511 926.557 878.136 927.955 873 927.955ZM873 920.455C878.091 920.455 882.045 918 884.864 913.091C887.682 908.182 889.091 901.182 889.091 892.091C889.091 886.045 888.443 880.898 887.148 876.648C885.875 872.398 884.034 869.159 881.625 866.932C879.239 864.705 876.364 863.591 873 863.591C867.955 863.591 864.011 866.08 861.17 871.057C858.33 876.011 856.909 883.023 856.909 892.091C856.909 898.136 857.545 903.273 858.818 907.5C860.091 911.727 861.92 914.943 864.307 917.148C866.716 919.352 869.614 920.455 873 920.455Z" fill="white"/>
<rect x="978" y="834" width="100" height="100" rx="15" fill="#BFB78F"/>
<rect x="978" y="834" width="100" height="100" rx="15" fill="black" fill-opacity="0.2"/>
<path d="M1033.01 919.545C1031.33 919.545 1029.88 918.943 1028.68 917.739C1027.47 916.534 1026.87 915.091 1026.87 913.409C1026.87 911.727 1027.47 910.284 1028.68 909.08C1029.88 907.875 1031.33 907.273 1033.01 907.273C1034.69 907.273 1036.13 907.875 1037.34 909.08C1038.54 910.284 1039.14 911.727 1039.14 913.409C1039.14 914.523 1038.86 915.545 1038.29 916.477C1037.75 917.409 1037.01 918.159 1036.08 918.727C1035.17 919.273 1034.14 919.545 1033.01 919.545Z" fill="white"/>
<rect x="658" y="700" width="100" height="100" rx="15" fill="#BFB78F"/>
<rect x="658" y="700" width="100" height="100" rx="15" fill="black" fill-opacity="0.2"/>
<path d="M712.545 785.955C708.545 785.955 704.943 785.159 701.739 783.568C698.534 781.977 695.966 779.795 694.034 777.023C692.102 774.25 691.045 771.091 690.864 767.545H699.045C699.364 770.705 700.795 773.318 703.341 775.386C705.909 777.432 708.977 778.455 712.545 778.455C715.409 778.455 717.955 777.784 720.182 776.443C722.432 775.102 724.193 773.261 725.466 770.92C726.761 768.557 727.409 765.886 727.409 762.909C727.409 759.864 726.739 757.148 725.398 754.761C724.08 752.352 722.261 750.455 719.943 749.068C717.625 747.682 714.977 746.977 712 746.955C709.864 746.932 707.67 747.261 705.42 747.943C703.17 748.602 701.318 749.455 699.864 750.5L691.955 749.545L696.182 715.182H732.455V722.682H703.273L700.818 743.273H701.227C702.659 742.136 704.455 741.193 706.614 740.443C708.773 739.693 711.023 739.318 713.364 739.318C717.636 739.318 721.443 740.341 724.784 742.386C728.148 744.409 730.784 747.182 732.693 750.705C734.625 754.227 735.591 758.25 735.591 762.773C735.591 767.227 734.591 771.205 732.591 774.705C730.614 778.182 727.886 780.932 724.409 782.955C720.932 784.955 716.977 785.955 712.545 785.955Z" fill="white"/>
<rect x="818" y="700" width="100" height="100" rx="15" fill="#BFB78F"/>
<rect x="818" y="700" width="100" height="100" rx="15" fill="black" fill-opacity="0.2"/>
<path d="M873.409 785.955C870.545 785.909 867.682 785.364 864.818 784.318C861.955 783.273 859.341 781.511 856.977 779.034C854.614 776.534 852.716 773.159 851.284 768.909C849.852 764.636 849.136 759.273 849.136 752.818C849.136 746.636 849.716 741.159 850.875 736.386C852.034 731.591 853.716 727.557 855.92 724.284C858.125 720.989 860.784 718.489 863.898 716.784C867.034 715.08 870.568 714.227 874.5 714.227C878.409 714.227 881.886 715.011 884.932 716.58C888 718.125 890.5 720.284 892.432 723.057C894.364 725.83 895.614 729.023 896.182 732.636H887.864C887.091 729.5 885.591 726.898 883.364 724.83C881.136 722.761 878.182 721.727 874.5 721.727C869.091 721.727 864.83 724.08 861.716 728.784C858.625 733.489 857.068 740.091 857.045 748.591H857.591C858.864 746.659 860.375 745.011 862.125 743.648C863.898 742.261 865.852 741.193 867.989 740.443C870.125 739.693 872.386 739.318 874.773 739.318C878.773 739.318 882.432 740.318 885.75 742.318C889.068 744.295 891.727 747.034 893.727 750.534C895.727 754.011 896.727 758 896.727 762.5C896.727 766.818 895.761 770.773 893.83 774.364C891.898 777.932 889.182 780.773 885.682 782.886C882.205 784.977 878.114 786 873.409 785.955ZM873.409 778.455C876.273 778.455 878.841 777.739 881.114 776.307C883.409 774.875 885.216 772.955 886.534 770.545C887.875 768.136 888.545 765.455 888.545 762.5C888.545 759.614 887.898 756.989 886.602 754.625C885.33 752.239 883.568 750.341 881.318 748.932C879.091 747.523 876.545 746.818 873.682 746.818C871.523 746.818 869.511 747.25 867.648 748.114C865.784 748.955 864.148 750.114 862.739 751.591C861.352 753.068 860.261 754.761 859.466 756.67C858.67 758.557 858.273 760.545 858.273 762.636C858.273 765.409 858.92 768 860.216 770.409C861.534 772.818 863.33 774.761 865.602 776.239C867.898 777.716 870.5 778.455 873.409 778.455Z" fill="white"/>
<rect x="978" y="700" width="100" height="100" rx="15" fill="#BFB78F"/>
<rect x="978" y="700" width="100" height="100" rx="15" fill="black" fill-opacity="0.2"/>
<path d="M1014.91 785L1046.14 723.227V722.682H1010.14V715.182H1054.86V723.091L1023.77 785H1014.91Z" fill="white"/>
<rect x="1138" y="700" width="100" height="100" rx="15" fill="#BFB78F"/>
<rect x="1138" y="700" width="100" height="100" rx="15" fill="black" fill-opacity="0.2"/>
<path d="M1192.59 785.955C1187.91 785.955 1183.77 785.125 1180.18 783.466C1176.61 781.784 1173.83 779.477 1171.83 776.545C1169.83 773.591 1168.84 770.227 1168.86 766.455C1168.84 763.5 1169.42 760.773 1170.6 758.273C1171.78 755.75 1173.4 753.648 1175.44 751.966C1177.51 750.261 1179.82 749.182 1182.36 748.727V748.318C1179.02 747.455 1176.36 745.58 1174.39 742.693C1172.41 739.784 1171.43 736.477 1171.45 732.773C1171.43 729.227 1172.33 726.057 1174.15 723.261C1175.97 720.466 1178.47 718.261 1181.65 716.648C1184.85 715.034 1188.5 714.227 1192.59 714.227C1196.64 714.227 1200.25 715.034 1203.43 716.648C1206.61 718.261 1209.11 720.466 1210.93 723.261C1212.77 726.057 1213.7 729.227 1213.73 732.773C1213.7 736.477 1212.69 739.784 1210.69 742.693C1208.72 745.58 1206.09 747.455 1202.82 748.318V748.727C1205.34 749.182 1207.61 750.261 1209.64 751.966C1211.66 753.648 1213.27 755.75 1214.48 758.273C1215.68 760.773 1216.3 763.5 1216.32 766.455C1216.3 770.227 1215.27 773.591 1213.25 776.545C1211.25 779.477 1208.47 781.784 1204.9 783.466C1201.35 785.125 1197.25 785.955 1192.59 785.955ZM1192.59 778.455C1195.75 778.455 1198.48 777.943 1200.77 776.92C1203.07 775.898 1204.84 774.455 1206.09 772.591C1207.34 770.727 1207.98 768.545 1208 766.045C1207.98 763.409 1207.3 761.08 1205.95 759.057C1204.61 757.034 1202.78 755.443 1200.47 754.284C1198.17 753.125 1195.55 752.545 1192.59 752.545C1189.61 752.545 1186.95 753.125 1184.61 754.284C1182.3 755.443 1180.47 757.034 1179.12 759.057C1177.81 761.08 1177.16 763.409 1177.18 766.045C1177.16 768.545 1177.76 770.727 1178.99 772.591C1180.24 774.455 1182.02 775.898 1184.34 776.92C1186.66 777.943 1189.41 778.455 1192.59 778.455ZM1192.59 745.318C1195.09 745.318 1197.31 744.818 1199.24 743.818C1201.19 742.818 1202.73 741.42 1203.84 739.625C1204.95 737.83 1205.52 735.727 1205.55 733.318C1205.52 730.955 1204.97 728.898 1203.88 727.148C1202.78 725.375 1201.27 724.011 1199.34 723.057C1197.41 722.08 1195.16 721.591 1192.59 721.591C1189.98 721.591 1187.69 722.08 1185.74 723.057C1183.78 724.011 1182.27 725.375 1181.2 727.148C1180.14 728.898 1179.61 730.955 1179.64 733.318C1179.61 735.727 1180.15 737.83 1181.24 739.625C1182.35 741.42 1183.89 742.818 1185.84 743.818C1187.8 744.818 1190.05 745.318 1192.59 745.318Z" fill="white"/>
<rect x="1113" y="834" width="125" height="100" rx="15" fill="#F2A71B"/>
<rect x="1113" y="834" width="125" height="100" rx="15" fill="black" fill-opacity="0.2"/>
<path d="M1159.14 875.818V868.455H1201.14V875.818H1159.14ZM1159.14 896V888.636H1201.14V896H1159.14Z" fill="white"/>
<rect x="656" y="296" width="160" height="100" rx="15" fill="#F2A71B"/>
<rect x="656" y="296" width="160" height="100" rx="15" fill="black" fill-opacity="0.2"/>
<path d="M730.636 333H722.182C721.682 330.568 720.807 328.432 719.557 326.591C718.33 324.75 716.83 323.205 715.057 321.955C713.307 320.682 711.364 319.727 709.227 319.091C707.091 318.455 704.864 318.136 702.545 318.136C698.318 318.136 694.489 319.205 691.057 321.341C687.648 323.477 684.932 326.625 682.909 330.784C680.909 334.943 679.909 340.045 679.909 346.091C679.909 352.136 680.909 357.239 682.909 361.398C684.932 365.557 687.648 368.705 691.057 370.841C694.489 372.977 698.318 374.045 702.545 374.045C704.864 374.045 707.091 373.727 709.227 373.091C711.364 372.455 713.307 371.511 715.057 370.261C716.83 368.989 718.33 367.432 719.557 365.591C720.807 363.727 721.682 361.591 722.182 359.182H730.636C730 362.75 728.841 365.943 727.159 368.761C725.477 371.58 723.386 373.977 720.886 375.955C718.386 377.909 715.58 379.398 712.466 380.42C709.375 381.443 706.068 381.955 702.545 381.955C696.591 381.955 691.295 380.5 686.659 377.591C682.023 374.682 678.375 370.545 675.716 365.182C673.057 359.818 671.727 353.455 671.727 346.091C671.727 338.727 673.057 332.364 675.716 327C678.375 321.636 682.023 317.5 686.659 314.591C691.295 311.682 696.591 310.227 702.545 310.227C706.068 310.227 709.375 310.739 712.466 311.761C715.58 312.784 718.386 314.284 720.886 316.261C723.386 318.216 725.477 320.602 727.159 323.42C728.841 326.216 730 329.409 730.636 333ZM800.48 333H792.026C791.526 330.568 790.651 328.432 789.401 326.591C788.173 324.75 786.673 323.205 784.901 321.955C783.151 320.682 781.207 319.727 779.071 319.091C776.935 318.455 774.707 318.136 772.389 318.136C768.162 318.136 764.332 319.205 760.901 321.341C757.491 323.477 754.776 326.625 752.753 330.784C750.753 334.943 749.753 340.045 749.753 346.091C749.753 352.136 750.753 357.239 752.753 361.398C754.776 365.557 757.491 368.705 760.901 370.841C764.332 372.977 768.162 374.045 772.389 374.045C774.707 374.045 776.935 373.727 779.071 373.091C781.207 372.455 783.151 371.511 784.901 370.261C786.673 368.989 788.173 367.432 789.401 365.591C790.651 363.727 791.526 361.591 792.026 359.182H800.48C799.844 362.75 798.685 365.943 797.003 368.761C795.321 371.58 793.23 373.977 790.73 375.955C788.23 377.909 785.423 379.398 782.31 380.42C779.219 381.443 775.912 381.955 772.389 381.955C766.435 381.955 761.139 380.5 756.503 377.591C751.866 374.682 748.219 370.545 745.56 365.182C742.901 359.818 741.571 353.455 741.571 346.091C741.571 338.727 742.901 332.364 745.56 327C748.219 321.636 751.866 317.5 756.503 314.591C761.139 311.682 766.435 310.227 772.389 310.227C775.912 310.227 779.219 310.739 782.31 311.761C785.423 312.784 788.23 314.284 790.73 316.261C793.23 318.216 795.321 320.602 797.003 323.42C798.685 326.216 799.844 329.409 800.48 333Z" fill="white"/>
<rect x="658" y="424" width="100" height="100" rx="15" fill="#F2A71B"/>
<rect x="658" y="424" width="100" height="100" rx="15" fill="black" fill-opacity="0.2"/>
<path d="M722.545 435.909L700.045 519.5H692.682L715.182 435.909H722.545Z" fill="white"/>
<rect x="818" y="424" width="100" height="100" rx="15" fill="#F2A71B"/>
<rect x="818" y="424" width="100" height="100" rx="15" fill="black" fill-opacity="0.2"/>
<path d="M855.364 456.636L867.909 478.045L880.455 456.636H889.727L872.818 482.818L889.727 509H880.455L867.909 488.682L855.364 509H846.091L862.727 482.818L846.091 456.636H855.364Z" fill="white"/>
<rect x="978" y="424" width="100" height="100" rx="15" fill="#F2A71B"/>
<rect x="978" y="424" width="100" height="100" rx="15" fill="black" fill-opacity="0.2"/>
<path d="M1042.86 475.318V482.818H1012.32V475.318H1042.86Z" fill="white"/>
<rect x="1138" y="424" width="100" height="100" rx="15" fill="#F2A71B"/>
<rect x="1138" y="424" width="100" height="100" rx="15" fill="black" fill-opacity="0.2"/>
<path d="M1183.82 504.227V459.227H1191.45V504.227H1183.82ZM1165.14 485.545V477.909H1210.14V485.545H1165.14Z" fill="white"/>
<path d="M694.773 160.182V230H686.318V169.045H685.909L668.864 180.364V171.773L686.318 160.182H694.773ZM854.991 160.182V230H846.537V169.045H846.128L829.082 180.364V171.773L846.537 160.182H854.991ZM989.898 160.182V230H981.443V169.045H981.034L963.989 180.364V171.773L981.443 160.182H989.898Z" fill="white"/>
<path d="M747.17 160.182L765.17 189.227H765.716L783.716 160.182H793.67L771.716 195.091L793.67 230H783.716L765.716 201.5H765.17L747.17 230H737.216L759.716 195.091L737.216 160.182H747.17ZM905.48 196.318V188.955H947.48V196.318H905.48ZM905.48 216.5V209.136H947.48V216.5H905.48Z" fill="#F2A71B"/>
<path d="M747.17 160.182L765.17 189.227H765.716L783.716 160.182H793.67L771.716 195.091L793.67 230H783.716L765.716 201.5H765.17L747.17 230H737.216L759.716 195.091L737.216 160.182H747.17ZM905.48 196.318V188.955H947.48V196.318H905.48ZM905.48 216.5V209.136H947.48V216.5H905.48Z" fill="black" fill-opacity="0.2"/>
<path d="M0 -6H400V384C400 417.137 373.137 444 340 444H0V-6Z" fill="#011F26"/>
<path d="M0 -6H400V384C400 417.137 373.137 444 340 444H0V-6Z" fill="black" fill-opacity="0.2"/>
<mask id="path-39-inside-1_10_200" fill="white">
<path d="M22 9H97V84H22V9Z"/>
</mask>
<path d="M22 9H97V84H22V9Z" fill="#BFB78F"/>
<path d="M22 9H97V84H22V9Z" fill="black" fill-opacity="0.2"/>
<path d="M55.3182 76.7273V31.7273H62.9545V76.7273H55.3182ZM36.6364 58.0455V50.4091H81.6364V58.0455H36.6364Z" fill="white"/>
<path d="M22 9V8H21V9H22ZM22 84H21V85H22V84ZM22 10H97V8H22V10ZM97 83H22V85H97V83ZM23 84V9H21V84H23Z" fill="#011F26" mask="url(#path-39-inside-1_10_200)"/>
<path d="M22 9V8H21V9H22ZM22 84H21V85H22V84ZM22 10H97V8H22V10ZM97 83H22V85H97V83ZM23 84V9H21V84H23Z" fill="black" fill-opacity="0.2" mask="url(#path-39-inside-1_10_200)"/>
<mask id="path-42-inside-2_10_200" fill="white">
<path d="M22 84H97V159H52C35.4315 159 22 145.569 22 129V84Z"/>
</mask>
<path d="M22 84H97V159H52C35.4315 159 22 145.569 22 129V84Z" fill="#BFB78F"/>
<path d="M22 84H97V159H52C35.4315 159 22 145.569 22 129V84Z" fill="black" fill-opacity="0.2"/>
<path d="M52.9545 110.091L59.3636 122.295L65.9318 110.091H75.8636L65.75 127.545L76.1364 145H66.25L59.3636 132.932L52.5909 145H42.5909L52.9545 127.545L42.9545 110.091H52.9545Z" fill="white"/>
<path d="M22 84H97H22ZM97 160H52C34.8792 160 21 146.121 21 129H23C23 145.016 35.9837 158 52 158H97V160ZM52 160C34.8792 160 21 146.121 21 129V84H23V129C23 145.016 35.9837 158 52 158V160ZM97 84V159V84Z" fill="#011F26" mask="url(#path-42-inside-2_10_200)"/>
<path d="M22 84H97H22ZM97 160H52C34.8792 160 21 146.121 21 129H23C23 145.016 35.9837 158 52 158H97V160ZM52 160C34.8792 160 21 146.121 21 129V84H23V129C23 145.016 35.9837 158 52 158V160ZM97 84V159V84Z" fill="black" fill-opacity="0.2" mask="url(#path-42-inside-2_10_200)"/>
<mask id="path-45-inside-3_10_200" fill="white">
<path d="M97 83.1666H172V128.167C172 144.735 158.569 158.167 142 158.167H97V83.1666Z"/>
</mask>
<path d="M97 83.1666H172V128.167C172 144.735 158.569 158.167 142 158.167H97V83.1666Z" fill="#F2A71B"/>
<path d="M97 83.1666H172V128.167C172 144.735 158.569 158.167 142 158.167H97V83.1666Z" fill="black" fill-opacity="0.2"/>
<path d="M113.136 121.985V114.621H155.136V121.985H113.136ZM113.136 142.167V134.803H155.136V142.167H113.136Z" fill="white"/>
<path d="M97 83.1666H172H97ZM173 128.167C173 145.287 159.121 159.167 142 159.167H96L98 157.167H142C158.016 157.167 171 144.183 171 128.167H173ZM96 159.167V83.1666H98V157.167L96 159.167ZM173 83.1666V128.167C173 145.287 159.121 159.167 142 159.167V157.167C158.016 157.167 171 144.183 171 128.167V83.1666H173Z" fill="#011F26" mask="url(#path-45-inside-3_10_200)"/>
<path d="M97 83.1666H172H97ZM173 128.167C173 145.287 159.121 159.167 142 159.167H96L98 157.167H142C158.016 157.167 171 144.183 171 128.167H173ZM96 159.167V83.1666H98V157.167L96 159.167ZM173 83.1666V128.167C173 145.287 159.121 159.167 142 159.167V157.167C158.016 157.167 171 144.183 171 128.167V83.1666H173Z" fill="black" fill-opacity="0.2" mask="url(#path-45-inside-3_10_200)"/>
<path d="M97.5 9.5H142C158.292 9.5 171.5 22.7076 171.5 39V83.5H97.5V9.5Z" fill="#BFB78F"/>
<path d="M97.5 9.5H142C158.292 9.5 171.5 22.7076 171.5 39V83.5H97.5V9.5Z" fill="black" fill-opacity="0.2"/>
<path d="M149.364 47.8182V55.3182H118.818V47.8182H149.364Z" fill="white"/>
<path d="M97.5 9.5H142C158.292 9.5 171.5 22.7076 171.5 39V83.5H97.5V9.5Z" stroke="#011F26"/>
<path d="M97.5 9.5H142C158.292 9.5 171.5 22.7076 171.5 39V83.5H97.5V9.5Z" stroke="black" stroke-opacity="0.2"/>
<rect x="316.711" y="114.61" width="99" height="14" transform="rotate(-135 316.711 114.61)" fill="#D9D9D9"/>
<rect x="316.711" y="114.61" width="99" height="14" transform="rotate(-135 316.711 114.61)" stroke="#F2A71B"/>
<rect x="316.711" y="114.61" width="99" height="14" transform="rotate(-135 316.711 114.61)" stroke="black" stroke-opacity="0.2"/>
<rect x="246.707" y="104.711" width="99" height="14" transform="rotate(-45 246.707 104.711)" fill="#D9D9D9"/>
<rect x="246.707" y="104.711" width="99" height="14" transform="rotate(-45 246.707 104.711)" stroke="#F2A71B"/>
<rect x="246.707" y="104.711" width="99" height="14" transform="rotate(-45 246.707 104.711)" stroke="black" stroke-opacity="0.2"/>
<g filter="url(#filter0_d_10_200)">
<path d="M19.8182 255V231.727H22.6364V242.091H35.0455V231.727H37.8636V255H35.0455V244.591H22.6364V255H19.8182ZM43.142 255V237.545H45.8239V255H43.142ZM44.5057 234.636C43.983 234.636 43.5322 234.458 43.1534 234.102C42.7822 233.746 42.5966 233.318 42.5966 232.818C42.5966 232.318 42.7822 231.89 43.1534 231.534C43.5322 231.178 43.983 231 44.5057 231C45.0284 231 45.4754 231.178 45.8466 231.534C46.2254 231.89 46.4148 232.318 46.4148 232.818C46.4148 233.318 46.2254 233.746 45.8466 234.102C45.4754 234.458 45.0284 234.636 44.5057 234.636ZM63.0994 241.455L60.6903 242.136C60.5388 241.735 60.3153 241.345 60.0199 240.966C59.732 240.58 59.3381 240.261 58.8381 240.011C58.3381 239.761 57.6979 239.636 56.9176 239.636C55.8494 239.636 54.9593 239.883 54.2472 240.375C53.5426 240.86 53.1903 241.477 53.1903 242.227C53.1903 242.894 53.4328 243.42 53.9176 243.807C54.4025 244.193 55.16 244.515 56.1903 244.773L58.7812 245.409C60.3419 245.788 61.5047 246.367 62.2699 247.148C63.035 247.92 63.4176 248.917 63.4176 250.136C63.4176 251.136 63.1297 252.03 62.554 252.818C61.9858 253.606 61.1903 254.227 60.1676 254.682C59.1449 255.136 57.9555 255.364 56.5994 255.364C54.8191 255.364 53.3456 254.977 52.179 254.205C51.0123 253.432 50.2737 252.303 49.9631 250.818L52.5085 250.182C52.7509 251.121 53.2093 251.826 53.8835 252.295C54.5653 252.765 55.4555 253 56.554 253C57.804 253 58.7964 252.735 59.5312 252.205C60.2737 251.667 60.6449 251.023 60.6449 250.273C60.6449 249.667 60.4328 249.159 60.0085 248.75C59.5843 248.333 58.9328 248.023 58.054 247.818L55.1449 247.136C53.5464 246.758 52.3722 246.17 51.6222 245.375C50.8797 244.572 50.5085 243.568 50.5085 242.364C50.5085 241.379 50.785 240.508 51.3381 239.75C51.8987 238.992 52.66 238.398 53.6222 237.966C54.5919 237.534 55.6903 237.318 56.9176 237.318C58.6449 237.318 60.0009 237.697 60.9858 238.455C61.9782 239.212 62.6828 240.212 63.0994 241.455ZM75.0455 237.545V239.818H66V237.545H75.0455ZM68.6364 233.364H71.3182V250C71.3182 250.758 71.428 251.326 71.6477 251.705C71.875 252.076 72.1629 252.326 72.5114 252.455C72.8674 252.576 73.2424 252.636 73.6364 252.636C73.9318 252.636 74.1742 252.621 74.3636 252.591C74.553 252.553 74.7045 252.523 74.8182 252.5L75.3636 254.909C75.1818 254.977 74.928 255.045 74.6023 255.114C74.2765 255.189 73.8636 255.227 73.3636 255.227C72.6061 255.227 71.8636 255.064 71.1364 254.739C70.4167 254.413 69.8182 253.917 69.3409 253.25C68.8712 252.583 68.6364 251.742 68.6364 250.727V233.364ZM85.983 255.364C84.4072 255.364 83.0246 254.989 81.8352 254.239C80.6534 253.489 79.7292 252.439 79.0625 251.091C78.4034 249.742 78.0739 248.167 78.0739 246.364C78.0739 244.545 78.4034 242.958 79.0625 241.602C79.7292 240.246 80.6534 239.193 81.8352 238.443C83.0246 237.693 84.4072 237.318 85.983 237.318C87.5587 237.318 88.9375 237.693 90.1193 238.443C91.3087 239.193 92.233 240.246 92.892 241.602C93.5587 242.958 93.892 244.545 93.892 246.364C93.892 248.167 93.5587 249.742 92.892 251.091C92.233 252.439 91.3087 253.489 90.1193 254.239C88.9375 254.989 87.5587 255.364 85.983 255.364ZM85.983 252.955C87.1799 252.955 88.1648 252.648 88.9375 252.034C89.7102 251.42 90.2822 250.614 90.6534 249.614C91.0246 248.614 91.2102 247.53 91.2102 246.364C91.2102 245.197 91.0246 244.11 90.6534 243.102C90.2822 242.095 89.7102 241.28 88.9375 240.659C88.1648 240.038 87.1799 239.727 85.983 239.727C84.786 239.727 83.8011 240.038 83.0284 240.659C82.2557 241.28 81.6837 242.095 81.3125 243.102C80.9413 244.11 80.7557 245.197 80.7557 246.364C80.7557 247.53 80.9413 248.614 81.3125 249.614C81.6837 250.614 82.2557 251.42 83.0284 252.034C83.8011 252.648 84.786 252.955 85.983 252.955ZM97.9858 255V237.545H100.577V240.182H100.759C101.077 239.318 101.652 238.617 102.486 238.08C103.319 237.542 104.259 237.273 105.304 237.273C105.501 237.273 105.747 237.277 106.043 237.284C106.338 237.292 106.562 237.303 106.713 237.318V240.045C106.622 240.023 106.414 239.989 106.088 239.943C105.77 239.89 105.433 239.864 105.077 239.864C104.228 239.864 103.471 240.042 102.804 240.398C102.145 240.746 101.622 241.231 101.236 241.852C100.857 242.466 100.668 243.167 100.668 243.955V255H97.9858ZM109.892 255V237.545H112.574V255H109.892ZM111.256 234.636C110.733 234.636 110.282 234.458 109.903 234.102C109.532 233.746 109.347 233.318 109.347 232.818C109.347 232.318 109.532 231.89 109.903 231.534C110.282 231.178 110.733 231 111.256 231C111.778 231 112.225 231.178 112.597 231.534C112.975 231.89 113.165 232.318 113.165 232.818C113.165 233.318 112.975 233.746 112.597 234.102C112.225 234.458 111.778 234.636 111.256 234.636ZM124.577 255.364C122.94 255.364 121.531 254.977 120.349 254.205C119.168 253.432 118.259 252.367 117.622 251.011C116.986 249.655 116.668 248.106 116.668 246.364C116.668 244.591 116.993 243.027 117.645 241.67C118.304 240.307 119.221 239.242 120.395 238.477C121.577 237.705 122.955 237.318 124.531 237.318C125.759 237.318 126.865 237.545 127.849 238C128.834 238.455 129.641 239.091 130.27 239.909C130.899 240.727 131.289 241.682 131.44 242.773H128.759C128.554 241.977 128.099 241.273 127.395 240.659C126.698 240.038 125.759 239.727 124.577 239.727C123.531 239.727 122.615 240 121.827 240.545C121.046 241.083 120.437 241.845 119.997 242.83C119.565 243.807 119.349 244.955 119.349 246.273C119.349 247.621 119.562 248.795 119.986 249.795C120.418 250.795 121.024 251.572 121.804 252.125C122.592 252.678 123.516 252.955 124.577 252.955C125.274 252.955 125.906 252.833 126.474 252.591C127.043 252.348 127.524 252 127.918 251.545C128.312 251.091 128.592 250.545 128.759 249.909H131.44C131.289 250.939 130.914 251.867 130.315 252.693C129.724 253.511 128.94 254.163 127.963 254.648C126.993 255.125 125.865 255.364 124.577 255.364ZM142.452 255.364C140.876 255.364 139.493 254.989 138.304 254.239C137.122 253.489 136.198 252.439 135.531 251.091C134.872 249.742 134.543 248.167 134.543 246.364C134.543 244.545 134.872 242.958 135.531 241.602C136.198 240.246 137.122 239.193 138.304 238.443C139.493 237.693 140.876 237.318 142.452 237.318C144.027 237.318 145.406 237.693 146.588 238.443C147.777 239.193 148.702 240.246 149.361 241.602C150.027 242.958 150.361 244.545 150.361 246.364C150.361 248.167 150.027 249.742 149.361 251.091C148.702 252.439 147.777 253.489 146.588 254.239C145.406 254.989 144.027 255.364 142.452 255.364ZM142.452 252.955C143.649 252.955 144.634 252.648 145.406 252.034C146.179 251.42 146.751 250.614 147.122 249.614C147.493 248.614 147.679 247.53 147.679 246.364C147.679 245.197 147.493 244.11 147.122 243.102C146.751 242.095 146.179 241.28 145.406 240.659C144.634 240.038 143.649 239.727 142.452 239.727C141.255 239.727 140.27 240.038 139.497 240.659C138.724 241.28 138.152 242.095 137.781 243.102C137.41 244.11 137.224 245.197 137.224 246.364C137.224 247.53 137.41 248.614 137.781 249.614C138.152 250.614 138.724 251.42 139.497 252.034C140.27 252.648 141.255 252.955 142.452 252.955ZM179.045 255.364C177.591 255.364 176.307 254.996 175.193 254.261C174.08 253.519 173.208 252.473 172.58 251.125C171.951 249.769 171.636 248.167 171.636 246.318C171.636 244.485 171.951 242.894 172.58 241.545C173.208 240.197 174.083 239.155 175.205 238.42C176.326 237.686 177.621 237.318 179.091 237.318C180.227 237.318 181.125 237.508 181.784 237.886C182.451 238.258 182.958 238.682 183.307 239.159C183.663 239.629 183.939 240.015 184.136 240.318H184.364V231.727H187.045V255H184.455V252.318H184.136C183.939 252.636 183.659 253.038 183.295 253.523C182.932 254 182.413 254.428 181.739 254.807C181.064 255.178 180.167 255.364 179.045 255.364ZM179.409 252.955C180.485 252.955 181.394 252.674 182.136 252.114C182.879 251.545 183.443 250.761 183.83 249.761C184.216 248.754 184.409 247.591 184.409 246.273C184.409 244.97 184.22 243.83 183.841 242.852C183.462 241.867 182.902 241.102 182.159 240.557C181.417 240.004 180.5 239.727 179.409 239.727C178.273 239.727 177.326 240.019 176.568 240.602C175.818 241.178 175.254 241.962 174.875 242.955C174.504 243.939 174.318 245.045 174.318 246.273C174.318 247.515 174.508 248.644 174.886 249.659C175.273 250.667 175.841 251.47 176.591 252.068C177.348 252.659 178.288 252.955 179.409 252.955ZM199.648 255.364C197.966 255.364 196.515 254.992 195.295 254.25C194.083 253.5 193.148 252.455 192.489 251.114C191.837 249.765 191.511 248.197 191.511 246.409C191.511 244.621 191.837 243.045 192.489 241.682C193.148 240.311 194.064 239.242 195.239 238.477C196.42 237.705 197.799 237.318 199.375 237.318C200.284 237.318 201.182 237.47 202.068 237.773C202.955 238.076 203.761 238.568 204.489 239.25C205.216 239.924 205.795 240.818 206.227 241.932C206.659 243.045 206.875 244.417 206.875 246.045V247.182H193.42V244.864H204.148C204.148 243.879 203.951 243 203.557 242.227C203.17 241.455 202.617 240.845 201.898 240.398C201.186 239.951 200.345 239.727 199.375 239.727C198.307 239.727 197.383 239.992 196.602 240.523C195.83 241.045 195.235 241.727 194.818 242.568C194.402 243.409 194.193 244.311 194.193 245.273V246.818C194.193 248.136 194.42 249.254 194.875 250.17C195.337 251.08 195.977 251.773 196.795 252.25C197.614 252.72 198.564 252.955 199.648 252.955C200.352 252.955 200.989 252.856 201.557 252.659C202.133 252.455 202.629 252.152 203.045 251.75C203.462 251.341 203.784 250.833 204.011 250.227L206.602 250.955C206.33 251.833 205.871 252.606 205.227 253.273C204.583 253.932 203.788 254.447 202.841 254.818C201.894 255.182 200.83 255.364 199.648 255.364ZM227.045 255.364C225.409 255.364 224 254.977 222.818 254.205C221.636 253.432 220.727 252.367 220.091 251.011C219.455 249.655 219.136 248.106 219.136 246.364C219.136 244.591 219.462 243.027 220.114 241.67C220.773 240.307 221.689 239.242 222.864 238.477C224.045 237.705 225.424 237.318 227 237.318C228.227 237.318 229.333 237.545 230.318 238C231.303 238.455 232.11 239.091 232.739 239.909C233.367 240.727 233.758 241.682 233.909 242.773H231.227C231.023 241.977 230.568 241.273 229.864 240.659C229.167 240.038 228.227 239.727 227.045 239.727C226 239.727 225.083 240 224.295 240.545C223.515 241.083 222.905 241.845 222.466 242.83C222.034 243.807 221.818 244.955 221.818 246.273C221.818 247.621 222.03 248.795 222.455 249.795C222.886 250.795 223.492 251.572 224.273 252.125C225.061 252.678 225.985 252.955 227.045 252.955C227.742 252.955 228.375 252.833 228.943 252.591C229.511 252.348 229.992 252 230.386 251.545C230.78 251.091 231.061 250.545 231.227 249.909H233.909C233.758 250.939 233.383 251.867 232.784 252.693C232.193 253.511 231.409 254.163 230.432 254.648C229.462 255.125 228.333 255.364 227.045 255.364ZM242.966 255.409C241.86 255.409 240.856 255.201 239.955 254.784C239.053 254.36 238.337 253.75 237.807 252.955C237.277 252.152 237.011 251.182 237.011 250.045C237.011 249.045 237.208 248.235 237.602 247.614C237.996 246.985 238.523 246.492 239.182 246.136C239.841 245.78 240.568 245.515 241.364 245.341C242.167 245.159 242.973 245.015 243.784 244.909C244.845 244.773 245.705 244.67 246.364 244.602C247.03 244.527 247.515 244.402 247.818 244.227C248.129 244.053 248.284 243.75 248.284 243.318V243.227C248.284 242.106 247.977 241.235 247.364 240.614C246.758 239.992 245.837 239.682 244.602 239.682C243.322 239.682 242.318 239.962 241.591 240.523C240.864 241.083 240.352 241.682 240.057 242.318L237.511 241.409C237.966 240.348 238.572 239.523 239.33 238.932C240.095 238.333 240.928 237.917 241.83 237.682C242.739 237.439 243.633 237.318 244.511 237.318C245.072 237.318 245.716 237.386 246.443 237.523C247.178 237.652 247.886 237.92 248.568 238.33C249.258 238.739 249.83 239.356 250.284 240.182C250.739 241.008 250.966 242.114 250.966 243.5V255H248.284V252.636H248.148C247.966 253.015 247.663 253.42 247.239 253.852C246.814 254.284 246.25 254.652 245.545 254.955C244.841 255.258 243.981 255.409 242.966 255.409ZM243.375 253C244.436 253 245.33 252.792 246.057 252.375C246.792 251.958 247.345 251.42 247.716 250.761C248.095 250.102 248.284 249.409 248.284 248.682V246.227C248.17 246.364 247.92 246.489 247.534 246.602C247.155 246.708 246.716 246.803 246.216 246.886C245.723 246.962 245.242 247.03 244.773 247.091C244.311 247.144 243.936 247.189 243.648 247.227C242.951 247.318 242.299 247.466 241.693 247.67C241.095 247.867 240.61 248.167 240.239 248.568C239.875 248.962 239.693 249.5 239.693 250.182C239.693 251.114 240.038 251.818 240.727 252.295C241.424 252.765 242.307 253 243.375 253ZM258.543 231.727V255H255.861V231.727H258.543ZM270.545 255.364C268.909 255.364 267.5 254.977 266.318 254.205C265.136 253.432 264.227 252.367 263.591 251.011C262.955 249.655 262.636 248.106 262.636 246.364C262.636 244.591 262.962 243.027 263.614 241.67C264.273 240.307 265.189 239.242 266.364 238.477C267.545 237.705 268.924 237.318 270.5 237.318C271.727 237.318 272.833 237.545 273.818 238C274.803 238.455 275.61 239.091 276.239 239.909C276.867 240.727 277.258 241.682 277.409 242.773H274.727C274.523 241.977 274.068 241.273 273.364 240.659C272.667 240.038 271.727 239.727 270.545 239.727C269.5 239.727 268.583 240 267.795 240.545C267.015 241.083 266.405 241.845 265.966 242.83C265.534 243.807 265.318 244.955 265.318 246.273C265.318 247.621 265.53 248.795 265.955 249.795C266.386 250.795 266.992 251.572 267.773 252.125C268.561 252.678 269.485 252.955 270.545 252.955C271.242 252.955 271.875 252.833 272.443 252.591C273.011 252.348 273.492 252 273.886 251.545C274.28 251.091 274.561 250.545 274.727 249.909H277.409C277.258 250.939 276.883 251.867 276.284 252.693C275.693 253.511 274.909 254.163 273.932 254.648C272.962 255.125 271.833 255.364 270.545 255.364ZM292.33 247.864V237.545H295.011V255H292.33V252.045H292.148C291.739 252.932 291.102 253.686 290.239 254.307C289.375 254.92 288.284 255.227 286.966 255.227C285.875 255.227 284.905 254.989 284.057 254.511C283.208 254.027 282.542 253.299 282.057 252.33C281.572 251.352 281.33 250.121 281.33 248.636V237.545H284.011V248.455C284.011 249.727 284.367 250.742 285.08 251.5C285.799 252.258 286.716 252.636 287.83 252.636C288.496 252.636 289.174 252.466 289.864 252.125C290.561 251.784 291.144 251.261 291.614 250.557C292.091 249.852 292.33 248.955 292.33 247.864ZM302.605 231.727V255H299.923V231.727H302.605ZM314.608 255.364C313.032 255.364 311.65 254.989 310.46 254.239C309.278 253.489 308.354 252.439 307.688 251.091C307.028 249.742 306.699 248.167 306.699 246.364C306.699 244.545 307.028 242.958 307.688 241.602C308.354 240.246 309.278 239.193 310.46 238.443C311.65 237.693 313.032 237.318 314.608 237.318C316.184 237.318 317.563 237.693 318.744 238.443C319.934 239.193 320.858 240.246 321.517 241.602C322.184 242.958 322.517 244.545 322.517 246.364C322.517 248.167 322.184 249.742 321.517 251.091C320.858 252.439 319.934 253.489 318.744 254.239C317.563 254.989 316.184 255.364 314.608 255.364ZM314.608 252.955C315.805 252.955 316.79 252.648 317.562 252.034C318.335 251.42 318.907 250.614 319.278 249.614C319.65 248.614 319.835 247.53 319.835 246.364C319.835 245.197 319.65 244.11 319.278 243.102C318.907 242.095 318.335 241.28 317.562 240.659C316.79 240.038 315.805 239.727 314.608 239.727C313.411 239.727 312.426 240.038 311.653 240.659C310.881 241.28 310.309 242.095 309.938 243.102C309.566 244.11 309.381 245.197 309.381 246.364C309.381 247.53 309.566 248.614 309.938 249.614C310.309 250.614 310.881 251.42 311.653 252.034C312.426 252.648 313.411 252.955 314.608 252.955ZM338.974 241.455L336.565 242.136C336.414 241.735 336.19 241.345 335.895 240.966C335.607 240.58 335.213 240.261 334.713 240.011C334.213 239.761 333.573 239.636 332.793 239.636C331.724 239.636 330.834 239.883 330.122 240.375C329.418 240.86 329.065 241.477 329.065 242.227C329.065 242.894 329.308 243.42 329.793 243.807C330.277 244.193 331.035 244.515 332.065 244.773L334.656 245.409C336.217 245.788 337.38 246.367 338.145 247.148C338.91 247.92 339.293 248.917 339.293 250.136C339.293 251.136 339.005 252.03 338.429 252.818C337.861 253.606 337.065 254.227 336.043 254.682C335.02 255.136 333.83 255.364 332.474 255.364C330.694 255.364 329.221 254.977 328.054 254.205C326.887 253.432 326.149 252.303 325.838 250.818L328.384 250.182C328.626 251.121 329.084 251.826 329.759 252.295C330.44 252.765 331.33 253 332.429 253C333.679 253 334.671 252.735 335.406 252.205C336.149 251.667 336.52 251.023 336.52 250.273C336.52 249.667 336.308 249.159 335.884 248.75C335.459 248.333 334.808 248.023 333.929 247.818L331.02 247.136C329.421 246.758 328.247 246.17 327.497 245.375C326.755 244.572 326.384 243.568 326.384 242.364C326.384 241.379 326.66 240.508 327.213 239.75C327.774 238.992 328.535 238.398 329.497 237.966C330.467 237.534 331.565 237.318 332.793 237.318C334.52 237.318 335.876 237.697 336.861 238.455C337.853 239.212 338.558 240.212 338.974 241.455Z" fill="white"/>
<path d="M351 271H7V275H351V271Z" fill="#F2A71B" mask="url(#path-52-inside-4_10_200)"/>
<path d="M351 271H7V275H351V271Z" fill="black" fill-opacity="0.2" mask="url(#path-52-inside-4_10_200)"/>
</g>
<path d="M38.5455 328H35.7273C35.5606 327.189 35.2689 326.477 34.8523 325.864C34.4432 325.25 33.9432 324.735 33.3523 324.318C32.7689 323.894 32.1212 323.576 31.4091 323.364C30.697 323.152 29.9545 323.045 29.1818 323.045C27.7727 323.045 26.4962 323.402 25.3523 324.114C24.2159 324.826 23.3106 325.875 22.6364 327.261C21.9697 328.648 21.6364 330.348 21.6364 332.364C21.6364 334.379 21.9697 336.08 22.6364 337.466C23.3106 338.852 24.2159 339.902 25.3523 340.614C26.4962 341.326 27.7727 341.682 29.1818 341.682C29.9545 341.682 30.697 341.576 31.4091 341.364C32.1212 341.152 32.7689 340.837 33.3523 340.42C33.9432 339.996 34.4432 339.477 34.8523 338.864C35.2689 338.242 35.5606 337.53 35.7273 336.727H38.5455C38.3333 337.917 37.947 338.981 37.3864 339.92C36.8258 340.86 36.1288 341.659 35.2955 342.318C34.4621 342.97 33.5265 343.466 32.4886 343.807C31.4583 344.148 30.3561 344.318 29.1818 344.318C27.197 344.318 25.4318 343.833 23.8864 342.864C22.3409 341.894 21.125 340.515 20.2386 338.727C19.3523 336.939 18.9091 334.818 18.9091 332.364C18.9091 329.909 19.3523 327.788 20.2386 326C21.125 324.212 22.3409 322.833 23.8864 321.864C25.4318 320.894 27.197 320.409 29.1818 320.409C30.3561 320.409 31.4583 320.58 32.4886 320.92C33.5265 321.261 34.4621 321.761 35.2955 322.42C36.1288 323.072 36.8258 323.867 37.3864 324.807C37.947 325.739 38.3333 326.803 38.5455 328ZM49.8267 344.364C48.2509 344.364 46.8684 343.989 45.679 343.239C44.4972 342.489 43.5729 341.439 42.9062 340.091C42.2472 338.742 41.9176 337.167 41.9176 335.364C41.9176 333.545 42.2472 331.958 42.9062 330.602C43.5729 329.246 44.4972 328.193 45.679 327.443C46.8684 326.693 48.2509 326.318 49.8267 326.318C51.4025 326.318 52.7813 326.693 53.9631 327.443C55.1525 328.193 56.0767 329.246 56.7358 330.602C57.4025 331.958 57.7358 333.545 57.7358 335.364C57.7358 337.167 57.4025 338.742 56.7358 340.091C56.0767 341.439 55.1525 342.489 53.9631 343.239C52.7813 343.989 51.4025 344.364 49.8267 344.364ZM49.8267 341.955C51.0237 341.955 52.0085 341.648 52.7812 341.034C53.554 340.42 54.1259 339.614 54.4972 338.614C54.8684 337.614 55.054 336.53 55.054 335.364C55.054 334.197 54.8684 333.11 54.4972 332.102C54.1259 331.095 53.554 330.28 52.7812 329.659C52.0085 329.038 51.0237 328.727 49.8267 328.727C48.6297 328.727 47.6449 329.038 46.8722 329.659C46.0994 330.28 45.5275 331.095 45.1562 332.102C44.785 333.11 44.5994 334.197 44.5994 335.364C44.5994 336.53 44.785 337.614 45.1562 338.614C45.5275 339.614 46.0994 340.42 46.8722 341.034C47.6449 341.648 48.6297 341.955 49.8267 341.955ZM64.5114 333.5V344H61.8295V326.545H64.4205V329.273H64.6477C65.0568 328.386 65.678 327.674 66.5114 327.136C67.3447 326.591 68.4205 326.318 69.7386 326.318C70.9205 326.318 71.9545 326.561 72.8409 327.045C73.7273 327.523 74.4167 328.25 74.9091 329.227C75.4015 330.197 75.6477 331.424 75.6477 332.909V344H72.9659V333.091C72.9659 331.72 72.6098 330.652 71.8977 329.886C71.1856 329.114 70.2083 328.727 68.9659 328.727C68.1098 328.727 67.3447 328.913 66.6705 329.284C66.0038 329.655 65.4773 330.197 65.0909 330.909C64.7045 331.621 64.5114 332.485 64.5114 333.5ZM88.1392 326.545V328.818H79.0938V326.545H88.1392ZM81.7301 322.364H84.4119V339C84.4119 339.758 84.5218 340.326 84.7415 340.705C84.9688 341.076 85.2566 341.326 85.6051 341.455C85.9612 341.576 86.3362 341.636 86.7301 341.636C87.0256 341.636 87.268 341.621 87.4574 341.591C87.6468 341.553 87.7983 341.523 87.9119 341.5L88.4574 343.909C88.2756 343.977 88.0218 344.045 87.696 344.114C87.3703 344.189 86.9574 344.227 86.4574 344.227C85.6998 344.227 84.9574 344.064 84.2301 343.739C83.5104 343.413 82.9119 342.917 82.4347 342.25C81.965 341.583 81.7301 340.742 81.7301 339.727V322.364ZM97.3097 344.409C96.2036 344.409 95.1998 344.201 94.2983 343.784C93.3968 343.36 92.6809 342.75 92.1506 341.955C91.6203 341.152 91.3551 340.182 91.3551 339.045C91.3551 338.045 91.5521 337.235 91.946 336.614C92.34 335.985 92.8665 335.492 93.5256 335.136C94.1847 334.78 94.9119 334.515 95.7074 334.341C96.5104 334.159 97.3172 334.015 98.1278 333.909C99.1884 333.773 100.048 333.67 100.707 333.602C101.374 333.527 101.859 333.402 102.162 333.227C102.473 333.053 102.628 332.75 102.628 332.318V332.227C102.628 331.106 102.321 330.235 101.707 329.614C101.101 328.992 100.181 328.682 98.946 328.682C97.6657 328.682 96.6619 328.962 95.9347 329.523C95.2074 330.083 94.696 330.682 94.4006 331.318L91.8551 330.409C92.3097 329.348 92.9157 328.523 93.6733 327.932C94.4384 327.333 95.2718 326.917 96.1733 326.682C97.0824 326.439 97.9763 326.318 98.8551 326.318C99.4157 326.318 100.06 326.386 100.787 326.523C101.522 326.652 102.23 326.92 102.912 327.33C103.601 327.739 104.173 328.356 104.628 329.182C105.082 330.008 105.31 331.114 105.31 332.5V344H102.628V341.636H102.491C102.31 342.015 102.007 342.42 101.582 342.852C101.158 343.284 100.594 343.652 99.8892 343.955C99.1847 344.258 98.3248 344.409 97.3097 344.409ZM97.7188 342C98.7794 342 99.6733 341.792 100.401 341.375C101.135 340.958 101.688 340.42 102.06 339.761C102.438 339.102 102.628 338.409 102.628 337.682V335.227C102.514 335.364 102.264 335.489 101.878 335.602C101.499 335.708 101.06 335.803 100.56 335.886C100.067 335.962 99.5862 336.03 99.1165 336.091C98.6544 336.144 98.2794 336.189 97.9915 336.227C97.2945 336.318 96.643 336.466 96.0369 336.67C95.4384 336.867 94.9536 337.167 94.5824 337.568C94.2188 337.962 94.0369 338.5 94.0369 339.182C94.0369 340.114 94.3816 340.818 95.071 341.295C95.768 341.765 96.6506 342 97.7188 342ZM117.795 326.545V328.818H108.75V326.545H117.795ZM111.386 322.364H114.068V339C114.068 339.758 114.178 340.326 114.398 340.705C114.625 341.076 114.913 341.326 115.261 341.455C115.617 341.576 115.992 341.636 116.386 341.636C116.682 341.636 116.924 341.621 117.114 341.591C117.303 341.553 117.455 341.523 117.568 341.5L118.114 343.909C117.932 343.977 117.678 344.045 117.352 344.114C117.027 344.189 116.614 344.227 116.114 344.227C115.356 344.227 114.614 344.064 113.886 343.739C113.167 343.413 112.568 342.917 112.091 342.25C111.621 341.583 111.386 340.742 111.386 339.727V322.364ZM128.733 344.364C127.157 344.364 125.775 343.989 124.585 343.239C123.403 342.489 122.479 341.439 121.812 340.091C121.153 338.742 120.824 337.167 120.824 335.364C120.824 333.545 121.153 331.958 121.812 330.602C122.479 329.246 123.403 328.193 124.585 327.443C125.775 326.693 127.157 326.318 128.733 326.318C130.309 326.318 131.688 326.693 132.869 327.443C134.059 328.193 134.983 329.246 135.642 330.602C136.309 331.958 136.642 333.545 136.642 335.364C136.642 337.167 136.309 338.742 135.642 340.091C134.983 341.439 134.059 342.489 132.869 343.239C131.688 343.989 130.309 344.364 128.733 344.364ZM128.733 341.955C129.93 341.955 130.915 341.648 131.688 341.034C132.46 340.42 133.032 339.614 133.403 338.614C133.775 337.614 133.96 336.53 133.96 335.364C133.96 334.197 133.775 333.11 133.403 332.102C133.032 331.095 132.46 330.28 131.688 329.659C130.915 329.038 129.93 328.727 128.733 328.727C127.536 328.727 126.551 329.038 125.778 329.659C125.006 330.28 124.434 331.095 124.062 332.102C123.691 333.11 123.506 334.197 123.506 335.364C123.506 336.53 123.691 337.614 124.062 338.614C124.434 339.614 125.006 340.42 125.778 341.034C126.551 341.648 127.536 341.955 128.733 341.955Z" fill="white"/>
<path d="M149 360H7V364H149V360Z" fill="#F2A71B" mask="url(#path-55-inside-5_10_200)"/>
<path d="M149 360H7V364H149V360Z" fill="black" fill-opacity="0.2" mask="url(#path-55-inside-5_10_200)"/>
</g>
<defs>
<filter id="filter0_d_10_200" x="3" y="214" width="352" height="67" filterUnits="userSpaceOnUse" color-interpolation-filters="sRGB">
<feFlood flood-opacity="0" result="BackgroundImageFix"/>
<feColorMatrix in="SourceAlpha" type="matrix" values="0 0 0 0 0 0 0 0 0 0 0 0 0 0 0 0 0 0 127 0" result="hardAlpha"/>
<feOffset dy="4"/>
<feGaussianBlur stdDeviation="2"/>
<feComposite in2="hardAlpha" operator="out"/>
<feColorMatrix type="matrix" values="0 0 0 0 0 0 0 0 0 0 0 0 0 0 0 0 0 0 0.25 0"/>
<feBlend mode="normal" in2="BackgroundImageFix" result="effect1_dropShadow_10_200"/>
<feBlend mode="normal" in="SourceGraphic" in2="effect1_dropShadow_10_200" result="shape"/>
</filter>
<clipPath id="clip0_10_200">
<rect width="1920" height="1080" fill="white"/>
</clipPath>
</defs>
</svg>
