<svg width="1920" height="1080" viewBox="0 0 1920 1080" fill="none" xmlns="http://www.w3.org/2000/svg">
<g clip-path="url(#clip0_3_2)">
<rect x="610" y="90" width="700" height="900" rx="30" fill="#011F26"/>
<rect x="610" y="90" width="700" height="900" rx="30" fill="black" fill-opacity="0.2"/>
<rect x="637" y="135" width="646" height="116" rx="18" fill="#A5A692"/>
<rect x="637" y="135" width="646" height="116" rx="18" fill="black" fill-opacity="0.2"/>
<rect x="637" y="135" width="646" height="116" rx="18" stroke="#A5A692" stroke-width="4"/>
<rect x="637" y="135" width="646" height="116" rx="18" stroke="black" stroke-opacity="0.2" stroke-width="4"/>
<rect x="658" y="562" width="100" height="100" rx="15" fill="#BFB78F"/>
<rect x="658" y="562" width="100" height="100" rx="15" fill="black" fill-opacity="0.2"/>
<path d="M722.273 577.182V647H713.818V586.045H713.409L696.364 597.364V588.773L713.818 577.182H722.273Z" fill="white"/>
<rect x="818" y="562" width="100" height="100" rx="15" fill="#BFB78F"/>
<rect x="818" y="562" width="100" height="100" rx="15" fill="black" fill-opacity="0.2"/>
<path d="M850.727 647V640.864L873.773 615.636C876.477 612.682 878.705 610.114 880.455 607.932C882.205 605.727 883.5 603.659 884.341 601.727C885.205 599.773 885.636 597.727 885.636 595.591C885.636 593.136 885.045 591.011 883.864 589.216C882.705 587.42 881.114 586.034 879.091 585.057C877.068 584.08 874.795 583.591 872.273 583.591C869.591 583.591 867.25 584.148 865.25 585.261C863.273 586.352 861.739 587.886 860.648 589.864C859.58 591.841 859.045 594.159 859.045 596.818H851C851 592.727 851.943 589.136 853.83 586.045C855.716 582.955 858.284 580.545 861.534 578.818C864.807 577.091 868.477 576.227 872.545 576.227C876.636 576.227 880.261 577.091 883.42 578.818C886.58 580.545 889.057 582.875 890.852 585.807C892.648 588.739 893.545 592 893.545 595.591C893.545 598.159 893.08 600.67 892.148 603.125C891.239 605.557 889.648 608.273 887.375 611.273C885.125 614.25 882 617.886 878 622.182L862.318 638.955V639.5H894.773V647H850.727Z" fill="white"/>
<rect x="978" y="562" width="100" height="100" rx="15" fill="#BFB78F"/>
<rect x="978" y="562" width="100" height="100" rx="15" fill="black" fill-opacity="0.2"/>
<path d="M1032.82 647.955C1028.32 647.955 1024.31 647.182 1020.78 645.636C1017.28 644.091 1014.5 641.943 1012.43 639.193C1010.39 636.42 1009.27 633.205 1009.09 629.545H1017.68C1017.86 631.795 1018.64 633.739 1020 635.375C1021.36 636.989 1023.15 638.239 1025.35 639.125C1027.56 640.011 1030 640.455 1032.68 640.455C1035.68 640.455 1038.34 639.932 1040.66 638.886C1042.98 637.841 1044.8 636.386 1046.11 634.523C1047.43 632.659 1048.09 630.5 1048.09 628.045C1048.09 625.477 1047.45 623.216 1046.18 621.261C1044.91 619.284 1043.05 617.739 1040.59 616.625C1038.14 615.511 1035.14 614.955 1031.59 614.955H1026V607.455H1031.59C1034.36 607.455 1036.8 606.955 1038.89 605.955C1041 604.955 1042.65 603.545 1043.83 601.727C1045.03 599.909 1045.64 597.773 1045.64 595.318C1045.64 592.955 1045.11 590.898 1044.07 589.148C1043.02 587.398 1041.55 586.034 1039.64 585.057C1037.75 584.08 1035.52 583.591 1032.95 583.591C1030.55 583.591 1028.27 584.034 1026.14 584.92C1024.02 585.784 1022.3 587.045 1020.95 588.705C1019.61 590.341 1018.89 592.318 1018.77 594.636H1010.59C1010.73 590.977 1011.83 587.773 1013.9 585.023C1015.97 582.25 1018.67 580.091 1022.01 578.545C1025.38 577 1029.07 576.227 1033.09 576.227C1037.41 576.227 1041.11 577.102 1044.2 578.852C1047.3 580.58 1049.67 582.864 1051.33 585.705C1052.99 588.545 1053.82 591.614 1053.82 594.909C1053.82 598.841 1052.78 602.193 1050.72 604.966C1048.67 607.739 1045.89 609.659 1042.36 610.727V611.273C1046.77 612 1050.22 613.875 1052.69 616.898C1055.17 619.898 1056.41 623.614 1056.41 628.045C1056.41 631.841 1055.38 635.25 1053.31 638.273C1051.26 641.273 1048.47 643.636 1044.92 645.364C1041.38 647.091 1037.34 647.955 1032.82 647.955Z" fill="white"/>
<rect x="1138" y="562" width="100" height="100" rx="15" fill="#BFB78F"/>
<rect x="1138" y="562" width="100" height="100" rx="15" fill="black" fill-opacity="0.2"/>
<path d="M1167.59 632.682V625.727L1198.27 577.182H1203.32V587.955H1199.91L1176.73 624.636V625.182H1218.05V632.682H1167.59ZM1200.45 647V630.568V627.33V577.182H1208.5V647H1200.45Z" fill="white"/>
<rect x="658" y="842" width="100" height="100" rx="15" fill="#BFB78F"/>
<rect x="658" y="842" width="100" height="100" rx="15" fill="black" fill-opacity="0.2"/>
<path d="M712.455 856.227C715.318 856.25 718.182 856.795 721.045 857.864C723.909 858.932 726.523 860.705 728.886 863.182C731.25 865.636 733.148 868.989 734.58 873.239C736.011 877.489 736.727 882.818 736.727 889.227C736.727 895.432 736.136 900.943 734.955 905.761C733.795 910.557 732.114 914.602 729.909 917.898C727.727 921.193 725.068 923.693 721.932 925.398C718.818 927.102 715.295 927.955 711.364 927.955C707.455 927.955 703.966 927.182 700.898 925.636C697.852 924.068 695.352 921.898 693.398 919.125C691.466 916.33 690.227 913.091 689.682 909.409H698C698.75 912.614 700.239 915.261 702.466 917.352C704.716 919.42 707.682 920.455 711.364 920.455C716.75 920.455 721 918.102 724.114 913.398C727.25 908.693 728.818 902.045 728.818 893.455H728.273C727 895.364 725.489 897.011 723.739 898.398C721.989 899.784 720.045 900.852 717.909 901.602C715.773 902.352 713.5 902.727 711.091 902.727C707.091 902.727 703.42 901.739 700.08 899.761C696.761 897.761 694.102 895.023 692.102 891.545C690.125 888.045 689.136 884.045 689.136 879.545C689.136 875.273 690.091 871.364 692 867.818C693.932 864.25 696.636 861.409 700.114 859.295C703.614 857.182 707.727 856.159 712.455 856.227ZM712.455 863.727C709.591 863.727 707.011 864.443 704.716 865.875C702.443 867.284 700.636 869.193 699.295 871.602C697.977 873.989 697.318 876.636 697.318 879.545C697.318 882.455 697.955 885.102 699.227 887.489C700.523 889.852 702.284 891.739 704.511 893.148C706.761 894.534 709.318 895.227 712.182 895.227C714.341 895.227 716.352 894.807 718.216 893.966C720.08 893.102 721.705 891.932 723.091 890.455C724.5 888.955 725.602 887.261 726.398 885.375C727.193 883.466 727.591 881.477 727.591 879.409C727.591 876.682 726.932 874.125 725.614 871.739C724.318 869.352 722.523 867.42 720.227 865.943C717.955 864.466 715.364 863.727 712.455 863.727Z" fill="white"/>
<rect x="818" y="842" width="100" height="100" rx="15" fill="#BFB78F"/>
<rect x="818" y="842" width="100" height="100" rx="15" fill="black" fill-opacity="0.2"/>
<path d="M873 927.955C867.864 927.955 863.489 926.557 859.875 923.761C856.261 920.943 853.5 916.864 851.591 911.523C849.682 906.159 848.727 899.682 848.727 892.091C848.727 884.545 849.682 878.102 851.591 872.761C853.523 867.398 856.295 863.307 859.909 860.489C863.545 857.648 867.909 856.227 873 856.227C878.091 856.227 882.443 857.648 886.057 860.489C889.693 863.307 892.466 867.398 894.375 872.761C896.307 878.102 897.273 884.545 897.273 892.091C897.273 899.682 896.318 906.159 894.409 911.523C892.5 916.864 889.739 920.943 886.125 923.761C882.511 926.557 878.136 927.955 873 927.955ZM873 920.455C878.091 920.455 882.045 918 884.864 913.091C887.682 908.182 889.091 901.182 889.091 892.091C889.091 886.045 888.443 880.898 887.148 876.648C885.875 872.398 884.034 869.159 881.625 866.932C879.239 864.705 876.364 863.591 873 863.591C867.955 863.591 864.011 866.08 861.17 871.057C858.33 876.011 856.909 883.023 856.909 892.091C856.909 898.136 857.545 903.273 858.818 907.5C860.091 911.727 861.92 914.943 864.307 917.148C866.716 919.352 869.614 920.455 873 920.455Z" fill="white"/>
<rect x="978" y="834" width="100" height="100" rx="15" fill="#BFB78F"/>
<rect x="978" y="834" width="100" height="100" rx="15" fill="black" fill-opacity="0.2"/>
<path d="M1033.01 919.545C1031.33 919.545 1029.88 918.943 1028.68 917.739C1027.47 916.534 1026.87 915.091 1026.87 913.409C1026.87 911.727 1027.47 910.284 1028.68 909.08C1029.88 907.875 1031.33 907.273 1033.01 907.273C1034.69 907.273 1036.13 907.875 1037.34 909.08C1038.54 910.284 1039.14 911.727 1039.14 913.409C1039.14 914.523 1038.86 915.545 1038.29 916.477C1037.75 917.409 1037.01 918.159 1036.08 918.727C1035.17 919.273 1034.14 919.545 1033.01 919.545Z" fill="white"/>
<rect x="658" y="700" width="100" height="100" rx="15" fill="#BFB78F"/>
<rect x="658" y="700" width="100" height="100" rx="15" fill="black" fill-opacity="0.2"/>
<path d="M712.545 785.955C708.545 785.955 704.943 785.159 701.739 783.568C698.534 781.977 695.966 779.795 694.034 777.023C692.102 774.25 691.045 771.091 690.864 767.545H699.045C699.364 770.705 700.795 773.318 703.341 775.386C705.909 777.432 708.977 778.455 712.545 778.455C715.409 778.455 717.955 777.784 720.182 776.443C722.432 775.102 724.193 773.261 725.466 770.92C726.761 768.557 727.409 765.886 727.409 762.909C727.409 759.864 726.739 757.148 725.398 754.761C724.08 752.352 722.261 750.455 719.943 749.068C717.625 747.682 714.977 746.977 712 746.955C709.864 746.932 707.67 747.261 705.42 747.943C703.17 748.602 701.318 749.455 699.864 750.5L691.955 749.545L696.182 715.182H732.455V722.682H703.273L700.818 743.273H701.227C702.659 742.136 704.455 741.193 706.614 740.443C708.773 739.693 711.023 739.318 713.364 739.318C717.636 739.318 721.443 740.341 724.784 742.386C728.148 744.409 730.784 747.182 732.693 750.705C734.625 754.227 735.591 758.25 735.591 762.773C735.591 767.227 734.591 771.205 732.591 774.705C730.614 778.182 727.886 780.932 724.409 782.955C720.932 784.955 716.977 785.955 712.545 785.955Z" fill="white"/>
<rect x="818" y="700" width="100" height="100" rx="15" fill="#BFB78F"/>
<rect x="818" y="700" width="100" height="100" rx="15" fill="black" fill-opacity="0.2"/>
<path d="M873.409 785.955C870.545 785.909 867.682 785.364 864.818 784.318C861.955 783.273 859.341 781.511 856.977 779.034C854.614 776.534 852.716 773.159 851.284 768.909C849.852 764.636 849.136 759.273 849.136 752.818C849.136 746.636 849.716 741.159 850.875 736.386C852.034 731.591 853.716 727.557 855.92 724.284C858.125 720.989 860.784 718.489 863.898 716.784C867.034 715.08 870.568 714.227 874.5 714.227C878.409 714.227 881.886 715.011 884.932 716.58C888 718.125 890.5 720.284 892.432 723.057C894.364 725.83 895.614 729.023 896.182 732.636H887.864C887.091 729.5 885.591 726.898 883.364 724.83C881.136 722.761 878.182 721.727 874.5 721.727C869.091 721.727 864.83 724.08 861.716 728.784C858.625 733.489 857.068 740.091 857.045 748.591H857.591C858.864 746.659 860.375 745.011 862.125 743.648C863.898 742.261 865.852 741.193 867.989 740.443C870.125 739.693 872.386 739.318 874.773 739.318C878.773 739.318 882.432 740.318 885.75 742.318C889.068 744.295 891.727 747.034 893.727 750.534C895.727 754.011 896.727 758 896.727 762.5C896.727 766.818 895.761 770.773 893.83 774.364C891.898 777.932 889.182 780.773 885.682 782.886C882.205 784.977 878.114 786 873.409 785.955ZM873.409 778.455C876.273 778.455 878.841 777.739 881.114 776.307C883.409 774.875 885.216 772.955 886.534 770.545C887.875 768.136 888.545 765.455 888.545 762.5C888.545 759.614 887.898 756.989 886.602 754.625C885.33 752.239 883.568 750.341 881.318 748.932C879.091 747.523 876.545 746.818 873.682 746.818C871.523 746.818 869.511 747.25 867.648 748.114C865.784 748.955 864.148 750.114 862.739 751.591C861.352 753.068 860.261 754.761 859.466 756.67C858.67 758.557 858.273 760.545 858.273 762.636C858.273 765.409 858.92 768 860.216 770.409C861.534 772.818 863.33 774.761 865.602 776.239C867.898 777.716 870.5 778.455 873.409 778.455Z" fill="white"/>
<rect x="978" y="700" width="100" height="100" rx="15" fill="#BFB78F"/>
<rect x="978" y="700" width="100" height="100" rx="15" fill="black" fill-opacity="0.2"/>
<path d="M1014.91 785L1046.14 723.227V722.682H1010.14V715.182H1054.86V723.091L1023.77 785H1014.91Z" fill="white"/>
<rect x="1138" y="700" width="100" height="100" rx="15" fill="#BFB78F"/>
<rect x="1138" y="700" width="100" height="100" rx="15" fill="black" fill-opacity="0.2"/>
<path d="M1192.59 785.955C1187.91 785.955 1183.77 785.125 1180.18 783.466C1176.61 781.784 1173.83 779.477 1171.83 776.545C1169.83 773.591 1168.84 770.227 1168.86 766.455C1168.84 763.5 1169.42 760.773 1170.6 758.273C1171.78 755.75 1173.4 753.648 1175.44 751.966C1177.51 750.261 1179.82 749.182 1182.36 748.727V748.318C1179.02 747.455 1176.36 745.58 1174.39 742.693C1172.41 739.784 1171.43 736.477 1171.45 732.773C1171.43 729.227 1172.33 726.057 1174.15 723.261C1175.97 720.466 1178.47 718.261 1181.65 716.648C1184.85 715.034 1188.5 714.227 1192.59 714.227C1196.64 714.227 1200.25 715.034 1203.43 716.648C1206.61 718.261 1209.11 720.466 1210.93 723.261C1212.77 726.057 1213.7 729.227 1213.73 732.773C1213.7 736.477 1212.69 739.784 1210.69 742.693C1208.72 745.58 1206.09 747.455 1202.82 748.318V748.727C1205.34 749.182 1207.61 750.261 1209.64 751.966C1211.66 753.648 1213.27 755.75 1214.48 758.273C1215.68 760.773 1216.3 763.5 1216.32 766.455C1216.3 770.227 1215.27 773.591 1213.25 776.545C1211.25 779.477 1208.47 781.784 1204.9 783.466C1201.35 785.125 1197.25 785.955 1192.59 785.955ZM1192.59 778.455C1195.75 778.455 1198.48 777.943 1200.77 776.92C1203.07 775.898 1204.84 774.455 1206.09 772.591C1207.34 770.727 1207.98 768.545 1208 766.045C1207.98 763.409 1207.3 761.08 1205.95 759.057C1204.61 757.034 1202.78 755.443 1200.47 754.284C1198.17 753.125 1195.55 752.545 1192.59 752.545C1189.61 752.545 1186.95 753.125 1184.61 754.284C1182.3 755.443 1180.47 757.034 1179.12 759.057C1177.81 761.08 1177.16 763.409 1177.18 766.045C1177.16 768.545 1177.76 770.727 1178.99 772.591C1180.24 774.455 1182.02 775.898 1184.34 776.92C1186.66 777.943 1189.41 778.455 1192.59 778.455ZM1192.59 745.318C1195.09 745.318 1197.31 744.818 1199.24 743.818C1201.19 742.818 1202.73 741.42 1203.84 739.625C1204.95 737.83 1205.52 735.727 1205.55 733.318C1205.52 730.955 1204.97 728.898 1203.88 727.148C1202.78 725.375 1201.27 724.011 1199.34 723.057C1197.41 722.08 1195.16 721.591 1192.59 721.591C1189.98 721.591 1187.69 722.08 1185.74 723.057C1183.78 724.011 1182.27 725.375 1181.2 727.148C1180.14 728.898 1179.61 730.955 1179.64 733.318C1179.61 735.727 1180.15 737.83 1181.24 739.625C1182.35 741.42 1183.89 742.818 1185.84 743.818C1187.8 744.818 1190.05 745.318 1192.59 745.318Z" fill="white"/>
<rect x="1113" y="834" width="125" height="100" rx="15" fill="#F2A71B"/>
<rect x="1113" y="834" width="125" height="100" rx="15" fill="black" fill-opacity="0.2"/>
<path d="M1159.14 875.818V868.455H1201.14V875.818H1159.14ZM1159.14 896V888.636H1201.14V896H1159.14Z" fill="white"/>
<rect x="656" y="296" width="160" height="100" rx="15" fill="#F2A71B"/>
<rect x="656" y="296" width="160" height="100" rx="15" fill="black" fill-opacity="0.2"/>
<path d="M730.636 333H722.182C721.682 330.568 720.807 328.432 719.557 326.591C718.33 324.75 716.83 323.205 715.057 321.955C713.307 320.682 711.364 319.727 709.227 319.091C707.091 318.455 704.864 318.136 702.545 318.136C698.318 318.136 694.489 319.205 691.057 321.341C687.648 323.477 684.932 326.625 682.909 330.784C680.909 334.943 679.909 340.045 679.909 346.091C679.909 352.136 680.909 357.239 682.909 361.398C684.932 365.557 687.648 368.705 691.057 370.841C694.489 372.977 698.318 374.045 702.545 374.045C704.864 374.045 707.091 373.727 709.227 373.091C711.364 372.455 713.307 371.511 715.057 370.261C716.83 368.989 718.33 367.432 719.557 365.591C720.807 363.727 721.682 361.591 722.182 359.182H730.636C730 362.75 728.841 365.943 727.159 368.761C725.477 371.58 723.386 373.977 720.886 375.955C718.386 377.909 715.58 379.398 712.466 380.42C709.375 381.443 706.068 381.955 702.545 381.955C696.591 381.955 691.295 380.5 686.659 377.591C682.023 374.682 678.375 370.545 675.716 365.182C673.057 359.818 671.727 353.455 671.727 346.091C671.727 338.727 673.057 332.364 675.716 327C678.375 321.636 682.023 317.5 686.659 314.591C691.295 311.682 696.591 310.227 702.545 310.227C706.068 310.227 709.375 310.739 712.466 311.761C715.58 312.784 718.386 314.284 720.886 316.261C723.386 318.216 725.477 320.602 727.159 323.42C728.841 326.216 730 329.409 730.636 333ZM800.48 333H792.026C791.526 330.568 790.651 328.432 789.401 326.591C788.173 324.75 786.673 323.205 784.901 321.955C783.151 320.682 781.207 319.727 779.071 319.091C776.935 318.455 774.707 318.136 772.389 318.136C768.162 318.136 764.332 319.205 760.901 321.341C757.491 323.477 754.776 326.625 752.753 330.784C750.753 334.943 749.753 340.045 749.753 346.091C749.753 352.136 750.753 357.239 752.753 361.398C754.776 365.557 757.491 368.705 760.901 370.841C764.332 372.977 768.162 374.045 772.389 374.045C774.707 374.045 776.935 373.727 779.071 373.091C781.207 372.455 783.151 371.511 784.901 370.261C786.673 368.989 788.173 367.432 789.401 365.591C790.651 363.727 791.526 361.591 792.026 359.182H800.48C799.844 362.75 798.685 365.943 797.003 368.761C795.321 371.58 793.23 373.977 790.73 375.955C788.23 377.909 785.423 379.398 782.31 380.42C779.219 381.443 775.912 381.955 772.389 381.955C766.435 381.955 761.139 380.5 756.503 377.591C751.866 374.682 748.219 370.545 745.56 365.182C742.901 359.818 741.571 353.455 741.571 346.091C741.571 338.727 742.901 332.364 745.56 327C748.219 321.636 751.866 317.5 756.503 314.591C761.139 311.682 766.435 310.227 772.389 310.227C775.912 310.227 779.219 310.739 782.31 311.761C785.423 312.784 788.23 314.284 790.73 316.261C793.23 318.216 795.321 320.602 797.003 323.42C798.685 326.216 799.844 329.409 800.48 333Z" fill="white"/>
<rect x="658" y="424" width="100" height="100" rx="15" fill="#F2A71B"/>
<rect x="658" y="424" width="100" height="100" rx="15" fill="black" fill-opacity="0.2"/>
<path d="M722.545 435.909L700.045 519.5H692.682L715.182 435.909H722.545Z" fill="white"/>
<rect x="818" y="424" width="100" height="100" rx="15" fill="#F2A71B"/>
<rect x="818" y="424" width="100" height="100" rx="15" fill="black" fill-opacity="0.2"/>
<path d="M855.364 456.636L867.909 478.045L880.455 456.636H889.727L872.818 482.818L889.727 509H880.455L867.909 488.682L855.364 509H846.091L862.727 482.818L846.091 456.636H855.364Z" fill="white"/>
<rect x="978" y="424" width="100" height="100" rx="15" fill="#F2A71B"/>
<rect x="978" y="424" width="100" height="100" rx="15" fill="black" fill-opacity="0.2"/>
<path d="M1042.86 475.318V482.818H1012.32V475.318H1042.86Z" fill="white"/>
<rect x="1138" y="424" width="100" height="100" rx="15" fill="#F2A71B"/>
<rect x="1138" y="424" width="100" height="100" rx="15" fill="black" fill-opacity="0.2"/>
<path d="M1183.82 504.227V459.227H1191.45V504.227H1183.82ZM1165.14 485.545V477.909H1210.14V485.545H1165.14Z" fill="white"/>
<path d="M694.773 160.182V230H686.318V169.045H685.909L668.864 180.364V171.773L686.318 160.182H694.773ZM854.991 160.182V230H846.537V169.045H846.128L829.082 180.364V171.773L846.537 160.182H854.991ZM989.898 160.182V230H981.443V169.045H981.034L963.989 180.364V171.773L981.443 160.182H989.898Z" fill="white"/>
<path d="M747.17 160.182L765.17 189.227H765.716L783.716 160.182H793.67L771.716 195.091L793.67 230H783.716L765.716 201.5H765.17L747.17 230H737.216L759.716 195.091L737.216 160.182H747.17ZM905.48 196.318V188.955H947.48V196.318H905.48ZM905.48 216.5V209.136H947.48V216.5H905.48Z" fill="#F2A71B"/>
<path d="M747.17 160.182L765.17 189.227H765.716L783.716 160.182H793.67L771.716 195.091L793.67 230H783.716L765.716 201.5H765.17L747.17 230H737.216L759.716 195.091L737.216 160.182H747.17ZM905.48 196.318V188.955H947.48V196.318H905.48ZM905.48 216.5V209.136H947.48V216.5H905.48Z" fill="black" fill-opacity="0.2"/>
<path d="M0 -6H400V114C400 147.137 373.137 174 340 174H0V-6Z" fill="#011F26"/>
<path d="M0 -6H400V114C400 147.137 373.137 174 340 174H0V-6Z" fill="black" fill-opacity="0.2"/>
<mask id="path-39-inside-1_3_2" fill="white">
<path d="M22 9H97V84H22V9Z"/>
</mask>
<path d="M22 9H97V84H22V9Z" fill="#BFB78F"/>
<path d="M22 9H97V84H22V9Z" fill="black" fill-opacity="0.2"/>
<path d="M55.3182 76.7273V31.7273H62.9545V76.7273H55.3182ZM36.6364 58.0455V50.4091H81.6364V58.0455H36.6364Z" fill="white"/>
<path d="M22 9V8H21V9H22ZM22 84H21V85H22V84ZM22 10H97V8H22V10ZM97 83H22V85H97V83ZM23 84V9H21V84H23Z" fill="#011F26" mask="url(#path-39-inside-1_3_2)"/>
<path d="M22 9V8H21V9H22ZM22 84H21V85H22V84ZM22 10H97V8H22V10ZM97 83H22V85H97V83ZM23 84V9H21V84H23Z" fill="black" fill-opacity="0.2" mask="url(#path-39-inside-1_3_2)"/>
<mask id="path-42-inside-2_3_2" fill="white">
<path d="M22 84H97V159H52C35.4315 159 22 145.569 22 129V84Z"/>
</mask>
<path d="M22 84H97V159H52C35.4315 159 22 145.569 22 129V84Z" fill="#BFB78F"/>
<path d="M22 84H97V159H52C35.4315 159 22 145.569 22 129V84Z" fill="black" fill-opacity="0.2"/>
<path d="M52.9545 110.091L59.3636 122.295L65.9318 110.091H75.8636L65.75 127.545L76.1364 145H66.25L59.3636 132.932L52.5909 145H42.5909L52.9545 127.545L42.9545 110.091H52.9545Z" fill="white"/>
<path d="M22 84H97H22ZM97 160H52C34.8792 160 21 146.121 21 129H23C23 145.016 35.9837 158 52 158H97V160ZM52 160C34.8792 160 21 146.121 21 129V84H23V129C23 145.016 35.9837 158 52 158V160ZM97 84V159V84Z" fill="#011F26" mask="url(#path-42-inside-2_3_2)"/>
<path d="M22 84H97H22ZM97 160H52C34.8792 160 21 146.121 21 129H23C23 145.016 35.9837 158 52 158H97V160ZM52 160C34.8792 160 21 146.121 21 129V84H23V129C23 145.016 35.9837 158 52 158V160ZM97 84V159V84Z" fill="black" fill-opacity="0.2" mask="url(#path-42-inside-2_3_2)"/>
<mask id="path-45-inside-3_3_2" fill="white">
<path d="M97 83.1667H172V128.167C172 144.735 158.569 158.167 142 158.167H97V83.1667Z"/>
</mask>
<path d="M97 83.1667H172V128.167C172 144.735 158.569 158.167 142 158.167H97V83.1667Z" fill="#F2A71B"/>
<path d="M97 83.1667H172V128.167C172 144.735 158.569 158.167 142 158.167H97V83.1667Z" fill="black" fill-opacity="0.2"/>
<path d="M113.136 121.985V114.621H155.136V121.985H113.136ZM113.136 142.167V134.803H155.136V142.167H113.136Z" fill="white"/>
<path d="M97 83.1667H172H97ZM173 128.167C173 145.287 159.121 159.167 142 159.167H96L98 157.167H142C158.016 157.167 171 144.183 171 128.167H173ZM96 159.167V83.1667H98V157.167L96 159.167ZM173 83.1667V128.167C173 145.287 159.121 159.167 142 159.167V157.167C158.016 157.167 171 144.183 171 128.167V83.1667H173Z" fill="#011F26" mask="url(#path-45-inside-3_3_2)"/>
<path d="M97 83.1667H172H97ZM173 128.167C173 145.287 159.121 159.167 142 159.167H96L98 157.167H142C158.016 157.167 171 144.183 171 128.167H173ZM96 159.167V83.1667H98V157.167L96 159.167ZM173 83.1667V128.167C173 145.287 159.121 159.167 142 159.167V157.167C158.016 157.167 171 144.183 171 128.167V83.1667H173Z" fill="black" fill-opacity="0.2" mask="url(#path-45-inside-3_3_2)"/>
<path d="M97.5 9.5H142C158.292 9.5 171.5 22.7076 171.5 39V83.5H97.5V9.5Z" fill="#BFB78F"/>
<path d="M97.5 9.5H142C158.292 9.5 171.5 22.7076 171.5 39V83.5H97.5V9.5Z" fill="black" fill-opacity="0.2"/>
<path d="M149.364 47.8182V55.3182H118.818V47.8182H149.364Z" fill="white"/>
<path d="M97.5 9.5H142C158.292 9.5 171.5 22.7076 171.5 39V83.5H97.5V9.5Z" stroke="#011F26"/>
<path d="M97.5 9.5H142C158.292 9.5 171.5 22.7076 171.5 39V83.5H97.5V9.5Z" stroke="black" stroke-opacity="0.2"/>
<rect x="226.5" y="46.5" width="99" height="14" fill="#D9D9D9"/>
<rect x="226.5" y="46.5" width="99" height="14" stroke="#F2A71B"/>
<rect x="226.5" y="46.5" width="99" height="14" stroke="black" stroke-opacity="0.2"/>
<rect x="226.5" y="76.5" width="99" height="14" fill="#D9D9D9"/>
<rect x="226.5" y="76.5" width="99" height="14" stroke="#F2A71B"/>
<rect x="226.5" y="76.5" width="99" height="14" stroke="black" stroke-opacity="0.2"/>
<rect x="226.5" y="106.5" width="99" height="14" fill="#D9D9D9"/>
<rect x="226.5" y="106.5" width="99" height="14" stroke="#F2A71B"/>
<rect x="226.5" y="106.5" width="99" height="14" stroke="black" stroke-opacity="0.2"/>
</g>
<defs>
<clipPath id="clip0_3_2">
<rect width="1920" height="1080" fill="white"/>
</clipPath>
</defs>
</svg>
