<svg width="150" height="150" viewBox="0 0 150 150" fill="none" xmlns="http://www.w3.org/2000/svg">
<mask id="path-1-inside-1_10_110" fill="white">
<path d="M0 0H75V75H0V0Z"/>
</mask>
<path d="M0 0H75V75H0V0Z" fill="#BFB78F"/>
<path d="M0 0H75V75H0V0Z" fill="black" fill-opacity="0.2"/>
<path d="M33.3182 67.7273V22.7273H40.9545V67.7273H33.3182ZM14.6364 49.0455V41.4091H59.6364V49.0455H14.6364Z" fill="white"/>
<path d="M0 0V-1H-1V0H0ZM0 75H-1V76H0V75ZM0 1H75V-1H0V1ZM75 74H0V76H75V74ZM1 75V0H-1V75H1Z" fill="#011F26" mask="url(#path-1-inside-1_10_110)"/>
<path d="M0 0V-1H-1V0H0ZM0 75H-1V76H0V75ZM0 1H75V-1H0V1ZM75 74H0V76H75V74ZM1 75V0H-1V75H1Z" fill="black" fill-opacity="0.2" mask="url(#path-1-inside-1_10_110)"/>
<mask id="path-4-inside-2_10_110" fill="white">
<path d="M0 75H75V150H30C13.4315 150 0 136.569 0 120V75Z"/>
</mask>
<path d="M0 75H75V150H30C13.4315 150 0 136.569 0 120V75Z" fill="#BFB78F"/>
<path d="M0 75H75V150H30C13.4315 150 0 136.569 0 120V75Z" fill="black" fill-opacity="0.2"/>
<path d="M30.9545 101.091L37.3636 113.295L43.9318 101.091H53.8636L43.75 118.545L54.1364 136H44.25L37.3636 123.932L30.5909 136H20.5909L30.9545 118.545L20.9545 101.091H30.9545Z" fill="white"/>
<path d="M0 75H75H0ZM75 151H30C12.8792 151 -1 137.121 -1 120H1C1 136.016 13.9837 149 30 149H75V151ZM30 151C12.8792 151 -1 137.121 -1 120V75H1V120C1 136.016 13.9837 149 30 149V151ZM75 75V150V75Z" fill="#011F26" mask="url(#path-4-inside-2_10_110)"/>
<path d="M0 75H75H0ZM75 151H30C12.8792 151 -1 137.121 -1 120H1C1 136.016 13.9837 149 30 149H75V151ZM30 151C12.8792 151 -1 137.121 -1 120V75H1V120C1 136.016 13.9837 149 30 149V151ZM75 75V150V75Z" fill="black" fill-opacity="0.2" mask="url(#path-4-inside-2_10_110)"/>
<mask id="path-7-inside-3_10_110" fill="white">
<path d="M75 74.1667H150V119.167C150 135.735 136.569 149.167 120 149.167H75V74.1667Z"/>
</mask>
<path d="M75 74.1667H150V119.167C150 135.735 136.569 149.167 120 149.167H75V74.1667Z" fill="#F2A71B"/>
<path d="M75 74.1667H150V119.167C150 135.735 136.569 149.167 120 149.167H75V74.1667Z" fill="black" fill-opacity="0.2"/>
<path d="M91.1364 112.985V105.621H133.136V112.985H91.1364ZM91.1364 133.167V125.803H133.136V133.167H91.1364Z" fill="white"/>
<path d="M75 74.1667H150H75ZM151 119.167C151 136.287 137.121 150.167 120 150.167H74L76 148.167H120C136.016 148.167 149 135.183 149 119.167H151ZM74 150.167V74.1667H76V148.167L74 150.167ZM151 74.1667V119.167C151 136.287 137.121 150.167 120 150.167V148.167C136.016 148.167 149 135.183 149 119.167V74.1667H151Z" fill="#011F26" mask="url(#path-7-inside-3_10_110)"/>
<path d="M75 74.1667H150H75ZM151 119.167C151 136.287 137.121 150.167 120 150.167H74L76 148.167H120C136.016 148.167 149 135.183 149 119.167H151ZM74 150.167V74.1667H76V148.167L74 150.167ZM151 74.1667V119.167C151 136.287 137.121 150.167 120 150.167V148.167C136.016 148.167 149 135.183 149 119.167V74.1667H151Z" fill="black" fill-opacity="0.2" mask="url(#path-7-inside-3_10_110)"/>
<path d="M75.5 0.5H120C136.292 0.5 149.5 13.7076 149.5 30V74.5H75.5V0.5Z" fill="#BFB78F"/>
<path d="M75.5 0.5H120C136.292 0.5 149.5 13.7076 149.5 30V74.5H75.5V0.5Z" fill="black" fill-opacity="0.2"/>
<path d="M127.364 38.8182V46.3182H96.8182V38.8182H127.364Z" fill="white"/>
<path d="M75.5 0.5H120C136.292 0.5 149.5 13.7076 149.5 30V74.5H75.5V0.5Z" stroke="#011F26"/>
<path d="M75.5 0.5H120C136.292 0.5 149.5 13.7076 149.5 30V74.5H75.5V0.5Z" stroke="black" stroke-opacity="0.2"/>
</svg>
