<svg width="100" height="100" viewBox="0 0 100 100" fill="none" xmlns="http://www.w3.org/2000/svg">
<g clip-path="url(#clip0_12_557)">
<path fill-rule="evenodd" clip-rule="evenodd" d="M91.6668 29.1667C91.6668 17.6625 82.3377 8.33333 70.8335 8.33333C58.1085 8.33333 41.8918 8.33333 29.1668 8.33333C17.6627 8.33333 8.3335 17.6625 8.3335 29.1667C8.3335 41.8917 8.3335 58.1083 8.3335 70.8333C8.3335 82.3375 17.6627 91.6667 29.1668 91.6667C41.8918 91.6667 58.1085 91.6667 70.8335 91.6667C82.3377 91.6667 91.6668 82.3375 91.6668 70.8333C91.6668 58.1083 91.6668 41.8917 91.6668 29.1667Z" fill="url(#paint0_radial_12_557)"/>
<path d="M62.3252 20.8542C71.0377 20.9375 79.0586 28.4167 79.1461 37.675C79.1752 45.8917 79.1752 54.1083 79.1461 62.325C79.0627 71.0042 71.5836 79.0583 62.3252 79.1458C54.1086 79.175 45.8919 79.175 37.6752 79.1458C28.9586 79.0625 20.9419 71.5833 20.8544 62.325C20.8252 54.1083 20.8252 45.8917 20.8544 37.675C20.9336 28.9542 28.3961 20.9417 37.6752 20.8542C45.8919 20.825 54.1086 20.825 62.3252 20.8542ZM37.7877 24.7917C31.0252 24.8125 24.8586 30.675 24.7919 37.7C24.7669 45.9 24.7669 54.1 24.7919 62.3C24.8544 68.9875 30.5752 75.1417 37.7002 75.2083C45.9002 75.2333 54.1002 75.2333 62.3002 75.2083C69.0044 75.1458 75.1419 69.425 75.2086 62.3C75.2336 54.1 75.2336 45.9 75.2086 37.7C75.1461 30.9667 69.3127 24.8583 62.3002 24.7917C54.1294 24.7667 45.9586 24.7917 37.7877 24.7917Z" fill="white"/>
<path d="M50.1001 35.4167C56.8418 35.4792 63.1251 40.6792 64.3585 47.3417C65.2376 52.0917 63.5793 57.2417 60.0793 60.5833C56.1835 64.2917 50.1543 65.6167 44.9876 63.725C39.2126 61.6125 35.1501 55.525 35.421 49.3583C35.7501 41.9917 42.2585 35.4417 50.0001 35.4167C50.0335 35.4167 50.0668 35.4167 50.1001 35.4167ZM49.9335 39.3625C45.121 39.4083 40.5835 43.0583 39.5835 47.8C38.571 52.5958 41.3293 57.9167 45.8585 59.8292C50.8043 61.9208 57.1918 59.575 59.5793 54.6917C62.0501 49.6458 59.721 42.7917 54.5043 40.3542C53.0835 39.6917 51.5043 39.3583 49.9335 39.3625Z" fill="white"/>
<path fill-rule="evenodd" clip-rule="evenodd" d="M68.75 34.2792C68.75 33.475 68.4292 32.7042 67.8625 32.1375C67.2958 31.5708 66.525 31.25 65.7208 31.25C65.6583 31.25 65.5917 31.25 65.5292 31.25C64.725 31.25 63.9542 31.5708 63.3875 32.1375C62.8208 32.7042 62.5 33.475 62.5 34.2792C62.5 34.3125 62.5 34.3417 62.5 34.375C62.5 35.2042 62.8292 36 63.4167 36.5833C64 37.1708 64.7958 37.5 65.625 37.5C67.35 37.5 68.75 36.1 68.75 34.375C68.75 34.3417 68.75 34.3125 68.75 34.2792Z" fill="white"/>
</g>
<defs>
<radialGradient id="paint0_radial_12_557" cx="0" cy="0" r="1" gradientUnits="userSpaceOnUse" gradientTransform="translate(8.3335 89.5833) scale(116.388)">
<stop stop-color="#FF8100"/>
<stop offset="0.19" stop-color="#FF7209"/>
<stop offset="0.32" stop-color="#F55E16"/>
<stop offset="0.48" stop-color="#D92938"/>
<stop offset="1" stop-color="#9100FF"/>
</radialGradient>
<clipPath id="clip0_12_557">
<rect width="100" height="100" fill="white"/>
</clipPath>
</defs>
</svg>
