<svg width="100" height="100" viewBox="0 0 100 100" fill="none" xmlns="http://www.w3.org/2000/svg">
<path d="M91.1328 3.77344H8.875C6.05748 3.77344 3.77344 6.05748 3.77344 8.875V91.1328C3.77344 93.9503 6.05748 96.2344 8.875 96.2344H91.1328C93.9503 96.2344 96.2344 93.9503 96.2344 91.1328V8.875C96.2344 6.05748 93.9503 3.77344 91.1328 3.77344Z" fill="#3D5A98"/>
<path d="M67.5625 96.2266V60.4219H79.5781L81.375 46.4688H67.5625V37.5625C67.5625 33.5234 68.6875 30.7656 74.4766 30.7656H81.8672V18.2656C78.2884 17.8926 74.6919 17.7153 71.0938 17.7344C60.4531 17.7344 53.125 24.2188 53.125 36.1797V46.4688H41.1094V60.4219H53.125V96.2266H67.5625Z" fill="white"/>
</svg>
