<svg width="100" height="100" viewBox="0 0 100 100" fill="none" xmlns="http://www.w3.org/2000/svg">
<g clip-path="url(#clip0_12_566)">
<path d="M99.9999 52.3262C100.006 51.5449 99.6014 50.8164 98.9354 50.4082H98.9237L98.8827 50.3848L64.2304 29.873C64.08 29.7715 63.9257 29.6797 63.7655 29.5957C62.4276 28.9063 60.8378 28.9063 59.4999 29.5957C59.3397 29.6797 59.1835 29.7715 59.035 29.873L24.3827 50.3828L24.3417 50.4062C23.2831 51.0645 22.9589 52.457 23.6171 53.5156C23.8104 53.8281 24.078 54.0879 24.3964 54.2734L59.0468 74.7852C59.1972 74.8848 59.3515 74.9785 59.5116 75.0625C60.8495 75.752 62.4393 75.752 63.7772 75.0625C63.9374 74.9785 64.0917 74.8867 64.2421 74.7852L98.8925 54.2734C99.5858 53.8711 100.008 53.127 99.9999 52.3262Z" fill="#0A2767"/>
<path d="M28.424 38.6309H51.1642V59.4746H28.424V38.6309ZM95.3498 17.4414V7.90625C95.4045 5.52148 93.5178 3.54492 91.133 3.48828H32.1232C29.7385 3.54492 27.8517 5.52344 27.9064 7.90625V17.4414L62.7892 26.7441L95.3498 17.4414Z" fill="#0364B8"/>
<path d="M27.9062 17.4414H51.1621V38.3711H27.9062V17.4414Z" fill="#0078D4"/>
<path d="M74.418 17.4414H51.1621V38.3711L74.418 59.3008H95.3477V38.373L74.418 17.4414Z" fill="#28A8EA"/>
<path d="M51.1621 38.373H74.418V59.3027H51.1621V38.373Z" fill="#0078D4"/>
<path d="M51.1621 59.3027H74.418V80.2324H51.1621V59.3027Z" fill="#0364B8"/>
<path d="M28.4238 59.4746H51.1641V78.4238H28.4238V59.4746Z" fill="#14447D"/>
<path d="M74.418 59.3027H95.3477V80.2324H74.418V59.3027Z" fill="#0078D4"/>
<path d="M98.9355 54.1465L98.8906 54.1699L64.2402 73.6582C64.0898 73.752 63.9355 73.8398 63.7754 73.918C63.1875 74.1973 62.5469 74.3574 61.8965 74.3828L60.0039 73.2754C59.8438 73.1953 59.6895 73.1055 59.5391 73.0078L24.4219 52.9668H24.4062L23.2578 52.3242V91.7773C23.2754 94.4102 25.4238 96.5293 28.0547 96.5117H95.2773C95.3164 96.5117 95.3516 96.4922 95.3945 96.4922C95.9512 96.457 96.498 96.3418 97.0215 96.1523C97.248 96.0566 97.4668 95.9434 97.6758 95.8125C97.832 95.7246 98.0996 95.5312 98.0996 95.5312C99.291 94.6504 99.9961 93.2578 100.002 91.7754V52.3262C100 53.0801 99.5918 53.7754 98.9355 54.1465Z" fill="url(#paint0_linear_12_566)"/>
<path opacity="0.5" d="M98.1387 52.1699V54.5879L61.9062 79.5352L24.3945 52.9844C24.3945 52.9707 24.3848 52.9609 24.3711 52.9609L20.9297 50.8906V49.1465L22.3477 49.123L25.3477 50.8438L25.418 50.8672L25.6738 51.0293C25.6738 51.0293 60.9297 71.1465 61.0234 71.1914L62.373 71.9824C62.4902 71.9355 62.6055 71.8887 62.7461 71.8438C62.8164 71.7969 97.7461 52.1465 97.7461 52.1465L98.1387 52.1699Z" fill="#0A2767"/>
<path d="M98.9355 54.1465L98.8906 54.1719L64.2402 73.6602C64.0898 73.7539 63.9355 73.8418 63.7754 73.9199C62.4297 74.5781 60.8555 74.5781 59.5098 73.9199C59.3496 73.8418 59.1953 73.7539 59.0449 73.6602L24.3945 54.1719L24.3535 54.1465C23.6836 53.7832 23.2656 53.0859 23.2578 52.3262V91.7773C23.2754 94.4082 25.4219 96.5293 28.0527 96.5117H95.207C97.8379 96.5293 99.9863 94.4082 100.002 91.7773V52.3262C100 53.0801 99.5918 53.7754 98.9355 54.1465Z" fill="#1490DF"/>
<path opacity="0.1" d="M64.7441 73.373L64.2246 73.6641C64.0742 73.7598 63.9199 73.8477 63.7598 73.9277C63.1875 74.209 62.5664 74.373 61.9316 74.4121L75.1152 90.0019L98.1133 95.543C98.7441 95.0664 99.2441 94.4414 99.5723 93.7227L64.7441 73.373Z" fill="black"/>
<path opacity="0.05" d="M67.0937 72.0508L64.2266 73.6621C64.0762 73.7578 63.9219 73.8457 63.7617 73.9258C63.1895 74.207 62.5684 74.3711 61.9336 74.4102L68.1094 91.4395L98.1211 95.5352C99.3027 94.6484 100 93.2559 100 91.7773V91.2676L67.0937 72.0508Z" fill="black"/>
<path d="M28.1172 96.5117H95.1992C96.2324 96.5176 97.2383 96.1914 98.0703 95.582L60 73.2813C59.8398 73.2012 59.6856 73.1113 59.5352 73.0137L24.418 52.9727H24.4023L23.2559 52.3262V91.6426C23.2539 94.3281 25.4297 96.5098 28.1172 96.5117Z" fill="#28A8EA"/>
<path opacity="0.1" d="M55.8144 26.3555V75.9609C55.8105 77.6992 54.7519 79.2637 53.1406 79.9141C52.6406 80.1289 52.1035 80.2402 51.5586 80.2402H23.2559V24.4199H27.9063V22.0938H51.5566C53.9082 22.1016 55.8086 24.0059 55.8144 26.3555Z" fill="black"/>
<path opacity="0.2" d="M53.4883 28.6816V78.2871C53.4941 78.8496 53.375 79.4043 53.1387 79.9141C52.4922 81.5059 50.9492 82.5508 49.2324 82.5586H23.2559V24.418H49.2324C49.9062 24.4121 50.5723 24.5801 51.1621 24.9062C52.5879 25.625 53.4883 27.0859 53.4883 28.6816Z" fill="black"/>
<path opacity="0.2" d="M53.4883 28.6816V73.6348C53.4766 75.9824 51.5801 77.8867 49.2324 77.9062H23.2559V24.418H49.2324C49.9062 24.4121 50.5723 24.5801 51.1621 24.9062C52.5879 25.625 53.4883 27.0859 53.4883 28.6816Z" fill="black"/>
<path opacity="0.2" d="M51.1621 28.6816V73.6348C51.1602 75.9863 49.2578 77.8945 46.9062 77.9062H23.2559V24.418H46.9062C49.2578 24.4199 51.1641 26.3262 51.1621 28.6777C51.1621 28.6797 51.1621 28.6797 51.1621 28.6816Z" fill="black"/>
<path d="M4.26367 24.418H46.9004C49.2539 24.418 51.1641 26.3262 51.1641 28.6816V71.3184C51.1641 73.6719 49.2559 75.582 46.9004 75.582H4.26367C1.9082 75.582 0 73.6719 0 71.3184V28.6816C0 26.3281 1.9082 24.418 4.26367 24.418Z" fill="url(#paint1_linear_12_566)"/>
<path d="M13.324 42.2969C14.3748 40.0586 16.0701 38.1856 18.1931 36.918C20.5447 35.5723 23.2224 34.9004 25.9294 34.9785C28.4392 34.9238 30.9158 35.5606 33.0896 36.8184C35.1326 38.0371 36.7791 39.8223 37.8259 41.957C38.9685 44.3106 39.5369 46.9004 39.4861 49.5156C39.5408 52.2481 38.9568 54.957 37.7771 57.4219C36.7048 59.6348 35.0056 61.4824 32.8943 62.7402C30.6365 64.0371 28.0681 64.6895 25.4666 64.6289C22.9021 64.6914 20.3709 64.0469 18.1482 62.7676C16.0877 61.5469 14.4216 59.7598 13.3474 57.6192C12.199 55.3008 11.6228 52.7383 11.6677 50.1524C11.6209 47.4434 12.1873 44.7578 13.324 42.2969ZM18.5134 54.9258C19.074 56.3418 20.0232 57.5684 21.2537 58.4649C22.5056 59.3399 24.0056 59.791 25.533 59.7539C27.1599 59.8184 28.7634 59.3516 30.1013 58.4238C31.3162 57.5293 32.24 56.2988 32.7615 54.8848C33.3455 53.3047 33.6326 51.6309 33.6111 49.9473C33.6287 48.2481 33.3591 46.5567 32.8103 44.9473C32.3259 43.4942 31.4314 42.2129 30.2341 41.2598C28.9294 40.2891 27.3318 39.7949 25.7068 39.8652C24.1462 39.8242 22.613 40.2793 21.3279 41.166C20.0779 42.0664 19.1091 43.3047 18.5369 44.7363C17.2673 48.0156 17.2595 51.6504 18.5173 54.9336L18.5134 54.9258Z" fill="white"/>
<path d="M74.418 17.4414H95.3477V38.3711H74.418V17.4414Z" fill="#50D9FF"/>
</g>
<defs>
<linearGradient id="paint0_linear_12_566" x1="61.6278" y1="52.3256" x2="61.6278" y2="96.5117" gradientUnits="userSpaceOnUse">
<stop stop-color="#35B8F1"/>
<stop offset="1" stop-color="#28A8EA"/>
</linearGradient>
<linearGradient id="paint1_linear_12_566" x1="8.88801" y1="21.0878" x2="42.2748" y2="78.9123" gradientUnits="userSpaceOnUse">
<stop stop-color="#1784D9"/>
<stop offset="0.5" stop-color="#107AD5"/>
<stop offset="1" stop-color="#0A63C9"/>
</linearGradient>
<clipPath id="clip0_12_566">
<rect width="100" height="100" fill="white"/>
</clipPath>
</defs>
</svg>
